NotoSansMalayalam-Light.ufo
<glyph name="exclam.mlym" format="2">
  <advance width="234"/>
  <unicode hex="0021"/>
  <outline>
    <contour>
      <point x="105" y="174" type="line"/>
      <point x="129" y="174" type="line"/>
      <point x="131" y="714" type="line"/>
      <point x="103" y="714" type="line"/>
    </contour>
    <contour>
      <point x="116" y="-8" type="curve" smooth="yes"/>
      <point x="140" y="-8"/>
      <point x="143" y="6"/>
      <point x="143" y="23" type="curve" smooth="yes"/>
      <point x="143" y="39"/>
      <point x="140" y="54"/>
      <point x="116" y="54" type="curve" smooth="yes"/>
      <point x="96" y="54"/>
      <point x="91" y="39"/>
      <point x="91" y="23" type="curve" smooth="yes"/>
      <point x="91" y="6"/>
      <point x="96" y="-8"/>
    </contour>
  </outline>
</glyph>
<glyph name="quotedbl.mlym" format="2">
  <advance width="361"/>
  <unicode hex="0022"/>
  <outline>
    <contour>
      <point x="98" y="542" type="line"/>
      <point x="119" y="542" type="line"/>
      <point x="123" y="800" type="line"/>
      <point x="95" y="800" type="line"/>
    </contour>
    <contour>
      <point x="242" y="542" type="line"/>
      <point x="263" y="542" type="line"/>
      <point x="267" y="800" type="line"/>
      <point x="239" y="800" type="line"/>
    </contour>
  </outline>
</glyph>
<glyph name="numbersign.mlym" format="2">
  <advance width="646"/>
  <unicode hex="0023"/>
  <outline>
    <contour>
      <point x="130" y="0" type="line"/>
      <point x="157" y="0" type="line"/>
      <point x="200" y="226" type="line"/>
      <point x="397" y="226" type="line"/>
      <point x="354" y="0" type="line"/>
      <point x="381" y="0" type="line"/>
      <point x="424" y="226" type="line"/>
      <point x="574" y="226" type="line"/>
      <point x="574" y="252" type="line"/>
      <point x="429" y="252" type="line"/>
      <point x="468" y="462" type="line"/>
      <point x="618" y="462" type="line"/>
      <point x="618" y="488" type="line"/>
      <point x="473" y="488" type="line"/>
      <point x="516" y="714" type="line"/>
      <point x="489" y="714" type="line"/>
      <point x="446" y="488" type="line"/>
      <point x="249" y="488" type="line"/>
      <point x="292" y="714" type="line"/>
      <point x="265" y="714" type="line"/>
      <point x="222" y="488" type="line"/>
      <point x="72" y="488" type="line"/>
      <point x="72" y="462" type="line"/>
      <point x="217" y="462" type="line"/>
      <point x="178" y="252" type="line"/>
      <point x="28" y="252" type="line"/>
      <point x="28" y="226" type="line"/>
      <point x="173" y="226" type="line"/>
    </contour>
    <contour>
      <point x="205" y="252" type="line"/>
      <point x="244" y="462" type="line"/>
      <point x="441" y="462" type="line"/>
      <point x="402" y="252" type="line"/>
    </contour>
  </outline>
</glyph>
<glyph name="quotesingle.mlym" format="2">
  <advance width="217"/>
  <unicode hex="0027"/>
  <outline>
    <contour>
      <point x="98" y="542" type="line"/>
      <point x="119" y="542" type="line"/>
      <point x="123" y="800" type="line"/>
      <point x="95" y="800" type="line"/>
    </contour>
  </outline>
</glyph>
<glyph name="parenleft.mlym" format="2">
  <advance width="275"/>
  <unicode hex="0028"/>
  <outline>
    <contour>
      <point x="60" y="276" type="curve" smooth="yes"/>
      <point x="60" y="65"/>
      <point x="116" y="-110"/>
      <point x="212" y="-244" type="curve"/>
      <point x="245" y="-244" type="line"/>
      <point x="138" y="-100"/>
      <point x="87" y="78"/>
      <point x="87" y="277" type="curve" smooth="yes"/>
      <point x="87" y="475"/>
      <point x="138" y="656"/>
      <point x="245" y="800" type="curve"/>
      <point x="212" y="800" type="line"/>
      <point x="116" y="665"/>
      <point x="60" y="487"/>
    </contour>
  </outline>
</glyph>
<glyph name="parenright.mlym" format="2">
  <advance width="275"/>
  <unicode hex="0029"/>
  <outline>
    <contour>
      <point x="215" y="280" type="curve" smooth="yes"/>
      <point x="215" y="491"/>
      <point x="159" y="666"/>
      <point x="63" y="800" type="curve"/>
      <point x="30" y="800" type="line"/>
      <point x="137" y="656"/>
      <point x="188" y="478"/>
      <point x="188" y="279" type="curve" smooth="yes"/>
      <point x="188" y="81"/>
      <point x="137" y="-100"/>
      <point x="30" y="-244" type="curve"/>
      <point x="63" y="-244" type="line"/>
      <point x="159" y="-109"/>
      <point x="215" y="69"/>
    </contour>
  </outline>
</glyph>
<glyph name="asterisk.mlym" format="2">
  <advance width="513"/>
  <unicode hex="002A"/>
  <outline>
    <contour>
      <point x="271" y="800" type="line"/>
      <point x="243" y="800" type="line"/>
      <point x="246" y="597" type="line"/>
      <point x="55" y="663" type="line"/>
      <point x="46" y="636" type="line"/>
      <point x="240" y="578" type="line"/>
      <point x="119" y="416" type="line"/>
      <point x="142" y="400" type="line"/>
      <point x="257" y="567" type="line"/>
      <point x="373" y="399" type="line"/>
      <point x="396" y="416" type="line"/>
      <point x="274" y="578" type="line"/>
      <point x="467" y="636" type="line"/>
      <point x="459" y="663" type="line"/>
      <point x="268" y="597" type="line"/>
    </contour>
  </outline>
</glyph>
<glyph name="plus.mlym" format="2">
  <advance width="572"/>
  <unicode hex="002B"/>
  <outline>
    <contour>
      <point x="273" y="123" type="line"/>
      <point x="299" y="123" type="line"/>
      <point x="299" y="340" type="line"/>
      <point x="516" y="340" type="line"/>
      <point x="516" y="366" type="line"/>
      <point x="299" y="366" type="line"/>
      <point x="299" y="583" type="line"/>
      <point x="273" y="583" type="line"/>
      <point x="273" y="366" type="line"/>
      <point x="56" y="366" type="line"/>
      <point x="56" y="340" type="line"/>
      <point x="273" y="340" type="line"/>
    </contour>
  </outline>
</glyph>
<glyph name="comma.mlym" format="2">
  <advance width="206"/>
  <unicode hex="002C"/>
  <outline>
    <contour>
      <point x="119" y="116" type="line"/>
      <point x="94" y="116" type="line"/>
      <point x="87" y="44"/>
      <point x="64" y="-60"/>
      <point x="37" y="-129" type="curve"/>
      <point x="59" y="-129" type="line"/>
      <point x="89" y="-60"/>
      <point x="114" y="25"/>
      <point x="125" y="107" type="curve"/>
    </contour>
  </outline>
</glyph>
<glyph name="period.mlym" format="2">
  <advance width="206"/>
  <unicode hex="002E"/>
  <outline>
    <contour>
      <point x="102" y="-8" type="curve" smooth="yes"/>
      <point x="126" y="-8"/>
      <point x="129" y="6"/>
      <point x="129" y="23" type="curve" smooth="yes"/>
      <point x="129" y="39"/>
      <point x="126" y="54"/>
      <point x="102" y="54" type="curve" smooth="yes"/>
      <point x="82" y="54"/>
      <point x="77" y="39"/>
      <point x="77" y="23" type="curve" smooth="yes"/>
      <point x="77" y="6"/>
      <point x="82" y="-8"/>
    </contour>
  </outline>
</glyph>
<glyph name="slash.mlym" format="2">
  <advance width="345"/>
  <unicode hex="002F"/>
  <outline>
    <contour>
      <point x="26" y="-244" type="line"/>
      <point x="53" y="-244" type="line"/>
      <point x="319" y="800" type="line"/>
      <point x="292" y="800" type="line"/>
    </contour>
  </outline>
</glyph>
<glyph name="six.mlym" format="2">
  <advance width="572"/>
  <unicode hex="0036"/>
  <outline>
    <contour>
      <point x="302" y="-10" type="curve" smooth="yes"/>
      <point x="438" y="-10"/>
      <point x="516" y="86"/>
      <point x="516" y="225" type="curve" smooth="yes"/>
      <point x="516" y="355"/>
      <point x="441" y="440"/>
      <point x="309" y="440" type="curve" smooth="yes"/>
      <point x="194" y="440"/>
      <point x="125" y="379"/>
      <point x="100" y="324" type="curve"/>
      <point x="98" y="324" type="line"/>
      <point x="102" y="604"/>
      <point x="221" y="700"/>
      <point x="370" y="700" type="curve" smooth="yes"/>
      <point x="410" y="700"/>
      <point x="444" y="694"/>
      <point x="468" y="685" type="curve"/>
      <point x="468" y="713" type="line"/>
      <point x="441" y="721"/>
      <point x="410" y="726"/>
      <point x="370" y="726" type="curve" smooth="yes"/>
      <point x="199" y="726"/>
      <point x="71" y="608"/>
      <point x="71" y="303" type="curve" smooth="yes"/>
      <point x="71" y="147"/>
      <point x="130" y="-10"/>
    </contour>
    <contour>
      <point x="302" y="16" type="curve" smooth="yes"/>
      <point x="140" y="16"/>
      <point x="102" y="179"/>
      <point x="102" y="258" type="curve" smooth="yes"/>
      <point x="102" y="325"/>
      <point x="179" y="414"/>
      <point x="307" y="414" type="curve" smooth="yes"/>
      <point x="426" y="414"/>
      <point x="489" y="341"/>
      <point x="489" y="224" type="curve" smooth="yes"/>
      <point x="489" y="95"/>
      <point x="423" y="16"/>
    </contour>
  </outline>
</glyph>
<glyph name="semicolon.mlym" format="2">
  <advance width="206"/>
  <unicode hex="003B"/>
  <outline>
    <contour>
      <point x="119" y="116" type="line"/>
      <point x="94" y="116" type="line"/>
      <point x="87" y="44"/>
      <point x="66" y="-59"/>
      <point x="37" y="-129" type="curve"/>
      <point x="59" y="-129" type="line"/>
      <point x="89" y="-60"/>
      <point x="114" y="25"/>
      <point x="125" y="107" type="curve"/>
    </contour>
    <contour>
      <point x="102" y="480" type="curve" smooth="yes"/>
      <point x="126" y="480"/>
      <point x="129" y="494"/>
      <point x="129" y="511" type="curve" smooth="yes"/>
      <point x="129" y="527"/>
      <point x="126" y="542"/>
      <point x="102" y="542" type="curve" smooth="yes"/>
      <point x="82" y="542"/>
      <point x="77" y="527"/>
      <point x="77" y="511" type="curve" smooth="yes"/>
      <point x="77" y="494"/>
      <point x="82" y="480"/>
    </contour>
  </outline>
</glyph>
<glyph name="equal.mlym" format="2">
  <advance width="572"/>
  <unicode hex="003D"/>
  <outline>
    <contour>
      <point x="56" y="238" type="line"/>
      <point x="516" y="238" type="line"/>
      <point x="516" y="264" type="line"/>
      <point x="56" y="264" type="line"/>
    </contour>
    <contour>
      <point x="56" y="442" type="line"/>
      <point x="516" y="442" type="line"/>
      <point x="516" y="468" type="line"/>
      <point x="56" y="468" type="line"/>
    </contour>
  </outline>
</glyph>
<glyph name="greater.mlym" format="2">
  <advance width="572"/>
  <unicode hex="003E"/>
  <outline>
    <contour>
      <point x="57" y="127" type="line"/>
      <point x="515" y="342" type="line"/>
      <point x="515" y="364" type="line"/>
      <point x="57" y="579" type="line"/>
      <point x="57" y="551" type="line"/>
      <point x="482" y="353" type="line"/>
      <point x="57" y="155" type="line"/>
    </contour>
  </outline>
</glyph>
<glyph name="question.mlym" format="2">
  <advance width="413"/>
  <unicode hex="003F"/>
  <outline>
    <contour>
      <point x="185" y="724" type="curve" smooth="yes"/>
      <point x="131" y="724"/>
      <point x="83" y="711"/>
      <point x="38" y="686" type="curve"/>
      <point x="49" y="662" type="line"/>
      <point x="90" y="686"/>
      <point x="135" y="698"/>
      <point x="184" y="698" type="curve" smooth="yes"/>
      <point x="278" y="698"/>
      <point x="347" y="653"/>
      <point x="347" y="553" type="curve" smooth="yes"/>
      <point x="347" y="463"/>
      <point x="301" y="422"/>
      <point x="229" y="371" type="curve" smooth="yes"/>
      <point x="160" y="322"/>
      <point x="143" y="284"/>
      <point x="143" y="186" type="curve" smooth="yes"/>
      <point x="143" y="174" type="line"/>
      <point x="169" y="174" type="line"/>
      <point x="169" y="186" type="line" smooth="yes"/>
      <point x="169" y="277"/>
      <point x="186" y="311"/>
      <point x="242" y="350" type="curve" smooth="yes"/>
      <point x="321" y="405"/>
      <point x="374" y="454"/>
      <point x="374" y="554" type="curve" smooth="yes"/>
      <point x="374" y="667"/>
      <point x="297" y="724"/>
    </contour>
    <contour>
      <point x="156" y="-8" type="curve" smooth="yes"/>
      <point x="180" y="-8"/>
      <point x="183" y="6"/>
      <point x="183" y="23" type="curve" smooth="yes"/>
      <point x="183" y="39"/>
      <point x="180" y="54"/>
      <point x="156" y="54" type="curve" smooth="yes"/>
      <point x="136" y="54"/>
      <point x="131" y="39"/>
      <point x="131" y="23" type="curve" smooth="yes"/>
      <point x="131" y="6"/>
      <point x="136" y="-8"/>
    </contour>
  </outline>
</glyph>
<glyph name="bracketleft.mlym" format="2">
  <advance width="307"/>
  <unicode hex="005B"/>
  <outline>
    <contour>
      <point x="94" y="-244" type="line"/>
      <point x="266" y="-244" type="line"/>
      <point x="266" y="-218" type="line"/>
      <point x="120" y="-218" type="line"/>
      <point x="120" y="774" type="line"/>
      <point x="266" y="774" type="line"/>
      <point x="266" y="800" type="line"/>
      <point x="94" y="800" type="line"/>
    </contour>
  </outline>
</glyph>
<glyph name="backslash.mlym" format="2">
  <advance width="345"/>
  <unicode hex="005C"/>
  <outline>
    <contour>
      <point x="292" y="-244" type="line"/>
      <point x="319" y="-244" type="line"/>
      <point x="53" y="800" type="line"/>
      <point x="26" y="800" type="line"/>
    </contour>
  </outline>
</glyph>
<glyph name="bracketright.mlym" format="2">
  <advance width="313"/>
  <unicode hex="005D"/>
  <outline>
    <contour>
      <point x="47" y="-244" type="line"/>
      <point x="219" y="-244" type="line"/>
      <point x="219" y="800" type="line"/>
      <point x="47" y="800" type="line"/>
      <point x="47" y="774" type="line"/>
      <point x="193" y="774" type="line"/>
      <point x="193" y="-218" type="line"/>
      <point x="47" y="-218" type="line"/>
    </contour>
  </outline>
</glyph>
<glyph name="underscore.mlym" format="2">
  <advance width="444"/>
  <unicode hex="005F"/>
  <outline>
    <contour>
      <point x="-2" y="-115" type="line"/>
      <point x="446" y="-115" type="line"/>
      <point x="446" y="-90" type="line"/>
      <point x="-2" y="-90" type="line"/>
    </contour>
  </outline>
</glyph>
<glyph name="uni0307" format="2">
  <unicode hex="0307"/>
  <outline>
    <contour>
      <point x="-304" y="701" type="curve" smooth="yes"/>
      <point x="-304" y="684"/>
      <point x="-299" y="670"/>
      <point x="-279" y="670" type="curve" smooth="yes"/>
      <point x="-255" y="670"/>
      <point x="-252" y="684"/>
      <point x="-252" y="701" type="curve" smooth="yes"/>
      <point x="-252" y="717"/>
      <point x="-255" y="732"/>
      <point x="-279" y="732" type="curve" smooth="yes"/>
      <point x="-299" y="732"/>
      <point x="-304" y="717"/>
    </contour>
  </outline>
</glyph>
<glyph name="uni0951" format="2">
  <unicode hex="0951"/>
  <outline>
    <contour>
      <point x="-290" y="864" type="line"/>
      <point x="-290" y="653" type="line"/>
      <point x="-264" y="653" type="line"/>
      <point x="-264" y="864" type="line"/>
    </contour>
  </outline>
</glyph>
<glyph name="danda.mlym" format="2">
  <advance width="308"/>
  <unicode hex="0964"/>
  <outline>
    <contour>
      <point x="188" y="-49" type="line"/>
      <point x="214" y="-49" type="line"/>
      <point x="214" y="595" type="line"/>
      <point x="188" y="595" type="line"/>
    </contour>
  </outline>
</glyph>
<glyph name="dbldanda.mlym" format="2">
  <advance width="516"/>
  <unicode hex="0965"/>
  <outline>
    <contour>
      <point x="396" y="-49" type="line"/>
      <point x="422" y="-49" type="line"/>
      <point x="422" y="595" type="line"/>
      <point x="396" y="595" type="line"/>
    </contour>
    <contour>
      <point x="188" y="-49" type="line"/>
      <point x="214" y="-49" type="line"/>
      <point x="214" y="595" type="line"/>
      <point x="188" y="595" type="line"/>
    </contour>
  </outline>
</glyph>
<glyph name="candrabindumlym" format="2">
  <unicode hex="0D01"/>
  <outline>
    <contour>
      <point x="-278" y="672" type="curve" smooth="yes"/>
      <point x="-190" y="672"/>
      <point x="-131" y="717"/>
      <point x="-131" y="806" type="curve" smooth="yes"/>
      <point x="-131" y="818"/>
      <point x="-132" y="839"/>
      <point x="-136" y="855" type="curve"/>
      <point x="-162" y="849" type="line"/>
      <point x="-158" y="835"/>
      <point x="-157" y="820"/>
      <point x="-157" y="807" type="curve" smooth="yes"/>
      <point x="-157" y="739"/>
      <point x="-193" y="698"/>
      <point x="-278" y="698" type="curve" smooth="yes"/>
      <point x="-357" y="698"/>
      <point x="-398" y="729"/>
      <point x="-398" y="807" type="curve" smooth="yes"/>
      <point x="-398" y="819"/>
      <point x="-397" y="835"/>
      <point x="-393" y="849" type="curve"/>
      <point x="-418" y="855" type="line"/>
      <point x="-423" y="839"/>
      <point x="-424" y="819"/>
      <point x="-424" y="808" type="curve" smooth="yes"/>
      <point x="-424" y="716"/>
      <point x="-371" y="672"/>
    </contour>
    <contour>
      <point x="-278" y="779" type="curve" smooth="yes"/>
      <point x="-255" y="779"/>
      <point x="-252" y="793"/>
      <point x="-252" y="810" type="curve" smooth="yes"/>
      <point x="-252" y="826"/>
      <point x="-255" y="841"/>
      <point x="-278" y="841" type="curve" smooth="yes"/>
      <point x="-299" y="841"/>
      <point x="-304" y="826"/>
      <point x="-304" y="810" type="curve" smooth="yes"/>
      <point x="-304" y="793"/>
      <point x="-299" y="779"/>
    </contour>
  </outline>
</glyph>
<glyph name="anusvaramlym" format="2">
  <advance width="411"/>
  <unicode hex="0D02"/>
  <outline>
    <contour>
      <point x="205" y="-12" type="curve" smooth="yes"/>
      <point x="307" y="-12"/>
      <point x="373" y="58"/>
      <point x="373" y="167" type="curve" smooth="yes"/>
      <point x="373" y="275"/>
      <point x="306" y="344"/>
      <point x="206" y="344" type="curve" smooth="yes"/>
      <point x="105" y="344"/>
      <point x="38" y="274"/>
      <point x="38" y="166" type="curve" smooth="yes"/>
      <point x="38" y="57"/>
      <point x="105" y="-12"/>
    </contour>
    <contour>
      <point x="206" y="318" type="curve" smooth="yes"/>
      <point x="289" y="318"/>
      <point x="346" y="265"/>
      <point x="346" y="167" type="curve" smooth="yes"/>
      <point x="346" y="67"/>
      <point x="289" y="14"/>
      <point x="205" y="14" type="curve" smooth="yes"/>
      <point x="122" y="14"/>
      <point x="65" y="67"/>
      <point x="65" y="166" type="curve" smooth="yes"/>
      <point x="65" y="265"/>
      <point x="122" y="318"/>
    </contour>
  </outline>
</glyph>
<glyph name="visargamlym" format="2">
  <advance width="312"/>
  <unicode hex="0D03"/>
  <outline>
    <contour>
      <point x="38" y="434" type="curve" smooth="yes"/>
      <point x="38" y="365"/>
      <point x="82" y="310"/>
      <point x="155" y="310" type="curve" smooth="yes"/>
      <point x="228" y="310"/>
      <point x="274" y="363"/>
      <point x="274" y="434" type="curve" smooth="yes"/>
      <point x="274" y="504"/>
      <point x="228" y="558"/>
      <point x="155" y="558" type="curve" smooth="yes"/>
      <point x="83" y="558"/>
      <point x="38" y="503"/>
    </contour>
    <contour>
      <point x="65" y="435" type="curve" smooth="yes"/>
      <point x="65" y="491"/>
      <point x="98" y="532"/>
      <point x="155" y="532" type="curve" smooth="yes"/>
      <point x="216" y="532"/>
      <point x="247" y="491"/>
      <point x="247" y="435" type="curve" smooth="yes"/>
      <point x="247" y="377"/>
      <point x="216" y="336"/>
      <point x="155" y="336" type="curve" smooth="yes"/>
      <point x="96" y="336"/>
      <point x="65" y="377"/>
    </contour>
    <contour>
      <point x="38" y="112" type="curve" smooth="yes"/>
      <point x="38" y="43"/>
      <point x="82" y="-12"/>
      <point x="155" y="-12" type="curve" smooth="yes"/>
      <point x="228" y="-12"/>
      <point x="274" y="41"/>
      <point x="274" y="112" type="curve" smooth="yes"/>
      <point x="274" y="182"/>
      <point x="228" y="236"/>
      <point x="155" y="236" type="curve" smooth="yes"/>
      <point x="83" y="236"/>
      <point x="38" y="181"/>
    </contour>
    <contour>
      <point x="65" y="113" type="curve" smooth="yes"/>
      <point x="65" y="169"/>
      <point x="98" y="210"/>
      <point x="155" y="210" type="curve" smooth="yes"/>
      <point x="216" y="210"/>
      <point x="247" y="169"/>
      <point x="247" y="113" type="curve" smooth="yes"/>
      <point x="247" y="55"/>
      <point x="216" y="14"/>
      <point x="155" y="14" type="curve" smooth="yes"/>
      <point x="96" y="14"/>
      <point x="65" y="55"/>
    </contour>
  </outline>
</glyph>
<glyph name="amlym" format="2">
  <advance width="1394"/>
  <unicode hex="0D05"/>
  <outline>
    <contour>
      <point x="352" y="558" type="curve" smooth="yes"/>
      <point x="147" y="558"/>
      <point x="45" y="436"/>
      <point x="45" y="275" type="curve" smooth="yes"/>
      <point x="45" y="126"/>
      <point x="116" y="45"/>
      <point x="191" y="-8" type="curve"/>
      <point x="206" y="13" type="line"/>
      <point x="119" y="74"/>
      <point x="72" y="151"/>
      <point x="72" y="276" type="curve" smooth="yes"/>
      <point x="72" y="414"/>
      <point x="153" y="532"/>
      <point x="350" y="532" type="curve" smooth="yes"/>
      <point x="392" y="532"/>
      <point x="443" y="528"/>
      <point x="488" y="515" type="curve" smooth="yes"/>
      <point x="560" y="495"/>
      <point x="620" y="453"/>
      <point x="620" y="371" type="curve" smooth="yes"/>
      <point x="620" y="307"/>
      <point x="588" y="263"/>
      <point x="485" y="263" type="curve" smooth="yes"/>
      <point x="465" y="263" type="line"/>
      <point x="465" y="237" type="line"/>
      <point x="494" y="237" type="line" smooth="yes"/>
      <point x="594" y="237"/>
      <point x="631" y="185"/>
      <point x="631" y="123" type="curve" smooth="yes"/>
      <point x="631" y="49"/>
      <point x="586" y="14"/>
      <point x="507" y="14" type="curve" smooth="yes"/>
      <point x="387" y="14"/>
      <point x="329" y="97"/>
      <point x="329" y="233" type="curve" smooth="yes"/>
      <point x="329" y="360"/>
      <point x="399" y="472"/>
      <point x="515" y="514" type="curve" smooth="yes"/>
      <point x="546" y="525"/>
      <point x="581" y="532"/>
      <point x="619" y="532" type="curve" smooth="yes"/>
      <point x="695" y="532"/>
      <point x="741" y="515"/>
      <point x="772" y="483" type="curve" smooth="yes"/>
      <point x="808" y="447"/>
      <point x="821" y="396"/>
      <point x="821" y="309" type="curve" smooth="yes"/>
      <point x="821" y="0" type="line"/>
      <point x="847" y="0" type="line"/>
      <point x="847" y="278" type="line"/>
      <point x="841" y="354" type="line"/>
      <point x="836" y="470"/>
      <point x="785" y="558"/>
      <point x="622" y="558" type="curve" smooth="yes"/>
      <point x="573" y="558"/>
      <point x="528" y="547"/>
      <point x="488" y="529" type="curve" smooth="yes"/>
      <point x="484" y="527"/>
      <point x="481" y="523"/>
      <point x="477" y="521" type="curve" smooth="yes"/>
      <point x="367" y="469"/>
      <point x="302" y="361"/>
      <point x="302" y="233" type="curve" smooth="yes"/>
      <point x="302" y="81"/>
      <point x="373" y="-12"/>
      <point x="507" y="-12" type="curve" smooth="yes"/>
      <point x="610" y="-12"/>
      <point x="658" y="47"/>
      <point x="658" y="123" type="curve" smooth="yes"/>
      <point x="658" y="203"/>
      <point x="610" y="252"/>
      <point x="507" y="255" type="curve"/>
      <point x="505" y="246" type="line"/>
      <point x="617" y="249"/>
      <point x="647" y="305"/>
      <point x="647" y="372" type="curve" smooth="yes"/>
      <point x="647" y="452"/>
      <point x="595" y="502"/>
      <point x="527" y="526" type="curve" smooth="yes"/>
      <point x="523" y="527"/>
      <point x="521" y="532"/>
      <point x="517" y="533" type="curve" smooth="yes"/>
      <point x="465" y="552"/>
      <point x="404" y="558"/>
    </contour>
    <contour>
      <point x="1169" y="-12" type="curve" smooth="yes"/>
      <point x="1275" y="-12"/>
      <point x="1349" y="61"/>
      <point x="1349" y="243" type="curve" smooth="yes"/>
      <point x="1349" y="424"/>
      <point x="1247" y="558"/>
      <point x="1054" y="558" type="curve" smooth="yes"/>
      <point x="920" y="558"/>
      <point x="835" y="473"/>
      <point x="829" y="349" type="curve"/>
      <point x="847" y="261" type="line"/>
      <point x="847" y="292" type="line" smooth="yes"/>
      <point x="847" y="394"/>
      <point x="869" y="446"/>
      <point x="914" y="485" type="curve" smooth="yes"/>
      <point x="948" y="515"/>
      <point x="995" y="532"/>
      <point x="1055" y="532" type="curve" smooth="yes"/>
      <point x="1232" y="532"/>
      <point x="1306" y="414"/>
      <point x="1322" y="291" type="curve" smooth="yes"/>
      <point x="1323" y="285"/>
      <point x="1322" y="277"/>
      <point x="1322" y="271" type="curve" smooth="yes"/>
      <point x="1322" y="265"/>
      <point x="1323" y="259"/>
      <point x="1323" y="244" type="curve" smooth="yes"/>
      <point x="1323" y="83"/>
      <point x="1267" y="14"/>
      <point x="1171" y="14" type="curve" smooth="yes"/>
      <point x="1069" y="14"/>
      <point x="1032" y="92"/>
      <point x="1032" y="189" type="curve" smooth="yes"/>
      <point x="1032" y="290"/>
      <point x="1082" y="354"/>
      <point x="1179" y="354" type="curve" smooth="yes"/>
      <point x="1257" y="354"/>
      <point x="1308" y="295"/>
      <point x="1333" y="243" type="curve"/>
      <point x="1345" y="257" type="line"/>
      <point x="1314" y="324"/>
      <point x="1263" y="380"/>
      <point x="1178" y="380" type="curve" smooth="yes"/>
      <point x="1078" y="380"/>
      <point x="1005" y="314"/>
      <point x="1005" y="187" type="curve" smooth="yes"/>
      <point x="1005" y="76"/>
      <point x="1055" y="-12"/>
    </contour>
  </outline>
</glyph>
<glyph name="aamlym" format="2">
  <advance width="1529"/>
  <unicode hex="0D06"/>
  <outline>
    <contour>
      <point x="352" y="558" type="curve" smooth="yes"/>
      <point x="147" y="558"/>
      <point x="45" y="436"/>
      <point x="45" y="275" type="curve" smooth="yes"/>
      <point x="45" y="126"/>
      <point x="116" y="45"/>
      <point x="191" y="-8" type="curve"/>
      <point x="206" y="13" type="line"/>
      <point x="119" y="74"/>
      <point x="72" y="151"/>
      <point x="72" y="276" type="curve" smooth="yes"/>
      <point x="72" y="414"/>
      <point x="153" y="532"/>
      <point x="350" y="532" type="curve" smooth="yes"/>
      <point x="392" y="532"/>
      <point x="443" y="528"/>
      <point x="488" y="515" type="curve" smooth="yes"/>
      <point x="560" y="495"/>
      <point x="620" y="453"/>
      <point x="620" y="371" type="curve" smooth="yes"/>
      <point x="620" y="307"/>
      <point x="588" y="263"/>
      <point x="485" y="263" type="curve" smooth="yes"/>
      <point x="465" y="263" type="line"/>
      <point x="465" y="237" type="line"/>
      <point x="494" y="237" type="line" smooth="yes"/>
      <point x="594" y="237"/>
      <point x="631" y="185"/>
      <point x="631" y="123" type="curve" smooth="yes"/>
      <point x="631" y="49"/>
      <point x="586" y="14"/>
      <point x="507" y="14" type="curve" smooth="yes"/>
      <point x="387" y="14"/>
      <point x="329" y="97"/>
      <point x="329" y="233" type="curve" smooth="yes"/>
      <point x="329" y="360"/>
      <point x="399" y="472"/>
      <point x="515" y="514" type="curve" smooth="yes"/>
      <point x="546" y="525"/>
      <point x="581" y="532"/>
      <point x="619" y="532" type="curve" smooth="yes"/>
      <point x="695" y="532"/>
      <point x="741" y="515"/>
      <point x="772" y="483" type="curve" smooth="yes"/>
      <point x="808" y="447"/>
      <point x="821" y="396"/>
      <point x="821" y="309" type="curve" smooth="yes"/>
      <point x="821" y="0" type="line"/>
      <point x="847" y="0" type="line"/>
      <point x="847" y="278" type="line"/>
      <point x="841" y="354" type="line"/>
      <point x="836" y="470"/>
      <point x="785" y="558"/>
      <point x="622" y="558" type="curve" smooth="yes"/>
      <point x="573" y="558"/>
      <point x="528" y="547"/>
      <point x="488" y="529" type="curve" smooth="yes"/>
      <point x="484" y="527"/>
      <point x="481" y="523"/>
      <point x="477" y="521" type="curve" smooth="yes"/>
      <point x="367" y="469"/>
      <point x="302" y="361"/>
      <point x="302" y="233" type="curve" smooth="yes"/>
      <point x="302" y="81"/>
      <point x="373" y="-12"/>
      <point x="507" y="-12" type="curve" smooth="yes"/>
      <point x="610" y="-12"/>
      <point x="658" y="47"/>
      <point x="658" y="123" type="curve" smooth="yes"/>
      <point x="658" y="203"/>
      <point x="610" y="252"/>
      <point x="507" y="255" type="curve"/>
      <point x="505" y="246" type="line"/>
      <point x="617" y="249"/>
      <point x="647" y="305"/>
      <point x="647" y="372" type="curve" smooth="yes"/>
      <point x="647" y="452"/>
      <point x="595" y="502"/>
      <point x="527" y="526" type="curve" smooth="yes"/>
      <point x="523" y="527"/>
      <point x="521" y="532"/>
      <point x="517" y="533" type="curve" smooth="yes"/>
      <point x="465" y="552"/>
      <point x="404" y="558"/>
    </contour>
    <contour>
      <point x="1052" y="558" type="curve" smooth="yes"/>
      <point x="918" y="558"/>
      <point x="834" y="473"/>
      <point x="828" y="349" type="curve"/>
      <point x="847" y="197" type="line"/>
      <point x="847" y="292" type="line" smooth="yes"/>
      <point x="847" y="394"/>
      <point x="868" y="446"/>
      <point x="913" y="485" type="curve" smooth="yes"/>
      <point x="947" y="515"/>
      <point x="994" y="532"/>
      <point x="1052" y="532" type="curve" smooth="yes"/>
      <point x="1195" y="532"/>
      <point x="1260" y="445"/>
      <point x="1286" y="345" type="curve"/>
      <point x="1288" y="333" type="line" smooth="yes"/>
      <point x="1296" y="296"/>
      <point x="1300" y="259"/>
      <point x="1300" y="223" type="curve" smooth="yes"/>
      <point x="1300" y="96"/>
      <point x="1249" y="14"/>
      <point x="1147" y="14" type="curve" smooth="yes"/>
      <point x="1042" y="14"/>
      <point x="1015" y="94"/>
      <point x="1015" y="160" type="curve" smooth="yes"/>
      <point x="1015" y="283"/>
      <point x="1103" y="331"/>
      <point x="1223" y="331" type="curve" smooth="yes"/>
      <point x="1250" y="331"/>
      <point x="1274" y="328"/>
      <point x="1297" y="323" type="curve" smooth="yes"/>
      <point x="1309" y="321" type="line"/>
      <point x="1411" y="291"/>
      <point x="1471" y="206"/>
      <point x="1471" y="80" type="curve" smooth="yes"/>
      <point x="1471" y="-77"/>
      <point x="1385" y="-175"/>
      <point x="1225" y="-175" type="curve" smooth="yes"/>
      <point x="1164" y="-175"/>
      <point x="1109" y="-164"/>
      <point x="1070" y="-148" type="curve"/>
      <point x="1060" y="-172" type="line"/>
      <point x="1098" y="-188"/>
      <point x="1155" y="-201"/>
      <point x="1225" y="-201" type="curve" smooth="yes"/>
      <point x="1389" y="-201"/>
      <point x="1498" y="-101"/>
      <point x="1498" y="80" type="curve" smooth="yes"/>
      <point x="1498" y="197"/>
      <point x="1443" y="314"/>
      <point x="1306" y="348" type="curve"/>
      <point x="1292" y="350" type="line" smooth="yes"/>
      <point x="1271" y="354"/>
      <point x="1247" y="357"/>
      <point x="1223" y="357" type="curve" smooth="yes"/>
      <point x="1079" y="357"/>
      <point x="988" y="288"/>
      <point x="988" y="162" type="curve" smooth="yes"/>
      <point x="988" y="79"/>
      <point x="1028" y="-12"/>
      <point x="1148" y="-12" type="curve" smooth="yes"/>
      <point x="1246" y="-12"/>
      <point x="1327" y="60"/>
      <point x="1327" y="222" type="curve" smooth="yes"/>
      <point x="1327" y="261"/>
      <point x="1324" y="297"/>
      <point x="1317" y="331" type="curve" smooth="yes"/>
      <point x="1289" y="467"/>
      <point x="1202" y="558"/>
    </contour>
  </outline>
</glyph>
<glyph name="imlym" format="2">
  <advance width="918"/>
  <unicode hex="0D07"/>
  <outline>
    <contour>
      <point x="303" y="558" type="curve" smooth="yes"/>
      <point x="135" y="558"/>
      <point x="46" y="434"/>
      <point x="46" y="304" type="curve" smooth="yes"/>
      <point x="46" y="178"/>
      <point x="92" y="102"/>
      <point x="190" y="102" type="curve" smooth="yes"/>
      <point x="284" y="102"/>
      <point x="328" y="171"/>
      <point x="328" y="248" type="curve" smooth="yes"/>
      <point x="328" y="318"/>
      <point x="288" y="385"/>
      <point x="192" y="385" type="curve" smooth="yes"/>
      <point x="129" y="385"/>
      <point x="78" y="352"/>
      <point x="49" y="314" type="curve"/>
      <point x="55" y="290" type="line"/>
      <point x="93" y="334"/>
      <point x="140" y="359"/>
      <point x="192" y="359" type="curve" smooth="yes"/>
      <point x="273" y="359"/>
      <point x="301" y="305"/>
      <point x="301" y="247" type="curve" smooth="yes"/>
      <point x="301" y="179"/>
      <point x="264" y="128"/>
      <point x="192" y="128" type="curve" smooth="yes"/>
      <point x="102" y="128"/>
      <point x="72" y="199"/>
      <point x="72" y="303" type="curve" smooth="yes"/>
      <point x="72" y="310"/>
      <point x="72" y="316"/>
      <point x="72" y="320" type="curve" smooth="yes"/>
      <point x="72" y="323"/>
      <point x="71" y="326"/>
      <point x="71" y="329" type="curve"/>
      <point x="79" y="421"/>
      <point x="151" y="532"/>
      <point x="302" y="532" type="curve" smooth="yes"/>
      <point x="356" y="532"/>
      <point x="388" y="524"/>
      <point x="423" y="499" type="curve" smooth="yes"/>
      <point x="471" y="464"/>
      <point x="493" y="408"/>
      <point x="493" y="321" type="curve" smooth="yes"/>
      <point x="493" y="109" type="line"/>
      <point x="519" y="109" type="line"/>
      <point x="519" y="318" type="line" smooth="yes"/>
      <point x="519" y="392"/>
      <point x="531" y="458"/>
      <point x="571" y="497" type="curve" smooth="yes"/>
      <point x="594" y="519"/>
      <point x="626" y="532"/>
      <point x="671" y="532" type="curve" smooth="yes"/>
      <point x="794" y="532"/>
      <point x="846" y="428"/>
      <point x="846" y="299" type="curve" smooth="yes"/>
      <point x="846" y="198"/>
      <point x="821" y="127"/>
      <point x="765" y="83" type="curve" smooth="yes"/>
      <point x="716" y="45"/>
      <point x="657" y="26"/>
      <point x="518" y="26" type="curve" smooth="yes"/>
      <point x="235" y="26" type="line" smooth="yes"/>
      <point x="153" y="26"/>
      <point x="116" y="15"/>
      <point x="88" y="-13" type="curve" smooth="yes"/>
      <point x="70" y="-31"/>
      <point x="61" y="-56"/>
      <point x="61" y="-86" type="curve" smooth="yes"/>
      <point x="61" y="-123"/>
      <point x="75" y="-151"/>
      <point x="100" y="-170" type="curve" smooth="yes"/>
      <point x="130" y="-193"/>
      <point x="167" y="-201"/>
      <point x="227" y="-201" type="curve" smooth="yes"/>
      <point x="856" y="-201" type="line"/>
      <point x="856" y="-175" type="line"/>
      <point x="234" y="-175" type="line" smooth="yes"/>
      <point x="173" y="-175"/>
      <point x="139" y="-168"/>
      <point x="116" y="-150" type="curve" smooth="yes"/>
      <point x="98" y="-136"/>
      <point x="88" y="-115"/>
      <point x="88" y="-86" type="curve" smooth="yes"/>
      <point x="88" y="-62"/>
      <point x="95" y="-43"/>
      <point x="107" y="-30" type="curve" smooth="yes"/>
      <point x="131" y="-5"/>
      <point x="170" y="0"/>
      <point x="238" y="0" type="curve" smooth="yes"/>
      <point x="520" y="0" type="line" smooth="yes"/>
      <point x="663" y="0"/>
      <point x="728" y="19"/>
      <point x="783" y="64" type="curve" smooth="yes"/>
      <point x="841" y="111"/>
      <point x="873" y="184"/>
      <point x="873" y="300" type="curve" smooth="yes"/>
      <point x="873" y="439"/>
      <point x="810" y="558"/>
      <point x="671" y="558" type="curve" smooth="yes"/>
      <point x="584" y="558"/>
      <point x="518" y="513"/>
      <point x="500" y="395" type="curve"/>
      <point x="509" y="401" type="line"/>
      <point x="485" y="506"/>
      <point x="423" y="558"/>
    </contour>
  </outline>
</glyph>
<glyph name="umlym" format="2">
  <advance width="641"/>
  <unicode hex="0D09"/>
  <outline>
    <contour>
      <point x="321" y="558" type="curve" smooth="yes"/>
      <point x="134" y="558"/>
      <point x="46" y="428"/>
      <point x="46" y="304" type="curve" smooth="yes"/>
      <point x="46" y="178"/>
      <point x="92" y="102"/>
      <point x="190" y="102" type="curve" smooth="yes"/>
      <point x="284" y="102"/>
      <point x="328" y="171"/>
      <point x="328" y="248" type="curve" smooth="yes"/>
      <point x="328" y="318"/>
      <point x="288" y="385"/>
      <point x="192" y="385" type="curve" smooth="yes"/>
      <point x="129" y="385"/>
      <point x="78" y="352"/>
      <point x="49" y="314" type="curve"/>
      <point x="55" y="290" type="line"/>
      <point x="93" y="334"/>
      <point x="140" y="359"/>
      <point x="192" y="359" type="curve" smooth="yes"/>
      <point x="273" y="359"/>
      <point x="301" y="305"/>
      <point x="301" y="247" type="curve" smooth="yes"/>
      <point x="301" y="179"/>
      <point x="264" y="128"/>
      <point x="192" y="128" type="curve" smooth="yes"/>
      <point x="102" y="128"/>
      <point x="72" y="199"/>
      <point x="72" y="303" type="curve" smooth="yes"/>
      <point x="72" y="310"/>
      <point x="72" y="316"/>
      <point x="72" y="320" type="curve" smooth="yes"/>
      <point x="72" y="323"/>
      <point x="72" y="326"/>
      <point x="72" y="329" type="curve" smooth="yes"/>
      <point x="79" y="415"/>
      <point x="148" y="532"/>
      <point x="322" y="532" type="curve" smooth="yes"/>
      <point x="479" y="532"/>
      <point x="569" y="430"/>
      <point x="569" y="282" type="curve" smooth="yes"/>
      <point x="569" y="187"/>
      <point x="545" y="114"/>
      <point x="470" y="71" type="curve" smooth="yes"/>
      <point x="419" y="42"/>
      <point x="358" y="26"/>
      <point x="245" y="26" type="curve" smooth="yes"/>
      <point x="235" y="26" type="line" smooth="yes"/>
      <point x="153" y="26"/>
      <point x="116" y="15"/>
      <point x="88" y="-13" type="curve" smooth="yes"/>
      <point x="70" y="-31"/>
      <point x="61" y="-56"/>
      <point x="61" y="-86" type="curve" smooth="yes"/>
      <point x="61" y="-123"/>
      <point x="75" y="-151"/>
      <point x="100" y="-170" type="curve" smooth="yes"/>
      <point x="130" y="-193"/>
      <point x="167" y="-201"/>
      <point x="227" y="-201" type="curve" smooth="yes"/>
      <point x="576" y="-201" type="line"/>
      <point x="576" y="-175" type="line"/>
      <point x="234" y="-175" type="line" smooth="yes"/>
      <point x="173" y="-175"/>
      <point x="139" y="-168"/>
      <point x="116" y="-150" type="curve" smooth="yes"/>
      <point x="98" y="-136"/>
      <point x="88" y="-115"/>
      <point x="88" y="-86" type="curve" smooth="yes"/>
      <point x="88" y="-62"/>
      <point x="95" y="-43"/>
      <point x="107" y="-30" type="curve" smooth="yes"/>
      <point x="131" y="-5"/>
      <point x="170" y="0"/>
      <point x="238" y="0" type="curve" smooth="yes"/>
      <point x="247" y="0" type="line" smooth="yes"/>
      <point x="352" y="0"/>
      <point x="418" y="13"/>
      <point x="482" y="48" type="curve" smooth="yes"/>
      <point x="565" y="93"/>
      <point x="596" y="171"/>
      <point x="596" y="287" type="curve" smooth="yes"/>
      <point x="596" y="446"/>
      <point x="488" y="558"/>
    </contour>
  </outline>
</glyph>
<glyph name="lvocalicmlym" format="2">
  <advance width="1089"/>
  <unicode hex="0D0C"/>
  <outline>
    <contour>
      <point x="330" y="558" type="curve" smooth="yes"/>
      <point x="158" y="558"/>
      <point x="48" y="422"/>
      <point x="48" y="225" type="curve" smooth="yes"/>
      <point x="48" y="53"/>
      <point x="124" y="-12"/>
      <point x="218" y="-12" type="curve" smooth="yes"/>
      <point x="295" y="-12"/>
      <point x="358" y="39"/>
      <point x="358" y="149" type="curve" smooth="yes"/>
      <point x="358" y="250"/>
      <point x="290" y="302"/>
      <point x="211" y="302" type="curve" smooth="yes"/>
      <point x="158" y="302"/>
      <point x="99" y="280"/>
      <point x="53" y="229" type="curve"/>
      <point x="58" y="203" type="line"/>
      <point x="89" y="238"/>
      <point x="147" y="276"/>
      <point x="210" y="276" type="curve" smooth="yes"/>
      <point x="293" y="276"/>
      <point x="331" y="219"/>
      <point x="331" y="149" type="curve" smooth="yes"/>
      <point x="331" y="49"/>
      <point x="279" y="14"/>
      <point x="218" y="14" type="curve" smooth="yes"/>
      <point x="130" y="14"/>
      <point x="74" y="79"/>
      <point x="74" y="226" type="curve" smooth="yes"/>
      <point x="74" y="232" type="line" smooth="yes"/>
      <point x="74" y="403"/>
      <point x="170" y="532"/>
      <point x="329" y="532" type="curve" smooth="yes"/>
      <point x="381" y="532"/>
      <point x="413" y="522"/>
      <point x="445" y="498" type="curve" smooth="yes"/>
      <point x="488" y="465"/>
      <point x="516" y="414"/>
      <point x="516" y="312" type="curve" smooth="yes"/>
      <point x="516" y="0" type="line"/>
      <point x="542" y="0" type="line"/>
      <point x="542" y="279" type="line"/>
      <point x="534" y="368" type="line"/>
      <point x="533" y="389" type="line"/>
      <point x="516" y="495"/>
      <point x="447" y="558"/>
    </contour>
    <contour>
      <point x="864" y="-12" type="curve" smooth="yes"/>
      <point x="970" y="-12"/>
      <point x="1044" y="61"/>
      <point x="1044" y="243" type="curve" smooth="yes"/>
      <point x="1044" y="424"/>
      <point x="942" y="558"/>
      <point x="749" y="558" type="curve" smooth="yes"/>
      <point x="615" y="558"/>
      <point x="529" y="473"/>
      <point x="523" y="349" type="curve"/>
      <point x="542" y="261" type="line"/>
      <point x="542" y="292" type="line" smooth="yes"/>
      <point x="542" y="394"/>
      <point x="564" y="446"/>
      <point x="609" y="485" type="curve" smooth="yes"/>
      <point x="643" y="515"/>
      <point x="690" y="532"/>
      <point x="750" y="532" type="curve" smooth="yes"/>
      <point x="927" y="532"/>
      <point x="1001" y="414"/>
      <point x="1017" y="291" type="curve" smooth="yes"/>
      <point x="1018" y="285"/>
      <point x="1017" y="277"/>
      <point x="1017" y="271" type="curve" smooth="yes"/>
      <point x="1017" y="265"/>
      <point x="1018" y="259"/>
      <point x="1018" y="244" type="curve" smooth="yes"/>
      <point x="1018" y="83"/>
      <point x="962" y="14"/>
      <point x="866" y="14" type="curve" smooth="yes"/>
      <point x="764" y="14"/>
      <point x="727" y="92"/>
      <point x="727" y="189" type="curve" smooth="yes"/>
      <point x="727" y="290"/>
      <point x="777" y="354"/>
      <point x="874" y="354" type="curve" smooth="yes"/>
      <point x="952" y="354"/>
      <point x="1003" y="295"/>
      <point x="1028" y="243" type="curve"/>
      <point x="1040" y="257" type="line"/>
      <point x="1009" y="324"/>
      <point x="958" y="380"/>
      <point x="873" y="380" type="curve" smooth="yes"/>
      <point x="773" y="380"/>
      <point x="700" y="314"/>
      <point x="700" y="187" type="curve" smooth="yes"/>
      <point x="700" y="76"/>
      <point x="750" y="-12"/>
    </contour>
  </outline>
</glyph>
<glyph name="emlym" format="2">
  <advance width="1157"/>
  <unicode hex="0D0E"/>
  <outline>
    <contour>
      <point x="201" y="327" type="curve" smooth="yes"/>
      <point x="104" y="327"/>
      <point x="38" y="250"/>
      <point x="38" y="159" type="curve" smooth="yes"/>
      <point x="38" y="80"/>
      <point x="69" y="39"/>
      <point x="123" y="-8" type="curve"/>
      <point x="139" y="13" type="line"/>
      <point x="90" y="52"/>
      <point x="65" y="92"/>
      <point x="65" y="159" type="curve" smooth="yes"/>
      <point x="65" y="234"/>
      <point x="115" y="301"/>
      <point x="201" y="301" type="curve" smooth="yes"/>
      <point x="284" y="301"/>
      <point x="338" y="245"/>
      <point x="338" y="157" type="curve" smooth="yes"/>
      <point x="338" y="105"/>
      <point x="321" y="64"/>
      <point x="279" y="21" type="curve"/>
      <point x="291" y="0" type="line"/>
      <point x="804" y="0" type="line"/>
      <point x="804" y="26" type="line"/>
      <point x="304" y="26" type="line"/>
      <point x="298" y="10" type="line"/>
      <point x="340" y="47"/>
      <point x="365" y="95"/>
      <point x="365" y="158" type="curve" smooth="yes"/>
      <point x="365" y="257"/>
      <point x="299" y="327"/>
    </contour>
    <contour>
      <point x="827" y="558" type="curve" smooth="yes"/>
      <point x="647" y="558"/>
      <point x="535" y="400"/>
      <point x="535" y="137" type="curve" smooth="yes"/>
      <point x="535" y="-140"/>
      <point x="610" y="-228"/>
      <point x="714" y="-228" type="curve" smooth="yes"/>
      <point x="738" y="-228"/>
      <point x="759" y="-222"/>
      <point x="775" y="-211" type="curve" smooth="yes"/>
      <point x="811" y="-187"/>
      <point x="824" y="-146"/>
      <point x="824" y="-76" type="curve" smooth="yes"/>
      <point x="824" y="415" type="line"/>
      <point x="798" y="415" type="line"/>
      <point x="798" y="-75" type="line" smooth="yes"/>
      <point x="798" y="-133"/>
      <point x="789" y="-171"/>
      <point x="761" y="-190" type="curve" smooth="yes"/>
      <point x="749" y="-198"/>
      <point x="734" y="-202"/>
      <point x="714" y="-202" type="curve" smooth="yes"/>
      <point x="636" y="-202"/>
      <point x="586" y="-140"/>
      <point x="568" y="7" type="curve" smooth="yes"/>
      <point x="568" y="11"/>
      <point x="567" y="15"/>
      <point x="567" y="19" type="curve" smooth="yes"/>
      <point x="564" y="53"/>
      <point x="562" y="92"/>
      <point x="562" y="135" type="curve" smooth="yes"/>
      <point x="562" y="384"/>
      <point x="661" y="532"/>
      <point x="825" y="532" type="curve" smooth="yes"/>
      <point x="1010" y="532"/>
      <point x="1081" y="373"/>
      <point x="1081" y="176" type="curve" smooth="yes"/>
      <point x="1081" y="29"/>
      <point x="1030" y="-110"/>
      <point x="933" y="-209" type="curve"/>
      <point x="951" y="-228" type="line"/>
      <point x="1055" y="-124"/>
      <point x="1108" y="19"/>
      <point x="1108" y="178" type="curve" smooth="yes"/>
      <point x="1108" y="387"/>
      <point x="1026" y="558"/>
    </contour>
  </outline>
</glyph>
<glyph name="eemlym" format="2">
  <advance width="1154"/>
  <unicode hex="0D0F"/>
  <outline>
    <contour>
      <point x="201" y="327" type="curve" smooth="yes"/>
      <point x="104" y="327"/>
      <point x="38" y="250"/>
      <point x="38" y="159" type="curve" smooth="yes"/>
      <point x="38" y="80"/>
      <point x="69" y="39"/>
      <point x="123" y="-8" type="curve"/>
      <point x="139" y="13" type="line"/>
      <point x="90" y="52"/>
      <point x="65" y="92"/>
      <point x="65" y="159" type="curve" smooth="yes"/>
      <point x="65" y="234"/>
      <point x="115" y="301"/>
      <point x="201" y="301" type="curve" smooth="yes"/>
      <point x="284" y="301"/>
      <point x="338" y="245"/>
      <point x="338" y="157" type="curve" smooth="yes"/>
      <point x="338" y="105"/>
      <point x="321" y="64"/>
      <point x="279" y="21" type="curve"/>
      <point x="291" y="0" type="line"/>
      <point x="804" y="0" type="line"/>
      <point x="804" y="26" type="line"/>
      <point x="304" y="26" type="line"/>
      <point x="298" y="10" type="line"/>
      <point x="340" y="47"/>
      <point x="365" y="95"/>
      <point x="365" y="158" type="curve" smooth="yes"/>
      <point x="365" y="257"/>
      <point x="299" y="327"/>
    </contour>
    <contour>
      <point x="872" y="558" type="curve" smooth="yes"/>
      <point x="648" y="558"/>
      <point x="535" y="377"/>
      <point x="535" y="137" type="curve" smooth="yes"/>
      <point x="535" y="-140"/>
      <point x="610" y="-228"/>
      <point x="714" y="-228" type="curve" smooth="yes"/>
      <point x="738" y="-228"/>
      <point x="759" y="-222"/>
      <point x="775" y="-211" type="curve" smooth="yes"/>
      <point x="811" y="-187"/>
      <point x="824" y="-146"/>
      <point x="824" y="-76" type="curve" smooth="yes"/>
      <point x="824" y="415" type="line"/>
      <point x="798" y="415" type="line"/>
      <point x="798" y="-75" type="line" smooth="yes"/>
      <point x="798" y="-133"/>
      <point x="790" y="-172"/>
      <point x="761" y="-190" type="curve" smooth="yes"/>
      <point x="749" y="-198"/>
      <point x="734" y="-202"/>
      <point x="714" y="-202" type="curve" smooth="yes"/>
      <point x="636" y="-202"/>
      <point x="586" y="-140"/>
      <point x="568" y="7" type="curve"/>
      <point x="568" y="11"/>
      <point x="567" y="15"/>
      <point x="567" y="19" type="curve"/>
      <point x="564" y="53"/>
      <point x="562" y="92"/>
      <point x="562" y="135" type="curve" smooth="yes"/>
      <point x="562" y="366"/>
      <point x="663" y="532"/>
      <point x="872" y="532" type="curve" smooth="yes"/>
      <point x="1025" y="532"/>
      <point x="1084" y="440"/>
      <point x="1084" y="336" type="curve" smooth="yes"/>
      <point x="1084" y="228"/>
      <point x="1023" y="171"/>
      <point x="917" y="148" type="curve"/>
      <point x="917" y="122" type="line"/>
      <point x="1031" y="118"/>
      <point x="1094" y="50"/>
      <point x="1094" y="-48" type="curve" smooth="yes"/>
      <point x="1094" y="-157"/>
      <point x="1037" y="-202"/>
      <point x="953" y="-202" type="curve" smooth="yes"/>
      <point x="927" y="-202"/>
      <point x="900" y="-200"/>
      <point x="883" y="-195" type="curve"/>
      <point x="877" y="-220" type="line"/>
      <point x="900" y="-226"/>
      <point x="925" y="-228"/>
      <point x="954" y="-228" type="curve" smooth="yes"/>
      <point x="1055" y="-228"/>
      <point x="1121" y="-166"/>
      <point x="1121" y="-47" type="curve" smooth="yes"/>
      <point x="1121" y="70"/>
      <point x="1044" y="136"/>
      <point x="930" y="140" type="curve"/>
      <point x="929" y="132" type="line"/>
      <point x="1059" y="155"/>
      <point x="1111" y="230"/>
      <point x="1111" y="336" type="curve" smooth="yes"/>
      <point x="1111" y="460"/>
      <point x="1033" y="558"/>
    </contour>
  </outline>
</glyph>
<glyph name="omlym" format="2">
  <advance width="691"/>
  <unicode hex="0D12"/>
  <outline>
    <contour>
      <point x="414" y="558" type="curve" smooth="yes"/>
      <point x="171" y="558"/>
      <point x="46" y="404"/>
      <point x="46" y="226" type="curve" smooth="yes"/>
      <point x="46" y="53"/>
      <point x="122" y="-12"/>
      <point x="216" y="-12" type="curve" smooth="yes"/>
      <point x="293" y="-12"/>
      <point x="356" y="39"/>
      <point x="356" y="149" type="curve" smooth="yes"/>
      <point x="356" y="250"/>
      <point x="288" y="302"/>
      <point x="209" y="302" type="curve" smooth="yes"/>
      <point x="156" y="302"/>
      <point x="97" y="280"/>
      <point x="51" y="229" type="curve"/>
      <point x="56" y="203" type="line"/>
      <point x="87" y="238"/>
      <point x="145" y="276"/>
      <point x="208" y="276" type="curve" smooth="yes"/>
      <point x="291" y="276"/>
      <point x="329" y="219"/>
      <point x="329" y="149" type="curve" smooth="yes"/>
      <point x="329" y="49"/>
      <point x="277" y="14"/>
      <point x="216" y="14" type="curve" smooth="yes"/>
      <point x="128" y="14"/>
      <point x="72" y="79"/>
      <point x="72" y="224" type="curve" smooth="yes"/>
      <point x="72" y="231" type="line" smooth="yes"/>
      <point x="72" y="389"/>
      <point x="184" y="532"/>
      <point x="416" y="532" type="curve" smooth="yes"/>
      <point x="552" y="532"/>
      <point x="611" y="476"/>
      <point x="611" y="397" type="curve" smooth="yes"/>
      <point x="611" y="367"/>
      <point x="602" y="342"/>
      <point x="585" y="323" type="curve" smooth="yes"/>
      <point x="561" y="297"/>
      <point x="525" y="283"/>
      <point x="454" y="283" type="curve" smooth="yes"/>
      <point x="435" y="283" type="line"/>
      <point x="435" y="257" type="line"/>
      <point x="451" y="257" type="line" smooth="yes"/>
      <point x="498" y="257"/>
      <point x="539" y="248"/>
      <point x="571" y="227" type="curve" smooth="yes"/>
      <point x="601" y="207"/>
      <point x="622" y="177"/>
      <point x="622" y="130" type="curve" smooth="yes"/>
      <point x="622" y="54"/>
      <point x="586" y="14"/>
      <point x="498" y="14" type="curve" smooth="yes"/>
      <point x="468" y="14"/>
      <point x="441" y="18"/>
      <point x="413" y="26" type="curve"/>
      <point x="407" y="0" type="line"/>
      <point x="430" y="-6"/>
      <point x="463" y="-12"/>
      <point x="501" y="-12" type="curve" smooth="yes"/>
      <point x="598" y="-12"/>
      <point x="649" y="41"/>
      <point x="649" y="131" type="curve" smooth="yes"/>
      <point x="649" y="212"/>
      <point x="592" y="268"/>
      <point x="479" y="274" type="curve"/>
      <point x="479" y="264" type="line"/>
      <point x="602" y="267"/>
      <point x="638" y="331"/>
      <point x="638" y="397" type="curve" smooth="yes"/>
      <point x="638" y="479"/>
      <point x="579" y="558"/>
    </contour>
  </outline>
</glyph>
<glyph name="kamlym" format="2">
  <advance width="974"/>
  <unicode hex="0D15"/>
  <outline>
    <contour>
      <point x="192" y="-12" type="curve" smooth="yes"/>
      <point x="271" y="-12"/>
      <point x="320" y="17"/>
      <point x="371" y="53" type="curve"/>
      <point x="354" y="73" type="line"/>
      <point x="294" y="31"/>
      <point x="256" y="14"/>
      <point x="195" y="14" type="curve" smooth="yes"/>
      <point x="126" y="14"/>
      <point x="65" y="41"/>
      <point x="65" y="140" type="curve" smooth="yes"/>
      <point x="65" y="185"/>
      <point x="83" y="216"/>
      <point x="111" y="236" type="curve" smooth="yes"/>
      <point x="158" y="270"/>
      <point x="223" y="276"/>
      <point x="313" y="276" type="curve" smooth="yes"/>
      <point x="667" y="276" type="line" smooth="yes"/>
      <point x="751" y="276"/>
      <point x="815" y="270"/>
      <point x="863" y="236" type="curve" smooth="yes"/>
      <point x="891" y="216"/>
      <point x="909" y="186"/>
      <point x="909" y="139" type="curve" smooth="yes"/>
      <point x="909" y="64"/>
      <point x="876" y="14"/>
      <point x="782" y="14" type="curve" smooth="yes"/>
      <point x="751" y="14"/>
      <point x="725" y="18"/>
      <point x="695" y="26" type="curve"/>
      <point x="688" y="1" type="line"/>
      <point x="721" y="-8"/>
      <point x="753" y="-12"/>
      <point x="781" y="-12" type="curve" smooth="yes"/>
      <point x="885" y="-12"/>
      <point x="936" y="48"/>
      <point x="936" y="140" type="curve" smooth="yes"/>
      <point x="936" y="193"/>
      <point x="914" y="230"/>
      <point x="880" y="255" type="curve" smooth="yes"/>
      <point x="831" y="291"/>
      <point x="771" y="302"/>
      <point x="663" y="302" type="curve" smooth="yes"/>
      <point x="319" y="302" type="line" smooth="yes"/>
      <point x="214" y="302"/>
      <point x="147" y="294"/>
      <point x="94" y="255" type="curve" smooth="yes"/>
      <point x="61" y="231"/>
      <point x="38" y="194"/>
      <point x="38" y="141" type="curve" smooth="yes"/>
      <point x="38" y="44"/>
      <point x="95" y="-12"/>
    </contour>
    <contour>
      <point x="491" y="558" type="curve" smooth="yes"/>
      <point x="364" y="558"/>
      <point x="290" y="454"/>
      <point x="290" y="275" type="curve" smooth="yes"/>
      <point x="290" y="192"/>
      <point x="306" y="109"/>
      <point x="349" y="54" type="curve" smooth="yes"/>
      <point x="380" y="14"/>
      <point x="425" y="-12"/>
      <point x="489" y="-12" type="curve" smooth="yes"/>
      <point x="608" y="-12"/>
      <point x="689" y="72"/>
      <point x="689" y="275" type="curve" smooth="yes"/>
      <point x="689" y="450"/>
      <point x="629" y="558"/>
    </contour>
    <contour>
      <point x="491" y="532" type="curve" smooth="yes"/>
      <point x="602" y="532"/>
      <point x="663" y="451"/>
      <point x="663" y="276" type="curve" smooth="yes"/>
      <point x="663" y="89"/>
      <point x="597" y="14"/>
      <point x="487" y="14" type="curve" smooth="yes"/>
      <point x="382" y="14"/>
      <point x="316" y="100"/>
      <point x="316" y="274" type="curve" smooth="yes"/>
      <point x="316" y="436"/>
      <point x="376" y="532"/>
    </contour>
  </outline>
</glyph>
<glyph name="khamlym" format="2">
  <advance width="942"/>
  <unicode hex="0D16"/>
  <outline>
    <contour>
      <point x="353" y="558" type="curve" smooth="yes"/>
      <point x="176" y="558"/>
      <point x="46" y="425"/>
      <point x="46" y="221" type="curve" smooth="yes"/>
      <point x="46" y="53"/>
      <point x="122" y="-12"/>
      <point x="216" y="-12" type="curve" smooth="yes"/>
      <point x="293" y="-12"/>
      <point x="356" y="39"/>
      <point x="356" y="149" type="curve" smooth="yes"/>
      <point x="356" y="250"/>
      <point x="288" y="302"/>
      <point x="209" y="302" type="curve" smooth="yes"/>
      <point x="156" y="302"/>
      <point x="97" y="280"/>
      <point x="51" y="229" type="curve"/>
      <point x="56" y="203" type="line"/>
      <point x="87" y="238"/>
      <point x="145" y="276"/>
      <point x="208" y="276" type="curve" smooth="yes"/>
      <point x="291" y="276"/>
      <point x="329" y="219"/>
      <point x="329" y="149" type="curve" smooth="yes"/>
      <point x="329" y="49"/>
      <point x="277" y="14"/>
      <point x="216" y="14" type="curve" smooth="yes"/>
      <point x="128" y="14"/>
      <point x="72" y="80"/>
      <point x="72" y="218" type="curve" smooth="yes"/>
      <point x="72" y="229" type="line" smooth="yes"/>
      <point x="72" y="403"/>
      <point x="186" y="532"/>
      <point x="353" y="532" type="curve" smooth="yes"/>
      <point x="521" y="532"/>
      <point x="595" y="417"/>
      <point x="595" y="277" type="curve" smooth="yes"/>
      <point x="595" y="141"/>
      <point x="530" y="66"/>
      <point x="469" y="21" type="curve"/>
      <point x="479" y="0" type="line"/>
      <point x="514" y="0" type="line"/>
      <point x="498" y="15" type="line"/>
      <point x="551" y="55"/>
      <point x="622" y="128"/>
      <point x="622" y="277" type="curve" smooth="yes"/>
      <point x="622" y="440"/>
      <point x="526" y="558"/>
    </contour>
    <contour>
      <point x="863" y="546" type="line"/>
      <point x="837" y="546" type="line"/>
      <point x="837" y="26" type="line"/>
      <point x="488" y="26" type="line"/>
      <point x="494" y="0" type="line"/>
      <point x="863" y="0" type="line"/>
    </contour>
  </outline>
</glyph>
<glyph name="gamlym" format="2">
  <advance width="816"/>
  <unicode hex="0D17"/>
  <outline>
    <contour>
      <point x="571" y="558" type="curve" smooth="yes"/>
      <point x="514" y="558"/>
      <point x="473" y="540"/>
      <point x="446" y="508" type="curve" smooth="yes"/>
      <point x="406" y="461"/>
      <point x="395" y="401"/>
      <point x="395" y="290" type="curve" smooth="yes"/>
      <point x="395" y="273" type="line" smooth="yes"/>
      <point x="395" y="166"/>
      <point x="389" y="104"/>
      <point x="355" y="60" type="curve" smooth="yes"/>
      <point x="332" y="31"/>
      <point x="301" y="14"/>
      <point x="244" y="14" type="curve" smooth="yes"/>
      <point x="142" y="14"/>
      <point x="72" y="97"/>
      <point x="72" y="257" type="curve" smooth="yes"/>
      <point x="72" y="398"/>
      <point x="128" y="469"/>
      <point x="205" y="533" type="curve"/>
      <point x="190" y="554" type="line"/>
      <point x="108" y="486"/>
      <point x="45" y="407"/>
      <point x="45" y="258" type="curve" smooth="yes"/>
      <point x="45" y="91"/>
      <point x="121" y="-12"/>
      <point x="245" y="-12" type="curve" smooth="yes"/>
      <point x="302" y="-12"/>
      <point x="343" y="6"/>
      <point x="370" y="38" type="curve" smooth="yes"/>
      <point x="410" y="85"/>
      <point x="421" y="140"/>
      <point x="421" y="255" type="curve" smooth="yes"/>
      <point x="421" y="273" type="line" smooth="yes"/>
      <point x="421" y="372"/>
      <point x="426" y="442"/>
      <point x="461" y="486" type="curve" smooth="yes"/>
      <point x="484" y="515"/>
      <point x="515" y="532"/>
      <point x="572" y="532" type="curve" smooth="yes"/>
      <point x="674" y="532"/>
      <point x="744" y="449"/>
      <point x="744" y="289" type="curve" smooth="yes"/>
      <point x="744" y="148"/>
      <point x="688" y="77"/>
      <point x="611" y="13" type="curve"/>
      <point x="626" y="-8" type="line"/>
      <point x="708" y="60"/>
      <point x="771" y="139"/>
      <point x="771" y="288" type="curve" smooth="yes"/>
      <point x="771" y="455"/>
      <point x="695" y="558"/>
    </contour>
  </outline>
</glyph>
<glyph name="ghamlym" format="2">
  <advance width="1222"/>
  <unicode hex="0D18"/>
  <outline>
    <contour>
      <point x="201" y="558" type="curve" smooth="yes"/>
      <point x="104" y="558"/>
      <point x="38" y="482"/>
      <point x="38" y="392" type="curve" smooth="yes"/>
      <point x="38" y="315"/>
      <point x="66" y="274"/>
      <point x="119" y="228" type="curve"/>
      <point x="135" y="249" type="line"/>
      <point x="87" y="287"/>
      <point x="65" y="327"/>
      <point x="65" y="392" type="curve" smooth="yes"/>
      <point x="65" y="466"/>
      <point x="115" y="532"/>
      <point x="201" y="532" type="curve" smooth="yes"/>
      <point x="284" y="532"/>
      <point x="338" y="477"/>
      <point x="338" y="391" type="curve" smooth="yes"/>
      <point x="338" y="339"/>
      <point x="323" y="297"/>
      <point x="283" y="257" type="curve"/>
      <point x="295" y="236" type="line"/>
      <point x="509" y="236" type="line"/>
      <point x="506" y="262" type="line"/>
      <point x="308" y="262" type="line"/>
      <point x="302" y="246" type="line"/>
      <point x="344" y="285"/>
      <point x="365" y="330"/>
      <point x="365" y="392" type="curve" smooth="yes"/>
      <point x="365" y="489"/>
      <point x="299" y="558"/>
    </contour>
    <contour>
      <point x="1143" y="546" type="line"/>
      <point x="1117" y="546" type="line"/>
      <point x="1117" y="26" type="line"/>
      <point x="520" y="26" type="line"/>
      <point x="520" y="236" type="line"/>
      <point x="915" y="236" type="line"/>
      <point x="915" y="325" type="line" smooth="yes"/>
      <point x="915" y="411"/>
      <point x="897" y="469"/>
      <point x="861" y="506" type="curve" smooth="yes"/>
      <point x="827" y="541"/>
      <point x="775" y="558"/>
      <point x="706" y="558" type="curve" smooth="yes"/>
      <point x="639" y="558"/>
      <point x="583" y="538"/>
      <point x="547" y="498" type="curve" smooth="yes"/>
      <point x="512" y="460"/>
      <point x="494" y="409"/>
      <point x="494" y="317" type="curve" smooth="yes"/>
      <point x="494" y="0" type="line"/>
      <point x="1143" y="0" type="line"/>
    </contour>
    <contour>
      <point x="706" y="533" type="curve" smooth="yes"/>
      <point x="834" y="533"/>
      <point x="889" y="475"/>
      <point x="889" y="315" type="curve" smooth="yes"/>
      <point x="889" y="262" type="line"/>
      <point x="520" y="262" type="line"/>
      <point x="520" y="319" type="line" smooth="yes"/>
      <point x="520" y="470"/>
      <point x="586" y="533"/>
    </contour>
  </outline>
</glyph>
<glyph name="ngamlym" format="2">
  <advance width="989"/>
  <unicode hex="0D19"/>
  <outline>
    <contour>
      <point x="330" y="558" type="curve" smooth="yes"/>
      <point x="158" y="558"/>
      <point x="48" y="422"/>
      <point x="48" y="225" type="curve" smooth="yes"/>
      <point x="48" y="53"/>
      <point x="124" y="-12"/>
      <point x="218" y="-12" type="curve" smooth="yes"/>
      <point x="295" y="-12"/>
      <point x="358" y="39"/>
      <point x="358" y="149" type="curve" smooth="yes"/>
      <point x="358" y="250"/>
      <point x="290" y="302"/>
      <point x="211" y="302" type="curve" smooth="yes"/>
      <point x="158" y="302"/>
      <point x="99" y="280"/>
      <point x="53" y="229" type="curve"/>
      <point x="58" y="203" type="line"/>
      <point x="89" y="238"/>
      <point x="147" y="276"/>
      <point x="210" y="276" type="curve" smooth="yes"/>
      <point x="293" y="276"/>
      <point x="331" y="219"/>
      <point x="331" y="149" type="curve" smooth="yes"/>
      <point x="331" y="49"/>
      <point x="279" y="14"/>
      <point x="218" y="14" type="curve" smooth="yes"/>
      <point x="130" y="14"/>
      <point x="74" y="79"/>
      <point x="74" y="226" type="curve" smooth="yes"/>
      <point x="74" y="232" type="line" smooth="yes"/>
      <point x="74" y="403"/>
      <point x="170" y="532"/>
      <point x="329" y="532" type="curve" smooth="yes"/>
      <point x="381" y="532"/>
      <point x="413" y="522"/>
      <point x="445" y="498" type="curve" smooth="yes"/>
      <point x="488" y="465"/>
      <point x="516" y="414"/>
      <point x="516" y="312" type="curve" smooth="yes"/>
      <point x="516" y="0" type="line"/>
      <point x="542" y="0" type="line"/>
      <point x="542" y="198" type="line"/>
      <point x="533" y="319" type="line"/>
      <point x="534" y="371" type="line"/>
      <point x="525" y="492"/>
      <point x="447" y="558"/>
    </contour>
    <contour>
      <point x="756" y="558" type="curve" smooth="yes"/>
      <point x="616" y="558"/>
      <point x="533" y="470"/>
      <point x="524" y="335" type="curve"/>
      <point x="526" y="281" type="line"/>
      <point x="526" y="137" type="line"/>
      <point x="542" y="136" type="line"/>
      <point x="542" y="262" type="line" smooth="yes"/>
      <point x="542" y="373"/>
      <point x="565" y="430"/>
      <point x="601" y="469" type="curve" smooth="yes"/>
      <point x="639" y="511"/>
      <point x="691" y="532"/>
      <point x="756" y="532" type="curve" smooth="yes"/>
      <point x="854" y="532"/>
      <point x="909" y="481"/>
      <point x="909" y="408" type="curve" smooth="yes"/>
      <point x="909" y="371"/>
      <point x="899" y="345"/>
      <point x="882" y="325" type="curve" smooth="yes"/>
      <point x="856" y="295"/>
      <point x="816" y="283"/>
      <point x="746" y="283" type="curve" smooth="yes"/>
      <point x="720" y="283" type="line"/>
      <point x="720" y="257" type="line"/>
      <point x="741" y="257" type="line" smooth="yes"/>
      <point x="796" y="257"/>
      <point x="837" y="248"/>
      <point x="869" y="227" type="curve" smooth="yes"/>
      <point x="899" y="207"/>
      <point x="920" y="177"/>
      <point x="920" y="130" type="curve" smooth="yes"/>
      <point x="920" y="54"/>
      <point x="884" y="14"/>
      <point x="796" y="14" type="curve" smooth="yes"/>
      <point x="766" y="14"/>
      <point x="739" y="18"/>
      <point x="711" y="26" type="curve"/>
      <point x="705" y="0" type="line"/>
      <point x="728" y="-6"/>
      <point x="761" y="-12"/>
      <point x="799" y="-12" type="curve" smooth="yes"/>
      <point x="896" y="-12"/>
      <point x="947" y="41"/>
      <point x="947" y="131" type="curve" smooth="yes"/>
      <point x="947" y="212"/>
      <point x="890" y="268"/>
      <point x="777" y="274" type="curve"/>
      <point x="777" y="264" type="line"/>
      <point x="903" y="270"/>
      <point x="936" y="335"/>
      <point x="936" y="409" type="curve" smooth="yes"/>
      <point x="936" y="490"/>
      <point x="873" y="558"/>
    </contour>
  </outline>
</glyph>
<glyph name="camlym" format="2">
  <advance width="868"/>
  <unicode hex="0D1A"/>
  <outline>
    <contour>
      <point x="789" y="546" type="line"/>
      <point x="763" y="546" type="line"/>
      <point x="763" y="26" type="line"/>
      <point x="395" y="26" type="line"/>
      <point x="406" y="15" type="line"/>
      <point x="440" y="50"/>
      <point x="479" y="93"/>
      <point x="479" y="176" type="curve" smooth="yes"/>
      <point x="479" y="280"/>
      <point x="418" y="344"/>
      <point x="325" y="344" type="curve" smooth="yes"/>
      <point x="235" y="344"/>
      <point x="168" y="285"/>
      <point x="168" y="185" type="curve" smooth="yes"/>
      <point x="168" y="161"/>
      <point x="171" y="144"/>
      <point x="175" y="125" type="curve"/>
      <point x="201" y="130" type="line"/>
      <point x="197" y="148"/>
      <point x="195" y="162"/>
      <point x="195" y="184" type="curve" smooth="yes"/>
      <point x="195" y="266"/>
      <point x="241" y="318"/>
      <point x="325" y="318" type="curve" smooth="yes"/>
      <point x="404" y="318"/>
      <point x="452" y="266"/>
      <point x="452" y="176" type="curve" smooth="yes"/>
      <point x="452" y="98"/>
      <point x="413" y="52"/>
      <point x="371" y="14" type="curve"/>
      <point x="389" y="26" type="line"/>
      <point x="15" y="26" type="line"/>
      <point x="15" y="0" type="line"/>
      <point x="789" y="0" type="line"/>
    </contour>
  </outline>
</glyph>
<glyph name="chamlym" format="2">
  <advance width="1267"/>
  <unicode hex="0D1B"/>
  <outline>
    <contour>
      <point x="325" y="344" type="curve" smooth="yes"/>
      <point x="235" y="344"/>
      <point x="168" y="285"/>
      <point x="168" y="185" type="curve" smooth="yes"/>
      <point x="168" y="161"/>
      <point x="171" y="144"/>
      <point x="175" y="125" type="curve"/>
      <point x="201" y="130" type="line"/>
      <point x="197" y="148"/>
      <point x="195" y="162"/>
      <point x="195" y="184" type="curve" smooth="yes"/>
      <point x="195" y="266"/>
      <point x="241" y="318"/>
      <point x="325" y="318" type="curve" smooth="yes"/>
      <point x="404" y="318"/>
      <point x="452" y="266"/>
      <point x="452" y="176" type="curve" smooth="yes"/>
      <point x="452" y="98"/>
      <point x="413" y="52"/>
      <point x="371" y="14" type="curve"/>
      <point x="389" y="26" type="line"/>
      <point x="15" y="26" type="line"/>
      <point x="15" y="0" type="line"/>
      <point x="764" y="0" type="line"/>
      <point x="765" y="26" type="line"/>
      <point x="395" y="26" type="line"/>
      <point x="406" y="15" type="line"/>
      <point x="440" y="50"/>
      <point x="479" y="93"/>
      <point x="479" y="176" type="curve" smooth="yes"/>
      <point x="479" y="280"/>
      <point x="418" y="344"/>
    </contour>
    <contour>
      <point x="925" y="558" type="curve" smooth="yes"/>
      <point x="734" y="558"/>
      <point x="637" y="424"/>
      <point x="637" y="278" type="curve" smooth="yes"/>
      <point x="637" y="131"/>
      <point x="706" y="62"/>
      <point x="752" y="22" type="curve"/>
      <point x="759" y="0" type="line"/>
      <point x="777" y="0" type="line"/>
      <point x="789" y="21" type="line"/>
      <point x="711" y="80"/>
      <point x="664" y="157"/>
      <point x="664" y="276" type="curve" smooth="yes"/>
      <point x="664" y="446"/>
      <point x="784" y="532"/>
      <point x="925" y="532" type="curve" smooth="yes"/>
      <point x="1105" y="532"/>
      <point x="1179" y="414"/>
      <point x="1195" y="291" type="curve" smooth="yes"/>
      <point x="1196" y="285"/>
      <point x="1195" y="277"/>
      <point x="1195" y="271" type="curve" smooth="yes"/>
      <point x="1195" y="265"/>
      <point x="1196" y="259"/>
      <point x="1196" y="244" type="curve" smooth="yes"/>
      <point x="1196" y="83"/>
      <point x="1140" y="14"/>
      <point x="1044" y="14" type="curve" smooth="yes"/>
      <point x="942" y="14"/>
      <point x="905" y="92"/>
      <point x="905" y="189" type="curve" smooth="yes"/>
      <point x="905" y="290"/>
      <point x="955" y="354"/>
      <point x="1052" y="354" type="curve" smooth="yes"/>
      <point x="1130" y="354"/>
      <point x="1181" y="295"/>
      <point x="1206" y="243" type="curve"/>
      <point x="1218" y="257" type="line"/>
      <point x="1187" y="324"/>
      <point x="1136" y="380"/>
      <point x="1051" y="380" type="curve" smooth="yes"/>
      <point x="951" y="380"/>
      <point x="878" y="314"/>
      <point x="878" y="187" type="curve" smooth="yes"/>
      <point x="878" y="76"/>
      <point x="928" y="-12"/>
      <point x="1042" y="-12" type="curve" smooth="yes"/>
      <point x="1148" y="-12"/>
      <point x="1222" y="61"/>
      <point x="1222" y="243" type="curve" smooth="yes"/>
      <point x="1222" y="424"/>
      <point x="1120" y="558"/>
    </contour>
  </outline>
</glyph>
<glyph name="jamlym" format="2">
  <advance width="877"/>
  <unicode hex="0D1C"/>
  <outline>
    <contour>
      <point x="277" y="558" type="curve" smooth="yes"/>
      <point x="123" y="558"/>
      <point x="44" y="476"/>
      <point x="44" y="384" type="curve" smooth="yes"/>
      <point x="44" y="297"/>
      <point x="85" y="246"/>
      <point x="169" y="246" type="curve" smooth="yes"/>
      <point x="250" y="246"/>
      <point x="289" y="303"/>
      <point x="289" y="364" type="curve" smooth="yes"/>
      <point x="289" y="418"/>
      <point x="254" y="475"/>
      <point x="169" y="475" type="curve" smooth="yes"/>
      <point x="126" y="475"/>
      <point x="90" y="457"/>
      <point x="60" y="432" type="curve"/>
      <point x="53" y="402" type="line"/>
      <point x="92" y="436"/>
      <point x="127" y="450"/>
      <point x="167" y="450" type="curve" smooth="yes"/>
      <point x="232" y="450"/>
      <point x="262" y="412"/>
      <point x="262" y="363" type="curve" smooth="yes"/>
      <point x="262" y="323"/>
      <point x="243" y="272"/>
      <point x="169" y="272" type="curve" smooth="yes"/>
      <point x="109" y="272"/>
      <point x="70" y="301"/>
      <point x="70" y="384" type="curve" smooth="yes"/>
      <point x="70" y="401"/>
      <point x="73" y="417"/>
      <point x="79" y="432" type="curve"/>
      <point x="81" y="436"/>
      <point x="79" y="440"/>
      <point x="81" y="444" type="curve"/>
      <point x="115" y="502"/>
      <point x="184" y="532"/>
      <point x="276" y="532" type="curve" smooth="yes"/>
      <point x="326" y="532"/>
      <point x="361" y="524"/>
      <point x="396" y="500" type="curve" smooth="yes"/>
      <point x="445" y="466"/>
      <point x="465" y="408"/>
      <point x="465" y="336" type="curve" smooth="yes"/>
      <point x="465" y="258" type="line"/>
      <point x="491" y="258" type="line"/>
      <point x="491" y="337" type="line" smooth="yes"/>
      <point x="491" y="400"/>
      <point x="502" y="461"/>
      <point x="544" y="498" type="curve" smooth="yes"/>
      <point x="570" y="521"/>
      <point x="601" y="532"/>
      <point x="647" y="532" type="curve" smooth="yes"/>
      <point x="763" y="532"/>
      <point x="805" y="455"/>
      <point x="805" y="382" type="curve" smooth="yes"/>
      <point x="805" y="328"/>
      <point x="790" y="286"/>
      <point x="753" y="258" type="curve" smooth="yes"/>
      <point x="715" y="229"/>
      <point x="653" y="213"/>
      <point x="544" y="213" type="curve" smooth="yes"/>
      <point x="212" y="213" type="line" smooth="yes"/>
      <point x="138" y="213"/>
      <point x="97" y="204"/>
      <point x="67" y="174" type="curve" smooth="yes"/>
      <point x="49" y="156"/>
      <point x="39" y="135"/>
      <point x="39" y="105" type="curve" smooth="yes"/>
      <point x="39" y="12"/>
      <point x="115" y="-12"/>
      <point x="178" y="-12" type="curve" smooth="yes"/>
      <point x="275" y="-12"/>
      <point x="329" y="17"/>
      <point x="436" y="77" type="curve" smooth="yes"/>
      <point x="517" y="122"/>
      <point x="553" y="148"/>
      <point x="587" y="174" type="curve"/>
      <point x="595" y="173" type="line"/>
      <point x="616" y="190"/>
      <point x="651" y="202"/>
      <point x="682" y="202" type="curve" smooth="yes"/>
      <point x="735" y="202"/>
      <point x="779" y="176"/>
      <point x="779" y="109" type="curve" smooth="yes"/>
      <point x="779" y="44"/>
      <point x="739" y="14"/>
      <point x="685" y="14" type="curve" smooth="yes"/>
      <point x="617" y="14"/>
      <point x="586" y="53"/>
      <point x="586" y="116" type="curve" smooth="yes"/>
      <point x="586" y="161"/>
      <point x="606" y="190"/>
      <point x="630" y="211" type="curve"/>
      <point x="607" y="211" type="line"/>
      <point x="575" y="175"/>
      <point x="561" y="154"/>
      <point x="561" y="113" type="curve" smooth="yes"/>
      <point x="561" y="51"/>
      <point x="591" y="-12"/>
      <point x="685" y="-12" type="curve" smooth="yes"/>
      <point x="748" y="-12"/>
      <point x="806" y="26"/>
      <point x="806" y="109" type="curve" smooth="yes"/>
      <point x="806" y="186"/>
      <point x="754" y="222"/>
      <point x="690" y="222" type="curve" smooth="yes"/>
      <point x="673" y="222"/>
      <point x="636" y="216"/>
      <point x="614" y="204" type="curve"/>
      <point x="572" y="187"/>
      <point x="545" y="171"/>
      <point x="414" y="94" type="curve" smooth="yes"/>
      <point x="326" y="42"/>
      <point x="262" y="14"/>
      <point x="178" y="14" type="curve" smooth="yes"/>
      <point x="109" y="14"/>
      <point x="66" y="41"/>
      <point x="66" y="104" type="curve" smooth="yes"/>
      <point x="66" y="127"/>
      <point x="73" y="145"/>
      <point x="86" y="157" type="curve" smooth="yes"/>
      <point x="111" y="181"/>
      <point x="150" y="187"/>
      <point x="215" y="187" type="curve" smooth="yes"/>
      <point x="508" y="187" type="line" smooth="yes"/>
      <point x="584" y="187"/>
      <point x="619" y="195"/>
      <point x="648" y="203" type="curve"/>
      <point x="681" y="214" type="line"/>
      <point x="716" y="212" type="line"/>
      <point x="810" y="244"/>
      <point x="832" y="313"/>
      <point x="832" y="382" type="curve" smooth="yes"/>
      <point x="832" y="473"/>
      <point x="775" y="558"/>
      <point x="647" y="558" type="curve" smooth="yes"/>
      <point x="554" y="558"/>
      <point x="486" y="509"/>
      <point x="470" y="392" type="curve"/>
      <point x="480" y="405" type="line"/>
      <point x="456" y="510"/>
      <point x="388" y="558"/>
    </contour>
  </outline>
</glyph>
<glyph name="jhamlym" format="2">
  <advance width="1556"/>
  <unicode hex="0D1D"/>
  <outline>
    <contour>
      <point x="618" y="558" type="curve" smooth="yes"/>
      <point x="563" y="558"/>
      <point x="510" y="542"/>
      <point x="461" y="510" type="curve"/>
      <point x="453" y="505" type="line"/>
      <point x="359" y="441"/>
      <point x="302" y="328"/>
      <point x="302" y="206" type="curve" smooth="yes"/>
      <point x="302" y="54"/>
      <point x="373" y="-12"/>
      <point x="472" y="-12" type="curve" smooth="yes"/>
      <point x="566" y="-12"/>
      <point x="640" y="58"/>
      <point x="640" y="210" type="curve" smooth="yes"/>
      <point x="640" y="330"/>
      <point x="580" y="443"/>
      <point x="489" y="505" type="curve"/>
      <point x="479" y="511" type="line"/>
      <point x="431" y="541"/>
      <point x="379" y="558"/>
      <point x="321" y="558" type="curve" smooth="yes"/>
      <point x="145" y="558"/>
      <point x="45" y="438"/>
      <point x="45" y="275" type="curve" smooth="yes"/>
      <point x="45" y="126"/>
      <point x="116" y="45"/>
      <point x="191" y="-8" type="curve"/>
      <point x="206" y="13" type="line"/>
      <point x="119" y="74"/>
      <point x="72" y="151"/>
      <point x="72" y="276" type="curve" smooth="yes"/>
      <point x="72" y="414"/>
      <point x="150" y="532"/>
      <point x="320" y="532" type="curve" smooth="yes"/>
      <point x="371" y="532"/>
      <point x="417" y="519"/>
      <point x="457" y="497" type="curve"/>
      <point x="465" y="492" type="line"/>
      <point x="556" y="436"/>
      <point x="613" y="317"/>
      <point x="613" y="210" type="curve" smooth="yes"/>
      <point x="613" y="75"/>
      <point x="553" y="14"/>
      <point x="472" y="14" type="curve" smooth="yes"/>
      <point x="386" y="14"/>
      <point x="329" y="69"/>
      <point x="329" y="205" type="curve" smooth="yes"/>
      <point x="329" y="313"/>
      <point x="381" y="431"/>
      <point x="476" y="491" type="curve"/>
      <point x="484" y="496" type="line"/>
      <point x="525" y="519"/>
      <point x="564" y="532"/>
      <point x="619" y="532" type="curve" smooth="yes"/>
      <point x="673" y="532"/>
      <point x="711" y="516"/>
      <point x="742" y="491" type="curve" smooth="yes"/>
      <point x="789" y="452"/>
      <point x="810" y="395"/>
      <point x="810" y="261" type="curve" smooth="yes"/>
      <point x="810" y="234" type="line" smooth="yes"/>
      <point x="810" y="129"/>
      <point x="825" y="77"/>
      <point x="862" y="36" type="curve" smooth="yes"/>
      <point x="890" y="5"/>
      <point x="927" y="-12"/>
      <point x="980" y="-12" type="curve" smooth="yes"/>
      <point x="1067" y="-12"/>
      <point x="1126" y="44"/>
      <point x="1136" y="143" type="curve"/>
      <point x="1130" y="144" type="line"/>
      <point x="1147" y="47"/>
      <point x="1200" y="-12"/>
      <point x="1300" y="-12" type="curve" smooth="yes"/>
      <point x="1440" y="-12"/>
      <point x="1511" y="112"/>
      <point x="1511" y="255" type="curve" smooth="yes"/>
      <point x="1511" y="412"/>
      <point x="1448" y="484"/>
      <point x="1366" y="552" type="curve"/>
      <point x="1351" y="531" type="line"/>
      <point x="1428" y="467"/>
      <point x="1484" y="397"/>
      <point x="1484" y="255" type="curve" smooth="yes"/>
      <point x="1484" y="134"/>
      <point x="1429" y="14"/>
      <point x="1303" y="14" type="curve" smooth="yes"/>
      <point x="1253" y="14"/>
      <point x="1224" y="27"/>
      <point x="1200" y="49" type="curve" smooth="yes"/>
      <point x="1159" y="87"/>
      <point x="1146" y="148"/>
      <point x="1146" y="235" type="curve" smooth="yes"/>
      <point x="1146" y="546" type="line"/>
      <point x="1120" y="546" type="line"/>
      <point x="1120" y="222" type="line" smooth="yes"/>
      <point x="1120" y="136"/>
      <point x="1105" y="79"/>
      <point x="1067" y="45" type="curve" smooth="yes"/>
      <point x="1045" y="25"/>
      <point x="1018" y="14"/>
      <point x="980" y="14" type="curve" smooth="yes"/>
      <point x="931" y="14"/>
      <point x="899" y="30"/>
      <point x="877" y="58" type="curve" smooth="yes"/>
      <point x="848" y="95"/>
      <point x="836" y="147"/>
      <point x="836" y="255" type="curve" smooth="yes"/>
      <point x="836" y="286" type="line" smooth="yes"/>
      <point x="836" y="402"/>
      <point x="813" y="469"/>
      <point x="757" y="514" type="curve" smooth="yes"/>
      <point x="724" y="541"/>
      <point x="676" y="558"/>
    </contour>
  </outline>
</glyph>
<glyph name="ttamlym" format="2">
  <advance width="508"/>
  <unicode hex="0D1F"/>
  <outline>
    <contour>
      <point x="240" y="558" type="curve" smooth="yes"/>
      <point x="104" y="558"/>
      <point x="36" y="491"/>
      <point x="36" y="408" type="curve" smooth="yes"/>
      <point x="36" y="362"/>
      <point x="52" y="329"/>
      <point x="76" y="307" type="curve" smooth="yes"/>
      <point x="113" y="273"/>
      <point x="159" y="266"/>
      <point x="250" y="266" type="curve" smooth="yes"/>
      <point x="256" y="266" type="line" smooth="yes"/>
      <point x="339" y="266"/>
      <point x="378" y="256"/>
      <point x="407" y="232" type="curve" smooth="yes"/>
      <point x="431" y="213"/>
      <point x="441" y="185"/>
      <point x="441" y="146" type="curve" smooth="yes"/>
      <point x="441" y="72"/>
      <point x="394" y="14"/>
      <point x="260" y="14" type="curve" smooth="yes"/>
      <point x="162" y="14"/>
      <point x="94" y="38"/>
      <point x="35" y="70" type="curve"/>
      <point x="20" y="48" type="line"/>
      <point x="93" y="9"/>
      <point x="159" y="-12"/>
      <point x="260" y="-12" type="curve" smooth="yes"/>
      <point x="401" y="-12"/>
      <point x="468" y="53"/>
      <point x="468" y="146" type="curve" smooth="yes"/>
      <point x="468" y="196"/>
      <point x="451" y="231"/>
      <point x="421" y="254" type="curve" smooth="yes"/>
      <point x="384" y="282"/>
      <point x="342" y="292"/>
      <point x="259" y="292" type="curve" smooth="yes"/>
      <point x="253" y="292" type="line" smooth="yes"/>
      <point x="185" y="292"/>
      <point x="133" y="293"/>
      <point x="98" y="322" type="curve" smooth="yes"/>
      <point x="77" y="339"/>
      <point x="63" y="366"/>
      <point x="63" y="407" type="curve" smooth="yes"/>
      <point x="63" y="474"/>
      <point x="112" y="532"/>
      <point x="241" y="532" type="curve" smooth="yes"/>
      <point x="324" y="532"/>
      <point x="389" y="517"/>
      <point x="459" y="483" type="curve"/>
      <point x="476" y="505" type="line"/>
      <point x="411" y="536"/>
      <point x="340" y="558"/>
    </contour>
  </outline>
</glyph>
<glyph name="tthamlym" format="2">
  <advance width="610"/>
  <unicode hex="0D20"/>
  <outline>
    <contour>
      <point x="307" y="558" type="curve" smooth="yes"/>
      <point x="147" y="558"/>
      <point x="45" y="447"/>
      <point x="45" y="275" type="curve" smooth="yes"/>
      <point x="45" y="98"/>
      <point x="141" y="-12"/>
      <point x="303" y="-12" type="curve" smooth="yes"/>
      <point x="465" y="-12"/>
      <point x="565" y="100"/>
      <point x="565" y="272" type="curve" smooth="yes"/>
      <point x="565" y="448"/>
      <point x="469" y="558"/>
    </contour>
    <contour>
      <point x="303" y="14" type="curve" smooth="yes"/>
      <point x="153" y="14"/>
      <point x="72" y="112"/>
      <point x="72" y="274" type="curve" smooth="yes"/>
      <point x="72" y="430"/>
      <point x="158" y="532"/>
      <point x="306" y="532" type="curve" smooth="yes"/>
      <point x="457" y="532"/>
      <point x="538" y="434"/>
      <point x="538" y="274" type="curve" smooth="yes"/>
      <point x="538" y="123"/>
      <point x="458" y="14"/>
    </contour>
  </outline>
</glyph>
<glyph name="ddamlym" format="2">
  <advance width="1141"/>
  <unicode hex="0D21"/>
  <outline>
    <contour>
      <point x="565" y="-12" type="curve" smooth="yes"/>
      <point x="652" y="-12"/>
      <point x="711" y="44"/>
      <point x="721" y="143" type="curve"/>
      <point x="715" y="144" type="line"/>
      <point x="732" y="47"/>
      <point x="785" y="-12"/>
      <point x="885" y="-12" type="curve" smooth="yes"/>
      <point x="1025" y="-12"/>
      <point x="1096" y="112"/>
      <point x="1096" y="255" type="curve" smooth="yes"/>
      <point x="1096" y="412"/>
      <point x="1033" y="484"/>
      <point x="951" y="552" type="curve"/>
      <point x="936" y="531" type="line"/>
      <point x="1013" y="467"/>
      <point x="1069" y="397"/>
      <point x="1069" y="255" type="curve" smooth="yes"/>
      <point x="1069" y="134"/>
      <point x="1014" y="14"/>
      <point x="888" y="14" type="curve" smooth="yes"/>
      <point x="838" y="14"/>
      <point x="809" y="27"/>
      <point x="785" y="49" type="curve" smooth="yes"/>
      <point x="744" y="87"/>
      <point x="731" y="148"/>
      <point x="731" y="235" type="curve" smooth="yes"/>
      <point x="731" y="546" type="line"/>
      <point x="705" y="546" type="line"/>
      <point x="705" y="222" type="line" smooth="yes"/>
      <point x="705" y="136"/>
      <point x="690" y="79"/>
      <point x="652" y="45" type="curve" smooth="yes"/>
      <point x="630" y="25"/>
      <point x="603" y="14"/>
      <point x="565" y="14" type="curve" smooth="yes"/>
      <point x="516" y="14"/>
      <point x="484" y="30"/>
      <point x="462" y="58" type="curve" smooth="yes"/>
      <point x="433" y="95"/>
      <point x="421" y="147"/>
      <point x="421" y="255" type="curve" smooth="yes"/>
      <point x="421" y="291" type="line" smooth="yes"/>
      <point x="421" y="406"/>
      <point x="410" y="461"/>
      <point x="370" y="508" type="curve" smooth="yes"/>
      <point x="343" y="540"/>
      <point x="302" y="558"/>
      <point x="245" y="558" type="curve" smooth="yes"/>
      <point x="121" y="558"/>
      <point x="45" y="455"/>
      <point x="45" y="288" type="curve" smooth="yes"/>
      <point x="45" y="139"/>
      <point x="108" y="60"/>
      <point x="190" y="-8" type="curve"/>
      <point x="205" y="13" type="line"/>
      <point x="128" y="77"/>
      <point x="72" y="148"/>
      <point x="72" y="289" type="curve" smooth="yes"/>
      <point x="72" y="449"/>
      <point x="142" y="532"/>
      <point x="244" y="532" type="curve" smooth="yes"/>
      <point x="301" y="532"/>
      <point x="332" y="515"/>
      <point x="355" y="486" type="curve" smooth="yes"/>
      <point x="389" y="442"/>
      <point x="395" y="380"/>
      <point x="395" y="273" type="curve" smooth="yes"/>
      <point x="395" y="234" type="line" smooth="yes"/>
      <point x="395" y="129"/>
      <point x="410" y="77"/>
      <point x="447" y="36" type="curve" smooth="yes"/>
      <point x="475" y="5"/>
      <point x="512" y="-12"/>
    </contour>
  </outline>
</glyph>
<glyph name="ddhamlym" format="2">
  <advance width="1247"/>
  <unicode hex="0D22"/>
  <outline>
    <contour>
      <point x="565" y="-12" type="curve" smooth="yes"/>
      <point x="652" y="-12"/>
      <point x="711" y="44"/>
      <point x="721" y="143" type="curve"/>
      <point x="731" y="235" type="line"/>
      <point x="731" y="546" type="line"/>
      <point x="705" y="546" type="line"/>
      <point x="705" y="222" type="line" smooth="yes"/>
      <point x="705" y="136"/>
      <point x="690" y="79"/>
      <point x="652" y="45" type="curve" smooth="yes"/>
      <point x="630" y="25"/>
      <point x="603" y="14"/>
      <point x="565" y="14" type="curve" smooth="yes"/>
      <point x="516" y="14"/>
      <point x="484" y="30"/>
      <point x="462" y="58" type="curve" smooth="yes"/>
      <point x="433" y="95"/>
      <point x="421" y="147"/>
      <point x="421" y="255" type="curve" smooth="yes"/>
      <point x="421" y="291" type="line" smooth="yes"/>
      <point x="421" y="406"/>
      <point x="410" y="461"/>
      <point x="370" y="508" type="curve" smooth="yes"/>
      <point x="343" y="540"/>
      <point x="302" y="558"/>
      <point x="245" y="558" type="curve" smooth="yes"/>
      <point x="121" y="558"/>
      <point x="45" y="455"/>
      <point x="45" y="288" type="curve" smooth="yes"/>
      <point x="45" y="139"/>
      <point x="108" y="60"/>
      <point x="190" y="-8" type="curve"/>
      <point x="205" y="13" type="line"/>
      <point x="128" y="77"/>
      <point x="72" y="148"/>
      <point x="72" y="289" type="curve" smooth="yes"/>
      <point x="72" y="449"/>
      <point x="142" y="532"/>
      <point x="244" y="532" type="curve" smooth="yes"/>
      <point x="301" y="532"/>
      <point x="332" y="515"/>
      <point x="355" y="486" type="curve" smooth="yes"/>
      <point x="389" y="442"/>
      <point x="395" y="380"/>
      <point x="395" y="273" type="curve" smooth="yes"/>
      <point x="395" y="234" type="line" smooth="yes"/>
      <point x="395" y="129"/>
      <point x="410" y="77"/>
      <point x="447" y="36" type="curve" smooth="yes"/>
      <point x="475" y="5"/>
      <point x="512" y="-12"/>
    </contour>
    <contour>
      <point x="1029" y="558" type="curve" smooth="yes"/>
      <point x="952" y="558"/>
      <point x="889" y="507"/>
      <point x="889" y="397" type="curve" smooth="yes"/>
      <point x="889" y="296"/>
      <point x="957" y="244"/>
      <point x="1036" y="244" type="curve" smooth="yes"/>
      <point x="1089" y="244"/>
      <point x="1148" y="266"/>
      <point x="1194" y="317" type="curve"/>
      <point x="1189" y="343" type="line"/>
      <point x="1158" y="308"/>
      <point x="1100" y="270"/>
      <point x="1037" y="270" type="curve" smooth="yes"/>
      <point x="954" y="270"/>
      <point x="916" y="327"/>
      <point x="916" y="397" type="curve" smooth="yes"/>
      <point x="916" y="497"/>
      <point x="968" y="532"/>
      <point x="1029" y="532" type="curve" smooth="yes"/>
      <point x="1117" y="532"/>
      <point x="1173" y="467"/>
      <point x="1173" y="320" type="curve" smooth="yes"/>
      <point x="1173" y="314" type="line" smooth="yes"/>
      <point x="1173" y="143"/>
      <point x="1077" y="14"/>
      <point x="918" y="14" type="curve" smooth="yes"/>
      <point x="866" y="14"/>
      <point x="834" y="24"/>
      <point x="802" y="48" type="curve" smooth="yes"/>
      <point x="759" y="81"/>
      <point x="731" y="132"/>
      <point x="731" y="234" type="curve" smooth="yes"/>
      <point x="731" y="536" type="line"/>
      <point x="712" y="536" type="line"/>
      <point x="712" y="348" type="line"/>
      <point x="713" y="175" type="line"/>
      <point x="722" y="54"/>
      <point x="800" y="-12"/>
      <point x="917" y="-12" type="curve"/>
      <point x="1089" y="-12"/>
      <point x="1199" y="124"/>
      <point x="1199" y="321" type="curve" smooth="yes"/>
      <point x="1199" y="493"/>
      <point x="1123" y="558"/>
    </contour>
  </outline>
</glyph>
<glyph name="nnamlym" format="2">
  <advance width="1285"/>
  <unicode hex="0D23"/>
  <outline>
    <contour>
      <point x="330" y="558" type="curve" smooth="yes"/>
      <point x="158" y="558"/>
      <point x="48" y="422"/>
      <point x="48" y="225" type="curve" smooth="yes"/>
      <point x="48" y="53"/>
      <point x="124" y="-12"/>
      <point x="218" y="-12" type="curve" smooth="yes"/>
      <point x="295" y="-12"/>
      <point x="358" y="39"/>
      <point x="358" y="149" type="curve" smooth="yes"/>
      <point x="358" y="250"/>
      <point x="290" y="302"/>
      <point x="211" y="302" type="curve" smooth="yes"/>
      <point x="158" y="302"/>
      <point x="99" y="280"/>
      <point x="53" y="229" type="curve"/>
      <point x="58" y="203" type="line"/>
      <point x="89" y="238"/>
      <point x="147" y="276"/>
      <point x="210" y="276" type="curve" smooth="yes"/>
      <point x="293" y="276"/>
      <point x="331" y="219"/>
      <point x="331" y="149" type="curve" smooth="yes"/>
      <point x="331" y="49"/>
      <point x="279" y="14"/>
      <point x="218" y="14" type="curve" smooth="yes"/>
      <point x="130" y="14"/>
      <point x="74" y="79"/>
      <point x="74" y="226" type="curve" smooth="yes"/>
      <point x="74" y="232" type="line" smooth="yes"/>
      <point x="74" y="403"/>
      <point x="170" y="532"/>
      <point x="329" y="532" type="curve" smooth="yes"/>
      <point x="381" y="532"/>
      <point x="413" y="522"/>
      <point x="445" y="498" type="curve" smooth="yes"/>
      <point x="488" y="465"/>
      <point x="516" y="414"/>
      <point x="516" y="312" type="curve" smooth="yes"/>
      <point x="516" y="0" type="line"/>
      <point x="542" y="0" type="line"/>
      <point x="542" y="316" type="line" smooth="yes"/>
      <point x="542" y="395"/>
      <point x="553" y="444"/>
      <point x="583" y="482" type="curve" smooth="yes"/>
      <point x="607" y="512"/>
      <point x="644" y="532"/>
      <point x="696" y="532" type="curve" smooth="yes"/>
      <point x="751" y="532"/>
      <point x="786" y="512"/>
      <point x="810" y="482" type="curve" smooth="yes"/>
      <point x="839" y="445"/>
      <point x="849" y="400"/>
      <point x="849" y="315" type="curve" smooth="yes"/>
      <point x="849" y="0" type="line"/>
      <point x="875" y="0" type="line"/>
      <point x="875" y="311" type="line" smooth="yes"/>
      <point x="875" y="398"/>
      <point x="888" y="459"/>
      <point x="929" y="497" type="curve" smooth="yes"/>
      <point x="953" y="519"/>
      <point x="983" y="532"/>
      <point x="1032" y="532" type="curve" smooth="yes"/>
      <point x="1158" y="532"/>
      <point x="1213" y="412"/>
      <point x="1213" y="291" type="curve" smooth="yes"/>
      <point x="1213" y="149"/>
      <point x="1157" y="79"/>
      <point x="1080" y="15" type="curve"/>
      <point x="1095" y="-6" type="line"/>
      <point x="1177" y="62"/>
      <point x="1240" y="134"/>
      <point x="1240" y="291" type="curve" smooth="yes"/>
      <point x="1240" y="434"/>
      <point x="1169" y="558"/>
      <point x="1030" y="558" type="curve" smooth="yes"/>
      <point x="929" y="558"/>
      <point x="873" y="498"/>
      <point x="859" y="402" type="curve"/>
      <point x="866" y="403" type="line"/>
      <point x="856" y="501"/>
      <point x="796" y="558"/>
      <point x="698" y="558" type="curve" smooth="yes"/>
      <point x="590" y="558"/>
      <point x="540" y="492"/>
      <point x="525" y="401" type="curve"/>
      <point x="530" y="404" type="line"/>
      <point x="509" y="497"/>
      <point x="447" y="558"/>
    </contour>
  </outline>
</glyph>
<glyph name="tamlym" format="2">
  <advance width="944"/>
  <unicode hex="0D24"/>
  <outline>
    <contour>
      <point x="472" y="-12" type="curve" smooth="yes"/>
      <point x="566" y="-12"/>
      <point x="640" y="58"/>
      <point x="640" y="210" type="curve" smooth="yes"/>
      <point x="640" y="330"/>
      <point x="580" y="443"/>
      <point x="489" y="505" type="curve" smooth="yes"/>
      <point x="479" y="511" type="line" smooth="yes"/>
      <point x="431" y="541"/>
      <point x="379" y="558"/>
      <point x="321" y="558" type="curve" smooth="yes"/>
      <point x="145" y="558"/>
      <point x="45" y="438"/>
      <point x="45" y="275" type="curve" smooth="yes"/>
      <point x="45" y="126"/>
      <point x="116" y="45"/>
      <point x="191" y="-8" type="curve"/>
      <point x="206" y="13" type="line"/>
      <point x="119" y="74"/>
      <point x="72" y="151"/>
      <point x="72" y="276" type="curve" smooth="yes"/>
      <point x="72" y="414"/>
      <point x="150" y="532"/>
      <point x="320" y="532" type="curve" smooth="yes"/>
      <point x="371" y="532"/>
      <point x="417" y="519"/>
      <point x="457" y="497" type="curve" smooth="yes"/>
      <point x="465" y="492" type="line" smooth="yes"/>
      <point x="556" y="436"/>
      <point x="613" y="319"/>
      <point x="613" y="210" type="curve" smooth="yes"/>
      <point x="613" y="75"/>
      <point x="553" y="14"/>
      <point x="472" y="14" type="curve" smooth="yes"/>
      <point x="386" y="14"/>
      <point x="329" y="69"/>
      <point x="329" y="205" type="curve" smooth="yes"/>
      <point x="329" y="313"/>
      <point x="384" y="430"/>
      <point x="479" y="490" type="curve" smooth="yes"/>
      <point x="487" y="495" type="line" smooth="yes"/>
      <point x="528" y="518"/>
      <point x="576" y="532"/>
      <point x="631" y="532" type="curve" smooth="yes"/>
      <point x="793" y="532"/>
      <point x="872" y="422"/>
      <point x="872" y="277" type="curve" smooth="yes"/>
      <point x="872" y="141"/>
      <point x="810" y="67"/>
      <point x="736" y="13" type="curve"/>
      <point x="751" y="-8" type="line"/>
      <point x="829" y="50"/>
      <point x="899" y="128"/>
      <point x="899" y="276" type="curve" smooth="yes"/>
      <point x="899" y="440"/>
      <point x="803" y="558"/>
      <point x="632" y="558" type="curve" smooth="yes"/>
      <point x="570" y="558"/>
      <point x="513" y="541"/>
      <point x="464" y="509" type="curve" smooth="yes"/>
      <point x="456" y="504" type="line" smooth="yes"/>
      <point x="362" y="440"/>
      <point x="302" y="328"/>
      <point x="302" y="206" type="curve" smooth="yes"/>
      <point x="302" y="54"/>
      <point x="373" y="-12"/>
    </contour>
  </outline>
</glyph>
<glyph name="thamlym" format="2">
  <advance width="836"/>
  <unicode hex="0D25"/>
  <outline>
    <contour>
      <point x="105" y="546" type="line"/>
      <point x="79" y="546" type="line"/>
      <point x="79" y="0" type="line"/>
      <point x="364" y="0" type="line"/>
      <point x="364" y="26" type="line"/>
      <point x="105" y="26" type="line"/>
    </contour>
    <component base="thapart"/>
  </outline>
</glyph>
<glyph name="damlym" format="2">
  <advance width="583"/>
  <unicode hex="0D26"/>
  <outline>
    <contour>
      <point x="346" y="558" type="curve" smooth="yes"/>
      <point x="161" y="558"/>
      <point x="56" y="416"/>
      <point x="56" y="214" type="curve" smooth="yes"/>
      <point x="56" y="144"/>
      <point x="67" y="60"/>
      <point x="84" y="-4" type="curve"/>
      <point x="110" y="1" type="line"/>
      <point x="92" y="70"/>
      <point x="83" y="137"/>
      <point x="83" y="215" type="curve" smooth="yes"/>
      <point x="83" y="393"/>
      <point x="168" y="532"/>
      <point x="345" y="532" type="curve" smooth="yes"/>
      <point x="445" y="532"/>
      <point x="503" y="485"/>
      <point x="503" y="408" type="curve" smooth="yes"/>
      <point x="503" y="366"/>
      <point x="491" y="338"/>
      <point x="469" y="318" type="curve" smooth="yes"/>
      <point x="441" y="293"/>
      <point x="402" y="283"/>
      <point x="333" y="283" type="curve" smooth="yes"/>
      <point x="295" y="283" type="line"/>
      <point x="295" y="257" type="line"/>
      <point x="333" y="257" type="line" smooth="yes"/>
      <point x="402" y="257"/>
      <point x="443" y="245"/>
      <point x="473" y="221" type="curve" smooth="yes"/>
      <point x="499" y="200"/>
      <point x="514" y="169"/>
      <point x="514" y="129" type="curve" smooth="yes"/>
      <point x="514" y="53"/>
      <point x="467" y="14"/>
      <point x="376" y="14" type="curve" smooth="yes"/>
      <point x="339" y="14"/>
      <point x="312" y="19"/>
      <point x="285" y="25" type="curve"/>
      <point x="279" y="-1" type="line"/>
      <point x="303" y="-7"/>
      <point x="331" y="-12"/>
      <point x="376" y="-12" type="curve" smooth="yes"/>
      <point x="476" y="-12"/>
      <point x="541" y="35"/>
      <point x="541" y="127" type="curve" smooth="yes"/>
      <point x="541" y="205"/>
      <point x="491" y="266"/>
      <point x="389" y="273" type="curve"/>
      <point x="390" y="267" type="line"/>
      <point x="474" y="275"/>
      <point x="530" y="316"/>
      <point x="530" y="409" type="curve" smooth="yes"/>
      <point x="530" y="494"/>
      <point x="464" y="558"/>
    </contour>
  </outline>
</glyph>
<glyph name="dhamlym" format="2">
  <advance width="846"/>
  <unicode hex="0D27"/>
  <outline>
    <contour>
      <point x="590" y="-12" type="curve"/>
      <point x="718" y="-12"/>
      <point x="801" y="95"/>
      <point x="801" y="258" type="curve" smooth="yes"/>
      <point x="801" y="408"/>
      <point x="739" y="484"/>
      <point x="657" y="552" type="curve"/>
      <point x="642" y="531" type="line"/>
      <point x="718" y="467"/>
      <point x="774" y="397"/>
      <point x="774" y="258" type="curve" smooth="yes"/>
      <point x="774" y="127"/>
      <point x="716" y="14"/>
      <point x="588" y="14" type="curve" smooth="yes"/>
      <point x="543" y="14"/>
      <point x="514" y="27"/>
      <point x="490" y="50" type="curve" smooth="yes"/>
      <point x="450" y="88"/>
      <point x="436" y="147"/>
      <point x="436" y="234" type="curve" smooth="yes"/>
      <point x="436" y="546" type="line"/>
      <point x="410" y="546" type="line"/>
      <point x="410" y="235" type="line" smooth="yes"/>
      <point x="410" y="148"/>
      <point x="397" y="87"/>
      <point x="356" y="49" type="curve" smooth="yes"/>
      <point x="332" y="27"/>
      <point x="303" y="14"/>
      <point x="253" y="14" type="curve" smooth="yes"/>
      <point x="127" y="14"/>
      <point x="72" y="134"/>
      <point x="72" y="255" type="curve" smooth="yes"/>
      <point x="72" y="397"/>
      <point x="128" y="467"/>
      <point x="205" y="531" type="curve"/>
      <point x="190" y="552" type="line"/>
      <point x="108" y="484"/>
      <point x="45" y="412"/>
      <point x="45" y="255" type="curve" smooth="yes"/>
      <point x="45" y="112"/>
      <point x="116" y="-12"/>
      <point x="256" y="-12" type="curve" smooth="yes"/>
      <point x="356" y="-12"/>
      <point x="410" y="47"/>
      <point x="427" y="144" type="curve"/>
      <point x="421" y="144" type="line"/>
      <point x="438" y="44"/>
      <point x="492" y="-12"/>
    </contour>
  </outline>
</glyph>
<glyph name="namlym" format="2">
  <advance width="846"/>
  <unicode hex="0D28"/>
  <outline>
    <contour>
      <point x="256" y="558" type="curve" smooth="yes"/>
      <point x="128" y="558"/>
      <point x="45" y="451"/>
      <point x="45" y="288" type="curve" smooth="yes"/>
      <point x="45" y="138"/>
      <point x="107" y="62"/>
      <point x="189" y="-6" type="curve"/>
      <point x="204" y="15" type="line"/>
      <point x="128" y="79"/>
      <point x="72" y="149"/>
      <point x="72" y="288" type="curve" smooth="yes"/>
      <point x="72" y="419"/>
      <point x="130" y="532"/>
      <point x="258" y="532" type="curve" smooth="yes"/>
      <point x="303" y="532"/>
      <point x="332" y="519"/>
      <point x="356" y="496" type="curve" smooth="yes"/>
      <point x="396" y="458"/>
      <point x="410" y="399"/>
      <point x="410" y="312" type="curve" smooth="yes"/>
      <point x="410" y="0" type="line"/>
      <point x="436" y="0" type="line"/>
      <point x="436" y="311" type="line" smooth="yes"/>
      <point x="436" y="398"/>
      <point x="449" y="459"/>
      <point x="490" y="497" type="curve" smooth="yes"/>
      <point x="514" y="519"/>
      <point x="543" y="532"/>
      <point x="593" y="532" type="curve" smooth="yes"/>
      <point x="719" y="532"/>
      <point x="774" y="412"/>
      <point x="774" y="291" type="curve" smooth="yes"/>
      <point x="774" y="149"/>
      <point x="718" y="79"/>
      <point x="641" y="15" type="curve"/>
      <point x="656" y="-6" type="line"/>
      <point x="738" y="62"/>
      <point x="801" y="134"/>
      <point x="801" y="291" type="curve" smooth="yes"/>
      <point x="801" y="434"/>
      <point x="730" y="558"/>
      <point x="590" y="558" type="curve" smooth="yes"/>
      <point x="490" y="558"/>
      <point x="436" y="499"/>
      <point x="419" y="402" type="curve"/>
      <point x="425" y="402" type="line"/>
      <point x="408" y="502"/>
      <point x="354" y="558"/>
    </contour>
  </outline>
</glyph>
<glyph name="bamlym" format="2">
  <advance width="1227"/>
  <unicode hex="0D2C"/>
  <outline>
    <contour>
      <point x="330" y="558" type="curve" smooth="yes"/>
      <point x="158" y="558"/>
      <point x="48" y="422"/>
      <point x="48" y="225" type="curve" smooth="yes"/>
      <point x="48" y="53"/>
      <point x="124" y="-12"/>
      <point x="218" y="-12" type="curve" smooth="yes"/>
      <point x="295" y="-12"/>
      <point x="358" y="39"/>
      <point x="358" y="149" type="curve" smooth="yes"/>
      <point x="358" y="250"/>
      <point x="290" y="302"/>
      <point x="211" y="302" type="curve" smooth="yes"/>
      <point x="158" y="302"/>
      <point x="99" y="280"/>
      <point x="53" y="229" type="curve"/>
      <point x="58" y="203" type="line"/>
      <point x="89" y="238"/>
      <point x="147" y="276"/>
      <point x="210" y="276" type="curve" smooth="yes"/>
      <point x="293" y="276"/>
      <point x="331" y="219"/>
      <point x="331" y="149" type="curve" smooth="yes"/>
      <point x="331" y="49"/>
      <point x="279" y="14"/>
      <point x="218" y="14" type="curve" smooth="yes"/>
      <point x="130" y="14"/>
      <point x="74" y="79"/>
      <point x="74" y="226" type="curve" smooth="yes"/>
      <point x="74" y="232" type="line" smooth="yes"/>
      <point x="74" y="403"/>
      <point x="170" y="532"/>
      <point x="329" y="532" type="curve" smooth="yes"/>
      <point x="381" y="532"/>
      <point x="413" y="522"/>
      <point x="445" y="498" type="curve" smooth="yes"/>
      <point x="488" y="465"/>
      <point x="516" y="414"/>
      <point x="516" y="312" type="curve" smooth="yes"/>
      <point x="516" y="0" type="line"/>
      <point x="542" y="0" type="line"/>
      <point x="542" y="269" type="line"/>
      <point x="534" y="368" type="line"/>
      <point x="530" y="404" type="line"/>
      <point x="509" y="497"/>
      <point x="447" y="558"/>
    </contour>
    <contour>
      <point x="1148" y="546" type="line"/>
      <point x="1122" y="546" type="line"/>
      <point x="1122" y="26" type="line"/>
      <point x="782" y="26" type="line"/>
      <point x="789" y="20" type="line"/>
      <point x="859" y="80"/>
      <point x="907" y="154"/>
      <point x="907" y="291" type="curve" smooth="yes"/>
      <point x="907" y="434"/>
      <point x="836" y="558"/>
      <point x="696" y="558" type="curve" smooth="yes"/>
      <point x="596" y="558"/>
      <point x="542" y="499"/>
      <point x="524" y="402" type="curve"/>
      <point x="521" y="357" type="line"/>
      <point x="519" y="274" type="line"/>
      <point x="519" y="10" type="line"/>
      <point x="542" y="10" type="line"/>
      <point x="542" y="311" type="line" smooth="yes"/>
      <point x="542" y="398"/>
      <point x="555" y="459"/>
      <point x="596" y="497" type="curve" smooth="yes"/>
      <point x="620" y="519"/>
      <point x="649" y="532"/>
      <point x="699" y="532" type="curve" smooth="yes"/>
      <point x="825" y="532"/>
      <point x="880" y="412"/>
      <point x="880" y="291" type="curve" smooth="yes"/>
      <point x="880" y="155"/>
      <point x="829" y="88"/>
      <point x="758" y="21" type="curve"/>
      <point x="768" y="0" type="line"/>
      <point x="1148" y="0" type="line"/>
    </contour>
  </outline>
</glyph>
<glyph name="bhamlym" format="2">
  <advance width="594"/>
  <unicode hex="0D2D"/>
  <outline>
    <contour>
      <point x="362" y="558" type="curve" smooth="yes"/>
      <point x="166" y="558"/>
      <point x="56" y="416"/>
      <point x="56" y="214" type="curve" smooth="yes"/>
      <point x="56" y="144"/>
      <point x="67" y="60"/>
      <point x="84" y="-4" type="curve"/>
      <point x="110" y="1" type="line"/>
      <point x="92" y="70"/>
      <point x="83" y="137"/>
      <point x="83" y="215" type="curve" smooth="yes"/>
      <point x="83" y="393"/>
      <point x="172" y="532"/>
      <point x="361" y="532" type="curve" smooth="yes"/>
      <point x="468" y="532"/>
      <point x="527" y="490"/>
      <point x="527" y="422" type="curve" smooth="yes"/>
      <point x="527" y="373"/>
      <point x="505" y="355"/>
      <point x="449" y="355" type="curve" smooth="yes"/>
      <point x="407" y="355" type="line" smooth="yes"/>
      <point x="347" y="355"/>
      <point x="309" y="349"/>
      <point x="282" y="328" type="curve" smooth="yes"/>
      <point x="265" y="314"/>
      <point x="255" y="295"/>
      <point x="255" y="265" type="curve" smooth="yes"/>
      <point x="255" y="235"/>
      <point x="266" y="214"/>
      <point x="286" y="200" type="curve" smooth="yes"/>
      <point x="310" y="183"/>
      <point x="343" y="177"/>
      <point x="401" y="177" type="curve" smooth="yes"/>
      <point x="416" y="177" type="line" smooth="yes"/>
      <point x="486" y="177"/>
      <point x="526" y="159"/>
      <point x="526" y="100" type="curve" smooth="yes"/>
      <point x="526" y="48"/>
      <point x="493" y="14"/>
      <point x="407" y="14" type="curve" smooth="yes"/>
      <point x="348" y="14"/>
      <point x="294" y="23"/>
      <point x="247" y="44" type="curve"/>
      <point x="236" y="20" type="line"/>
      <point x="281" y="-3"/>
      <point x="346" y="-12"/>
      <point x="407" y="-12" type="curve" smooth="yes"/>
      <point x="507" y="-12"/>
      <point x="553" y="32"/>
      <point x="553" y="102" type="curve" smooth="yes"/>
      <point x="553" y="134"/>
      <point x="542" y="159"/>
      <point x="523" y="174" type="curve" smooth="yes"/>
      <point x="496" y="196"/>
      <point x="460" y="203"/>
      <point x="403" y="203" type="curve" smooth="yes"/>
      <point x="393" y="203" type="line" smooth="yes"/>
      <point x="309" y="203"/>
      <point x="282" y="221"/>
      <point x="282" y="267" type="curve" smooth="yes"/>
      <point x="282" y="286"/>
      <point x="289" y="302"/>
      <point x="302" y="311" type="curve" smooth="yes"/>
      <point x="322" y="326"/>
      <point x="349" y="329"/>
      <point x="410" y="329" type="curve" smooth="yes"/>
      <point x="447" y="329" type="line" smooth="yes"/>
      <point x="493" y="329"/>
      <point x="514" y="338"/>
      <point x="532" y="356" type="curve" smooth="yes"/>
      <point x="547" y="371"/>
      <point x="554" y="395"/>
      <point x="554" y="422" type="curve" smooth="yes"/>
      <point x="554" y="509"/>
      <point x="474" y="558"/>
    </contour>
  </outline>
</glyph>
<glyph name="mamlym" format="2">
  <advance width="665"/>
  <unicode hex="0D2E"/>
  <outline>
    <contour>
      <point x="342" y="558" type="curve" smooth="yes"/>
      <point x="256" y="558"/>
      <point x="191" y="535"/>
      <point x="145" y="492" type="curve" smooth="yes"/>
      <point x="91" y="441"/>
      <point x="65" y="365"/>
      <point x="65" y="246" type="curve" smooth="yes"/>
      <point x="65" y="0" type="line"/>
      <point x="600" y="0" type="line"/>
      <point x="600" y="249" type="line" smooth="yes"/>
      <point x="600" y="383"/>
      <point x="567" y="462"/>
      <point x="505" y="510" type="curve" smooth="yes"/>
      <point x="464" y="542"/>
      <point x="410" y="558"/>
    </contour>
    <contour>
      <point x="294" y="526" type="curve" smooth="yes"/>
      <point x="377" y="526"/>
      <point x="404" y="461"/>
      <point x="404" y="403" type="curve" smooth="yes"/>
      <point x="404" y="283"/>
      <point x="273" y="147"/>
      <point x="108" y="26" type="curve"/>
      <point x="91" y="26" type="line"/>
      <point x="91" y="248" type="line" smooth="yes"/>
      <point x="91" y="359"/>
      <point x="117" y="428"/>
      <point x="162" y="473" type="curve" smooth="yes"/>
      <point x="196" y="507"/>
      <point x="241" y="526"/>
    </contour>
    <contour>
      <point x="431" y="405" type="curve" smooth="yes"/>
      <point x="431" y="464"/>
      <point x="411" y="521"/>
      <point x="332" y="542" type="curve"/>
      <point x="336" y="536" type="line"/>
      <point x="511" y="536"/>
      <point x="574" y="421"/>
      <point x="574" y="252" type="curve" smooth="yes"/>
      <point x="574" y="26" type="line"/>
      <point x="306" y="26" type="line" smooth="yes"/>
      <point x="249" y="26"/>
      <point x="176" y="25"/>
      <point x="131" y="23" type="curve"/>
      <point x="128" y="9" type="line"/>
      <point x="303" y="142"/>
      <point x="431" y="272"/>
    </contour>
  </outline>
</glyph>
<glyph name="yamlym" format="2">
  <advance width="966"/>
  <unicode hex="0D2F"/>
  <outline>
    <contour>
      <point x="630" y="-12" type="curve" smooth="yes"/>
      <point x="826" y="-12"/>
      <point x="919" y="121"/>
      <point x="919" y="309" type="curve" smooth="yes"/>
      <point x="919" y="407"/>
      <point x="880" y="492"/>
      <point x="823" y="557" type="curve"/>
      <point x="801" y="542" type="line"/>
      <point x="848" y="494"/>
      <point x="892" y="407"/>
      <point x="892" y="308" type="curve" smooth="yes"/>
      <point x="892" y="140"/>
      <point x="817" y="14"/>
      <point x="629" y="14" type="curve" smooth="yes"/>
      <point x="580" y="14"/>
      <point x="540" y="23"/>
      <point x="505" y="39" type="curve" smooth="yes"/>
      <point x="500" y="41"/>
      <point x="496" y="44"/>
      <point x="491" y="46" type="curve" smooth="yes"/>
      <point x="393" y="99"/>
      <point x="339" y="212"/>
      <point x="339" y="333" type="curve" smooth="yes"/>
      <point x="339" y="452"/>
      <point x="394" y="532"/>
      <point x="487" y="532" type="curve" smooth="yes"/>
      <point x="573" y="532"/>
      <point x="637" y="475"/>
      <point x="637" y="335" type="curve" smooth="yes"/>
      <point x="637" y="208"/>
      <point x="584" y="96"/>
      <point x="481" y="45" type="curve" smooth="yes"/>
      <point x="476" y="43"/>
      <point x="472" y="40"/>
      <point x="467" y="38" type="curve" smooth="yes"/>
      <point x="431" y="22"/>
      <point x="395" y="14"/>
      <point x="338" y="14" type="curve" smooth="yes"/>
      <point x="162" y="14"/>
      <point x="70" y="153"/>
      <point x="70" y="328" type="curve" smooth="yes"/>
      <point x="70" y="469"/>
      <point x="147" y="532"/>
      <point x="233" y="532" type="curve" smooth="yes"/>
      <point x="294" y="532"/>
      <point x="330" y="504"/>
      <point x="361" y="471" type="curve"/>
      <point x="378" y="489" type="line"/>
      <point x="347" y="522"/>
      <point x="306" y="558"/>
      <point x="232" y="558" type="curve" smooth="yes"/>
      <point x="134" y="558"/>
      <point x="43" y="482"/>
      <point x="43" y="330" type="curve" smooth="yes"/>
      <point x="43" y="138"/>
      <point x="148" y="-12"/>
      <point x="337" y="-12" type="curve" smooth="yes"/>
      <point x="403" y="-12"/>
      <point x="448" y="0"/>
      <point x="491" y="23" type="curve" smooth="yes"/>
      <point x="495" y="25"/>
      <point x="499" y="28"/>
      <point x="503" y="30" type="curve"/>
      <point x="606" y="87"/>
      <point x="664" y="195"/>
      <point x="664" y="336" type="curve" smooth="yes"/>
      <point x="664" y="475"/>
      <point x="597" y="558"/>
      <point x="487" y="558" type="curve" smooth="yes"/>
      <point x="431" y="558"/>
      <point x="388" y="533"/>
      <point x="359" y="494" type="curve"/>
      <point x="354" y="487" type="line"/>
      <point x="326" y="446"/>
      <point x="312" y="392"/>
      <point x="312" y="334" type="curve" smooth="yes"/>
      <point x="312" y="199"/>
      <point x="370" y="90"/>
      <point x="469" y="31" type="curve"/>
      <point x="472" y="29"/>
      <point x="476" y="27"/>
      <point x="479" y="25" type="curve" smooth="yes"/>
      <point x="522" y="1"/>
      <point x="570" y="-12"/>
    </contour>
  </outline>
</glyph>
<glyph name="ramlym" format="2">
  <advance width="675"/>
  <unicode hex="0D30"/>
  <outline>
    <contour>
      <point x="333" y="558" type="curve" smooth="yes"/>
      <point x="142" y="558"/>
      <point x="45" y="425"/>
      <point x="45" y="275" type="curve" smooth="yes"/>
      <point x="45" y="127"/>
      <point x="116" y="47"/>
      <point x="191" y="-6" type="curve"/>
      <point x="206" y="15" type="line"/>
      <point x="119" y="76"/>
      <point x="72" y="153"/>
      <point x="72" y="276" type="curve" smooth="yes"/>
      <point x="72" y="446"/>
      <point x="192" y="532"/>
      <point x="333" y="532" type="curve" smooth="yes"/>
      <point x="513" y="532"/>
      <point x="587" y="414"/>
      <point x="603" y="291" type="curve" smooth="yes"/>
      <point x="604" y="285"/>
      <point x="603" y="277"/>
      <point x="603" y="271" type="curve" smooth="yes"/>
      <point x="603" y="265"/>
      <point x="604" y="259"/>
      <point x="604" y="244" type="curve" smooth="yes"/>
      <point x="604" y="83"/>
      <point x="548" y="14"/>
      <point x="452" y="14" type="curve" smooth="yes"/>
      <point x="350" y="14"/>
      <point x="313" y="92"/>
      <point x="313" y="189" type="curve" smooth="yes"/>
      <point x="313" y="290"/>
      <point x="363" y="354"/>
      <point x="460" y="354" type="curve" smooth="yes"/>
      <point x="538" y="354"/>
      <point x="589" y="295"/>
      <point x="614" y="243" type="curve"/>
      <point x="626" y="257" type="line"/>
      <point x="595" y="324"/>
      <point x="544" y="380"/>
      <point x="459" y="380" type="curve" smooth="yes"/>
      <point x="359" y="380"/>
      <point x="286" y="314"/>
      <point x="286" y="187" type="curve" smooth="yes"/>
      <point x="286" y="76"/>
      <point x="336" y="-12"/>
      <point x="450" y="-12" type="curve" smooth="yes"/>
      <point x="556" y="-12"/>
      <point x="630" y="61"/>
      <point x="630" y="243" type="curve" smooth="yes"/>
      <point x="630" y="424"/>
      <point x="528" y="558"/>
    </contour>
  </outline>
</glyph>
<glyph name="rramlym" format="2">
  <advance width="620"/>
  <unicode hex="0D31"/>
  <outline>
    <contour>
      <point x="313" y="558" type="curve" smooth="yes"/>
      <point x="145" y="558"/>
      <point x="45" y="438"/>
      <point x="45" y="275" type="curve" smooth="yes"/>
      <point x="45" y="127"/>
      <point x="116" y="47"/>
      <point x="191" y="-6" type="curve"/>
      <point x="206" y="15" type="line"/>
      <point x="119" y="76"/>
      <point x="72" y="153"/>
      <point x="72" y="276" type="curve" smooth="yes"/>
      <point x="72" y="414"/>
      <point x="150" y="532"/>
      <point x="312" y="532" type="curve" smooth="yes"/>
      <point x="474" y="532"/>
      <point x="548" y="417"/>
      <point x="548" y="277" type="curve" smooth="yes"/>
      <point x="548" y="141"/>
      <point x="486" y="67"/>
      <point x="412" y="13" type="curve"/>
      <point x="427" y="-8" type="line"/>
      <point x="505" y="50"/>
      <point x="575" y="128"/>
      <point x="575" y="276" type="curve" smooth="yes"/>
      <point x="575" y="440"/>
      <point x="479" y="558"/>
    </contour>
  </outline>
</glyph>
<glyph name="lamlym" format="2">
  <advance width="800"/>
  <unicode hex="0D32"/>
  <outline>
    <contour>
      <point x="721" y="546" type="line"/>
      <point x="695" y="546" type="line"/>
      <point x="695" y="26" type="line"/>
      <point x="98" y="26" type="line"/>
      <point x="98" y="236" type="line"/>
      <point x="493" y="236" type="line"/>
      <point x="493" y="325" type="line" smooth="yes"/>
      <point x="493" y="411"/>
      <point x="475" y="469"/>
      <point x="439" y="506" type="curve" smooth="yes"/>
      <point x="405" y="541"/>
      <point x="353" y="558"/>
      <point x="284" y="558" type="curve" smooth="yes"/>
      <point x="217" y="558"/>
      <point x="161" y="538"/>
      <point x="125" y="498" type="curve" smooth="yes"/>
      <point x="90" y="460"/>
      <point x="72" y="409"/>
      <point x="72" y="317" type="curve" smooth="yes"/>
      <point x="72" y="0" type="line"/>
      <point x="721" y="0" type="line"/>
    </contour>
    <contour>
      <point x="284" y="533" type="curve" smooth="yes"/>
      <point x="412" y="533"/>
      <point x="467" y="475"/>
      <point x="467" y="315" type="curve" smooth="yes"/>
      <point x="467" y="262" type="line"/>
      <point x="98" y="262" type="line"/>
      <point x="98" y="319" type="line" smooth="yes"/>
      <point x="98" y="470"/>
      <point x="164" y="533"/>
    </contour>
  </outline>
</glyph>
<glyph name="llamlym" format="2">
  <advance width="661"/>
  <unicode hex="0D33"/>
  <outline>
    <contour>
      <point x="370" y="532" type="curve" smooth="yes"/>
      <point x="521" y="532"/>
      <point x="581" y="476"/>
      <point x="581" y="397" type="curve" smooth="yes"/>
      <point x="581" y="352"/>
      <point x="565" y="324"/>
      <point x="537" y="306" type="curve" smooth="yes"/>
      <point x="510" y="289"/>
      <point x="474" y="283"/>
      <point x="424" y="283" type="curve" smooth="yes"/>
      <point x="410" y="283" type="line"/>
      <point x="410" y="265" type="line"/>
      <point x="449" y="264" type="line"/>
      <point x="585" y="267"/>
      <point x="608" y="341"/>
      <point x="608" y="397" type="curve" smooth="yes"/>
      <point x="608" y="481"/>
      <point x="547" y="558"/>
      <point x="370" y="558" type="curve" smooth="yes"/>
      <point x="136" y="558"/>
      <point x="46" y="425"/>
      <point x="46" y="296" type="curve" smooth="yes"/>
      <point x="46" y="178"/>
      <point x="92" y="102"/>
      <point x="190" y="102" type="curve" smooth="yes"/>
      <point x="284" y="102"/>
      <point x="328" y="171"/>
      <point x="328" y="248" type="curve" smooth="yes"/>
      <point x="328" y="318"/>
      <point x="288" y="385"/>
      <point x="192" y="385" type="curve" smooth="yes"/>
      <point x="129" y="385"/>
      <point x="78" y="352"/>
      <point x="49" y="314" type="curve"/>
      <point x="55" y="290" type="line"/>
      <point x="93" y="334"/>
      <point x="140" y="359"/>
      <point x="192" y="359" type="curve" smooth="yes"/>
      <point x="273" y="359"/>
      <point x="301" y="305"/>
      <point x="301" y="247" type="curve" smooth="yes"/>
      <point x="301" y="179"/>
      <point x="264" y="128"/>
      <point x="192" y="128" type="curve" smooth="yes"/>
      <point x="102" y="128"/>
      <point x="72" y="199"/>
      <point x="72" y="298" type="curve" smooth="yes"/>
      <point x="72" y="305"/>
      <point x="72" y="311"/>
      <point x="72" y="315" type="curve" smooth="yes"/>
      <point x="72" y="318"/>
      <point x="73" y="322"/>
      <point x="73" y="325" type="curve" smooth="yes"/>
      <point x="81" y="406"/>
      <point x="146" y="532"/>
    </contour>
    <contour>
      <point x="619" y="141" type="curve" smooth="yes"/>
      <point x="619" y="218"/>
      <point x="564" y="274"/>
      <point x="449" y="274" type="curve"/>
      <point x="410" y="268" type="line"/>
      <point x="410" y="257" type="line"/>
      <point x="432" y="257" type="line" smooth="yes"/>
      <point x="479" y="257"/>
      <point x="508" y="250"/>
      <point x="534" y="237" type="curve" smooth="yes"/>
      <point x="570" y="218"/>
      <point x="592" y="187"/>
      <point x="592" y="141" type="curve" smooth="yes"/>
      <point x="592" y="109"/>
      <point x="584" y="84"/>
      <point x="569" y="66" type="curve" smooth="yes"/>
      <point x="543" y="36"/>
      <point x="510" y="26"/>
      <point x="435" y="26" type="curve" smooth="yes"/>
      <point x="235" y="26" type="line" smooth="yes"/>
      <point x="153" y="26"/>
      <point x="116" y="15"/>
      <point x="88" y="-13" type="curve" smooth="yes"/>
      <point x="70" y="-31"/>
      <point x="61" y="-56"/>
      <point x="61" y="-86" type="curve" smooth="yes"/>
      <point x="61" y="-123"/>
      <point x="75" y="-151"/>
      <point x="100" y="-170" type="curve" smooth="yes"/>
      <point x="130" y="-193"/>
      <point x="167" y="-201"/>
      <point x="227" y="-201" type="curve" smooth="yes"/>
      <point x="601" y="-201" type="line"/>
      <point x="601" y="-175" type="line"/>
      <point x="234" y="-175" type="line" smooth="yes"/>
      <point x="173" y="-175"/>
      <point x="139" y="-168"/>
      <point x="116" y="-150" type="curve" smooth="yes"/>
      <point x="98" y="-136"/>
      <point x="88" y="-115"/>
      <point x="88" y="-86" type="curve" smooth="yes"/>
      <point x="88" y="-62"/>
      <point x="95" y="-43"/>
      <point x="107" y="-30" type="curve" smooth="yes"/>
      <point x="131" y="-5"/>
      <point x="170" y="0"/>
      <point x="238" y="0" type="curve"/>
      <point x="434" y="0" type="line" smooth="yes"/>
      <point x="513" y="0"/>
      <point x="557" y="12"/>
      <point x="589" y="48" type="curve" smooth="yes"/>
      <point x="610" y="71"/>
      <point x="619" y="102"/>
    </contour>
  </outline>
</glyph>
<glyph name="lllamlym" format="2">
  <advance width="594"/>
  <unicode hex="0D34"/>
  <outline>
    <contour>
      <point x="260" y="410" type="curve" smooth="yes"/>
      <point x="260" y="293"/>
      <point x="345" y="215"/>
      <point x="345" y="112" type="curve" smooth="yes"/>
      <point x="345" y="54"/>
      <point x="315" y="14"/>
      <point x="240" y="14" type="curve" smooth="yes"/>
      <point x="188" y="14"/>
      <point x="147" y="26"/>
      <point x="107" y="49" type="curve"/>
      <point x="95" y="26" type="line"/>
      <point x="138" y="0"/>
      <point x="190" y="-12"/>
      <point x="239" y="-12" type="curve" smooth="yes"/>
      <point x="342" y="-12"/>
      <point x="372" y="54"/>
      <point x="372" y="114" type="curve" smooth="yes"/>
      <point x="372" y="214"/>
      <point x="287" y="300"/>
      <point x="287" y="410" type="curve" smooth="yes"/>
      <point x="287" y="473"/>
      <point x="325" y="532"/>
      <point x="406" y="532" type="curve" smooth="yes"/>
      <point x="490" y="532"/>
      <point x="525" y="476"/>
      <point x="525" y="399" type="curve" smooth="yes"/>
      <point x="525" y="289"/>
      <point x="455" y="195"/>
      <point x="303" y="195" type="curve" smooth="yes"/>
      <point x="297" y="195" type="line" smooth="yes"/>
      <point x="157" y="195"/>
      <point x="69" y="251"/>
      <point x="69" y="400" type="curve" smooth="yes"/>
      <point x="69" y="449"/>
      <point x="81" y="495"/>
      <point x="110" y="544" type="curve"/>
      <point x="87" y="557" type="line"/>
      <point x="57" y="506"/>
      <point x="42" y="455"/>
      <point x="42" y="399" type="curve" smooth="yes"/>
      <point x="42" y="236"/>
      <point x="145" y="169"/>
      <point x="296" y="169" type="curve" smooth="yes"/>
      <point x="303" y="169" type="line" smooth="yes"/>
      <point x="463" y="169"/>
      <point x="552" y="270"/>
      <point x="552" y="399" type="curve" smooth="yes"/>
      <point x="552" y="482"/>
      <point x="510" y="558"/>
      <point x="406" y="558" type="curve" smooth="yes"/>
      <point x="315" y="558"/>
      <point x="260" y="492"/>
    </contour>
  </outline>
</glyph>
<glyph name="shamlym" format="2">
  <advance width="958"/>
  <unicode hex="0D36"/>
  <outline>
    <contour>
      <point x="637" y="558" type="curve" smooth="yes"/>
      <point x="558" y="558"/>
      <point x="498" y="532"/>
      <point x="462" y="494" type="curve" smooth="yes"/>
      <point x="413" y="444"/>
      <point x="395" y="381"/>
      <point x="395" y="283" type="curve" smooth="yes"/>
      <point x="395" y="273" type="line" smooth="yes"/>
      <point x="395" y="166"/>
      <point x="389" y="104"/>
      <point x="355" y="60" type="curve" smooth="yes"/>
      <point x="332" y="31"/>
      <point x="301" y="14"/>
      <point x="244" y="14" type="curve" smooth="yes"/>
      <point x="142" y="14"/>
      <point x="72" y="97"/>
      <point x="72" y="257" type="curve" smooth="yes"/>
      <point x="72" y="398"/>
      <point x="128" y="469"/>
      <point x="205" y="533" type="curve"/>
      <point x="190" y="554" type="line"/>
      <point x="108" y="486"/>
      <point x="45" y="407"/>
      <point x="45" y="258" type="curve" smooth="yes"/>
      <point x="45" y="91"/>
      <point x="121" y="-12"/>
      <point x="245" y="-12" type="curve" smooth="yes"/>
      <point x="302" y="-12"/>
      <point x="343" y="6"/>
      <point x="370" y="38" type="curve" smooth="yes"/>
      <point x="410" y="85"/>
      <point x="421" y="140"/>
      <point x="421" y="251" type="curve" smooth="yes"/>
      <point x="421" y="259" type="line" smooth="yes"/>
      <point x="421" y="376"/>
      <point x="438" y="435"/>
      <point x="484" y="480" type="curve" smooth="yes"/>
      <point x="518" y="513"/>
      <point x="567" y="532"/>
      <point x="637" y="532" type="curve" smooth="yes"/>
      <point x="793" y="532"/>
      <point x="870" y="415"/>
      <point x="886" y="291" type="curve" smooth="yes"/>
      <point x="887" y="285"/>
      <point x="886" y="277"/>
      <point x="886" y="271" type="curve" smooth="yes"/>
      <point x="886" y="265"/>
      <point x="887" y="259"/>
      <point x="887" y="244" type="curve" smooth="yes"/>
      <point x="887" y="83"/>
      <point x="831" y="14"/>
      <point x="735" y="14" type="curve" smooth="yes"/>
      <point x="633" y="14"/>
      <point x="596" y="92"/>
      <point x="596" y="189" type="curve" smooth="yes"/>
      <point x="596" y="290"/>
      <point x="646" y="354"/>
      <point x="743" y="354" type="curve" smooth="yes"/>
      <point x="821" y="354"/>
      <point x="872" y="295"/>
      <point x="897" y="243" type="curve"/>
      <point x="909" y="257" type="line"/>
      <point x="878" y="324"/>
      <point x="827" y="380"/>
      <point x="742" y="380" type="curve" smooth="yes"/>
      <point x="642" y="380"/>
      <point x="569" y="314"/>
      <point x="569" y="187" type="curve" smooth="yes"/>
      <point x="569" y="76"/>
      <point x="619" y="-12"/>
      <point x="733" y="-12" type="curve" smooth="yes"/>
      <point x="839" y="-12"/>
      <point x="913" y="61"/>
      <point x="913" y="243" type="curve" smooth="yes"/>
      <point x="913" y="426"/>
      <point x="808" y="558"/>
    </contour>
  </outline>
</glyph>
<glyph name="ssamlym" format="2">
  <advance width="1067"/>
  <unicode hex="0D37"/>
  <outline>
    <contour>
      <point x="201" y="327" type="curve" smooth="yes"/>
      <point x="104" y="327"/>
      <point x="38" y="250"/>
      <point x="38" y="159" type="curve" smooth="yes"/>
      <point x="38" y="80"/>
      <point x="69" y="39"/>
      <point x="123" y="-8" type="curve"/>
      <point x="139" y="13" type="line"/>
      <point x="90" y="52"/>
      <point x="65" y="92"/>
      <point x="65" y="159" type="curve" smooth="yes"/>
      <point x="65" y="234"/>
      <point x="115" y="301"/>
      <point x="201" y="301" type="curve" smooth="yes"/>
      <point x="284" y="301"/>
      <point x="338" y="245"/>
      <point x="338" y="157" type="curve" smooth="yes"/>
      <point x="338" y="105"/>
      <point x="321" y="64"/>
      <point x="279" y="21" type="curve"/>
      <point x="291" y="0" type="line"/>
      <point x="652" y="0" type="line"/>
      <point x="653" y="26" type="line"/>
      <point x="304" y="26" type="line"/>
      <point x="298" y="10" type="line"/>
      <point x="340" y="47"/>
      <point x="365" y="95"/>
      <point x="365" y="158" type="curve" smooth="yes"/>
      <point x="365" y="257"/>
      <point x="299" y="327"/>
    </contour>
    <contour>
      <point x="636" y="0" type="line"/>
      <point x="988" y="0" type="line"/>
      <point x="988" y="546" type="line"/>
      <point x="963" y="546" type="line"/>
      <point x="888" y="380"/>
      <point x="797" y="279"/>
      <point x="637" y="279" type="curve" smooth="yes"/>
      <point x="623" y="279" type="line" smooth="yes"/>
      <point x="499" y="279"/>
      <point x="444" y="333"/>
      <point x="444" y="423" type="curve" smooth="yes"/>
      <point x="444" y="490"/>
      <point x="479" y="532"/>
      <point x="540" y="532" type="curve" smooth="yes"/>
      <point x="563" y="532"/>
      <point x="581" y="526"/>
      <point x="595" y="515" type="curve" smooth="yes"/>
      <point x="626" y="491"/>
      <point x="636" y="445"/>
      <point x="636" y="372" type="curve" smooth="yes"/>
    </contour>
    <contour>
      <point x="538" y="558" type="curve" smooth="yes"/>
      <point x="462" y="558"/>
      <point x="417" y="497"/>
      <point x="417" y="423" type="curve" smooth="yes"/>
      <point x="417" y="313"/>
      <point x="492" y="253"/>
      <point x="628" y="253" type="curve" smooth="yes"/>
      <point x="640" y="253" type="line" smooth="yes"/>
      <point x="796" y="253"/>
      <point x="900" y="350"/>
      <point x="969" y="505" type="curve"/>
      <point x="964" y="502" type="line"/>
      <point x="962" y="471"/>
      <point x="962" y="428"/>
      <point x="962" y="400" type="curve" smooth="yes"/>
      <point x="962" y="26" type="line"/>
      <point x="662" y="26" type="line"/>
      <point x="662" y="383" type="line" smooth="yes"/>
      <point x="662" y="463"/>
      <point x="647" y="509"/>
      <point x="607" y="538" type="curve" smooth="yes"/>
      <point x="589" y="551"/>
      <point x="565" y="558"/>
    </contour>
  </outline>
</glyph>
<glyph name="samlym" format="2">
  <advance width="1141"/>
  <unicode hex="0D38"/>
  <outline>
    <contour>
      <point x="576" y="558" type="curve" smooth="yes"/>
      <point x="488" y="558"/>
      <point x="430" y="502"/>
      <point x="420" y="403" type="curve"/>
      <point x="426" y="402" type="line"/>
      <point x="409" y="499"/>
      <point x="356" y="558"/>
      <point x="256" y="558" type="curve" smooth="yes"/>
      <point x="116" y="558"/>
      <point x="45" y="434"/>
      <point x="45" y="291" type="curve" smooth="yes"/>
      <point x="45" y="134"/>
      <point x="108" y="62"/>
      <point x="190" y="-6" type="curve"/>
      <point x="205" y="15" type="line"/>
      <point x="128" y="79"/>
      <point x="72" y="149"/>
      <point x="72" y="291" type="curve" smooth="yes"/>
      <point x="72" y="412"/>
      <point x="127" y="532"/>
      <point x="253" y="532" type="curve" smooth="yes"/>
      <point x="303" y="532"/>
      <point x="332" y="519"/>
      <point x="356" y="497" type="curve" smooth="yes"/>
      <point x="397" y="459"/>
      <point x="410" y="398"/>
      <point x="410" y="311" type="curve" smooth="yes"/>
      <point x="410" y="0" type="line"/>
      <point x="436" y="0" type="line"/>
      <point x="436" y="324" type="line" smooth="yes"/>
      <point x="436" y="410"/>
      <point x="451" y="467"/>
      <point x="489" y="501" type="curve" smooth="yes"/>
      <point x="511" y="521"/>
      <point x="538" y="532"/>
      <point x="576" y="532" type="curve" smooth="yes"/>
      <point x="625" y="532"/>
      <point x="657" y="516"/>
      <point x="679" y="488" type="curve" smooth="yes"/>
      <point x="708" y="451"/>
      <point x="720" y="399"/>
      <point x="720" y="291" type="curve" smooth="yes"/>
      <point x="720" y="255" type="line" smooth="yes"/>
      <point x="720" y="140"/>
      <point x="731" y="85"/>
      <point x="771" y="38" type="curve" smooth="yes"/>
      <point x="798" y="6"/>
      <point x="839" y="-12"/>
      <point x="896" y="-12" type="curve" smooth="yes"/>
      <point x="1020" y="-12"/>
      <point x="1096" y="91"/>
      <point x="1096" y="258" type="curve" smooth="yes"/>
      <point x="1096" y="407"/>
      <point x="1033" y="486"/>
      <point x="951" y="554" type="curve"/>
      <point x="936" y="533" type="line"/>
      <point x="1013" y="469"/>
      <point x="1069" y="398"/>
      <point x="1069" y="257" type="curve" smooth="yes"/>
      <point x="1069" y="97"/>
      <point x="999" y="14"/>
      <point x="897" y="14" type="curve" smooth="yes"/>
      <point x="840" y="14"/>
      <point x="809" y="31"/>
      <point x="786" y="60" type="curve" smooth="yes"/>
      <point x="752" y="104"/>
      <point x="746" y="166"/>
      <point x="746" y="273" type="curve" smooth="yes"/>
      <point x="746" y="312" type="line" smooth="yes"/>
      <point x="746" y="417"/>
      <point x="731" y="469"/>
      <point x="694" y="510" type="curve" smooth="yes"/>
      <point x="666" y="541"/>
      <point x="628" y="558"/>
    </contour>
  </outline>
</glyph>
<glyph name="hamlym" format="2">
  <advance width="1113"/>
  <unicode hex="0D39"/>
  <outline>
    <contour>
      <point x="201" y="327" type="curve" smooth="yes"/>
      <point x="104" y="327"/>
      <point x="38" y="250"/>
      <point x="38" y="159" type="curve" smooth="yes"/>
      <point x="38" y="80"/>
      <point x="69" y="39"/>
      <point x="123" y="-8" type="curve"/>
      <point x="139" y="13" type="line"/>
      <point x="90" y="52"/>
      <point x="65" y="92"/>
      <point x="65" y="159" type="curve" smooth="yes"/>
      <point x="65" y="234"/>
      <point x="115" y="301"/>
      <point x="201" y="301" type="curve" smooth="yes"/>
      <point x="284" y="301"/>
      <point x="338" y="245"/>
      <point x="338" y="157" type="curve" smooth="yes"/>
      <point x="338" y="105"/>
      <point x="321" y="64"/>
      <point x="279" y="21" type="curve"/>
      <point x="291" y="0" type="line"/>
      <point x="670" y="0" type="line"/>
      <point x="657" y="26" type="line"/>
      <point x="304" y="26" type="line"/>
      <point x="298" y="10" type="line"/>
      <point x="340" y="47"/>
      <point x="365" y="95"/>
      <point x="365" y="158" type="curve" smooth="yes"/>
      <point x="365" y="257"/>
      <point x="299" y="327"/>
    </contour>
    <contour>
      <point x="806" y="558" type="curve" smooth="yes"/>
      <point x="638" y="558"/>
      <point x="538" y="438"/>
      <point x="538" y="275" type="curve" smooth="yes"/>
      <point x="538" y="131"/>
      <point x="607" y="62"/>
      <point x="653" y="22" type="curve"/>
      <point x="656" y="0" type="line"/>
      <point x="678" y="0" type="line"/>
      <point x="690" y="21" type="line"/>
      <point x="612" y="80"/>
      <point x="565" y="157"/>
      <point x="565" y="276" type="curve" smooth="yes"/>
      <point x="565" y="414"/>
      <point x="643" y="532"/>
      <point x="805" y="532" type="curve" smooth="yes"/>
      <point x="967" y="532"/>
      <point x="1041" y="417"/>
      <point x="1041" y="277" type="curve" smooth="yes"/>
      <point x="1041" y="141"/>
      <point x="979" y="67"/>
      <point x="905" y="13" type="curve"/>
      <point x="920" y="-8" type="line"/>
      <point x="998" y="50"/>
      <point x="1068" y="128"/>
      <point x="1068" y="276" type="curve" smooth="yes"/>
      <point x="1068" y="440"/>
      <point x="972" y="558"/>
    </contour>
  </outline>
</glyph>
<glyph name="tttamlym" format="2">
  <advance width="736"/>
  <unicode hex="0D3A"/>
  <outline>
    <contour>
      <point x="721" y="26" type="line"/>
      <point x="52" y="26" type="line"/>
      <point x="249" y="546" type="line"/>
      <point x="224" y="554" type="line"/>
      <point x="25" y="26" type="line"/>
      <point x="44" y="0" type="line"/>
      <point x="392" y="0" type="line"/>
      <point x="392" y="-202" type="line"/>
      <point x="418" y="-202" type="line"/>
      <point x="418" y="0" type="line"/>
      <point x="721" y="0" type="line"/>
    </contour>
  </outline>
</glyph>
<glyph name="avagrahamlym" format="2">
  <advance width="416"/>
  <unicode hex="0D3D"/>
  <outline>
    <contour>
      <point x="351" y="784" type="curve" smooth="yes"/>
      <point x="305" y="784"/>
      <point x="268" y="766"/>
      <point x="242" y="736" type="curve" smooth="yes"/>
      <point x="208" y="696"/>
      <point x="195" y="645"/>
      <point x="195" y="541" type="curve" smooth="yes"/>
      <point x="195" y="13" type="line" smooth="yes"/>
      <point x="195" y="-87"/>
      <point x="186" y="-144"/>
      <point x="152" y="-182" type="curve" smooth="yes"/>
      <point x="132" y="-204"/>
      <point x="105" y="-218"/>
      <point x="65" y="-218" type="curve" smooth="yes"/>
      <point x="-7" y="-218"/>
      <point x="-33" y="-165"/>
      <point x="-55" y="-103" type="curve"/>
      <point x="-81" y="-108" type="line"/>
      <point x="-58" y="-188"/>
      <point x="-14" y="-244"/>
      <point x="65" y="-244" type="curve" smooth="yes"/>
      <point x="111" y="-244"/>
      <point x="148" y="-226"/>
      <point x="174" y="-196" type="curve" smooth="yes"/>
      <point x="208" y="-156"/>
      <point x="221" y="-105"/>
      <point x="221" y="-1" type="curve" smooth="yes"/>
      <point x="221" y="527" type="line" smooth="yes"/>
      <point x="221" y="627"/>
      <point x="230" y="684"/>
      <point x="264" y="722" type="curve" smooth="yes"/>
      <point x="284" y="744"/>
      <point x="311" y="758"/>
      <point x="351" y="758" type="curve" smooth="yes"/>
      <point x="423" y="758"/>
      <point x="449" y="705"/>
      <point x="471" y="643" type="curve"/>
      <point x="497" y="648" type="line"/>
      <point x="474" y="728"/>
      <point x="430" y="784"/>
    </contour>
  </outline>
</glyph>
<glyph name="aavowelsignmlym" format="2">
  <advance width="450"/>
  <unicode hex="0D3E"/>
  <outline>
    <contour>
      <point x="403" y="275" type="curve" smooth="yes"/>
      <point x="403" y="425"/>
      <point x="348" y="558"/>
      <point x="211" y="558" type="curve" smooth="yes"/>
      <point x="111" y="558"/>
      <point x="54" y="482"/>
      <point x="27" y="388" type="curve"/>
      <point x="53" y="382" type="line"/>
      <point x="79" y="465"/>
      <point x="121" y="532"/>
      <point x="211" y="532" type="curve" smooth="yes"/>
      <point x="324" y="532"/>
      <point x="376" y="426"/>
      <point x="376" y="275" type="curve" smooth="yes"/>
      <point x="376" y="120"/>
      <point x="329" y="14"/>
      <point x="205" y="14" type="curve" smooth="yes"/>
      <point x="112" y="14"/>
      <point x="72" y="76"/>
      <point x="50" y="166" type="curve"/>
      <point x="24" y="160" type="line"/>
      <point x="48" y="61"/>
      <point x="97" y="-12"/>
      <point x="206" y="-12" type="curve" smooth="yes"/>
      <point x="343" y="-12"/>
      <point x="403" y="106"/>
    </contour>
  </outline>
</glyph>
<glyph name="ivowelsignmlym" format="2">
  <advance width="184"/>
  <unicode hex="0D3F"/>
  <outline>
    <contour>
      <point x="-56" y="843" type="curve" smooth="yes"/>
      <point x="-145" y="843"/>
      <point x="-197" y="781"/>
      <point x="-197" y="694" type="curve" smooth="yes"/>
      <point x="-197" y="671"/>
      <point x="-193" y="649"/>
      <point x="-190" y="632" type="curve"/>
      <point x="-164" y="636" type="line"/>
      <point x="-167" y="652"/>
      <point x="-170" y="672"/>
      <point x="-170" y="694" type="curve" smooth="yes"/>
      <point x="-170" y="774"/>
      <point x="-127" y="817"/>
      <point x="-56" y="817" type="curve" smooth="yes"/>
      <point x="-16" y="817"/>
      <point x="10" y="805"/>
      <point x="30" y="784" type="curve" smooth="yes"/>
      <point x="76" y="738"/>
      <point x="79" y="652"/>
      <point x="79" y="565" type="curve" smooth="yes"/>
      <point x="79" y="0" type="line"/>
      <point x="105" y="0" type="line"/>
      <point x="105" y="583" type="line" smooth="yes"/>
      <point x="105" y="709"/>
      <point x="88" y="765"/>
      <point x="42" y="808" type="curve" smooth="yes"/>
      <point x="17" y="831"/>
      <point x="-17" y="843"/>
    </contour>
  </outline>
</glyph>
<glyph name="iivowelsignmlym" format="2">
  <advance width="184"/>
  <unicode hex="0D40"/>
  <outline>
    <contour>
      <point x="-110" y="843" type="curve" smooth="yes"/>
      <point x="-204" y="843"/>
      <point x="-266" y="792"/>
      <point x="-266" y="714" type="curve" smooth="yes"/>
      <point x="-266" y="638"/>
      <point x="-213" y="599"/>
      <point x="-152" y="599" type="curve" smooth="yes"/>
      <point x="-72" y="599"/>
      <point x="-36" y="651"/>
      <point x="-36" y="714" type="curve" smooth="yes"/>
      <point x="-36" y="768"/>
      <point x="-58" y="801"/>
      <point x="-93" y="830" type="curve"/>
      <point x="-126" y="827" type="line"/>
      <point x="-86" y="800"/>
      <point x="-63" y="765"/>
      <point x="-63" y="714" type="curve" smooth="yes"/>
      <point x="-63" y="664"/>
      <point x="-90" y="625"/>
      <point x="-153" y="625" type="curve" smooth="yes"/>
      <point x="-210" y="625"/>
      <point x="-239" y="662"/>
      <point x="-239" y="714" type="curve" smooth="yes"/>
      <point x="-239" y="785"/>
      <point x="-180" y="818"/>
      <point x="-116" y="818" type="curve" smooth="yes"/>
      <point x="-59" y="818"/>
      <point x="-22" y="806"/>
      <point x="8" y="783" type="curve" smooth="yes"/>
      <point x="69" y="735"/>
      <point x="79" y="665"/>
      <point x="79" y="549" type="curve" smooth="yes"/>
      <point x="79" y="0" type="line"/>
      <point x="105" y="0" type="line"/>
      <point x="105" y="575" type="line" smooth="yes"/>
      <point x="105" y="691"/>
      <point x="81" y="760"/>
      <point x="20" y="805" type="curve" smooth="yes"/>
      <point x="-14" y="829"/>
      <point x="-59" y="843"/>
    </contour>
  </outline>
</glyph>
<glyph name="uvowelsignmlym" format="2">
  <advance width="295"/>
  <unicode hex="0D41"/>
  <outline>
    <contour>
      <point x="140" y="-220" type="curve" smooth="yes"/>
      <point x="234" y="-220"/>
      <point x="299" y="-155"/>
      <point x="299" y="-54" type="curve" smooth="yes"/>
      <point x="299" y="46"/>
      <point x="236" y="110"/>
      <point x="139" y="110" type="curve" smooth="yes"/>
      <point x="47" y="110"/>
      <point x="-18" y="45"/>
      <point x="-18" y="-54" type="curve" smooth="yes"/>
      <point x="-18" y="-156"/>
      <point x="45" y="-220"/>
    </contour>
    <contour>
      <point x="140" y="-194" type="curve" smooth="yes"/>
      <point x="61" y="-194"/>
      <point x="9" y="-145"/>
      <point x="9" y="-55" type="curve" smooth="yes"/>
      <point x="9" y="35"/>
      <point x="62" y="84"/>
      <point x="139" y="84" type="curve" smooth="yes"/>
      <point x="219" y="84"/>
      <point x="272" y="37"/>
      <point x="272" y="-54" type="curve" smooth="yes"/>
      <point x="272" y="-147"/>
      <point x="217" y="-194"/>
    </contour>
    <contour>
      <point x="86" y="558" type="curve" smooth="yes"/>
      <point x="62" y="558"/>
      <point x="33" y="552"/>
      <point x="16" y="547" type="curve"/>
      <point x="23" y="522" type="line"/>
      <point x="42" y="528"/>
      <point x="66" y="532"/>
      <point x="85" y="532" type="curve" smooth="yes"/>
      <point x="164" y="532"/>
      <point x="189" y="486"/>
      <point x="189" y="413" type="curve" smooth="yes"/>
      <point x="189" y="335"/>
      <point x="162" y="213"/>
      <point x="129" y="93" type="curve"/>
      <point x="154" y="87" type="line"/>
      <point x="188" y="205"/>
      <point x="216" y="328"/>
      <point x="216" y="414" type="curve" smooth="yes"/>
      <point x="216" y="493"/>
      <point x="182" y="558"/>
    </contour>
  </outline>
</glyph>
<glyph name="uuvowelsignmlym" format="2">
  <advance width="294"/>
  <unicode hex="0D42"/>
  <outline>
    <contour>
      <point x="140" y="-220" type="curve" smooth="yes"/>
      <point x="234" y="-220"/>
      <point x="299" y="-155"/>
      <point x="299" y="-54" type="curve" smooth="yes"/>
      <point x="299" y="46"/>
      <point x="236" y="110"/>
      <point x="139" y="110" type="curve" smooth="yes"/>
      <point x="47" y="110"/>
      <point x="-18" y="45"/>
      <point x="-18" y="-54" type="curve" smooth="yes"/>
      <point x="-18" y="-156"/>
      <point x="45" y="-220"/>
    </contour>
    <contour>
      <point x="139" y="84" type="curve" smooth="yes"/>
      <point x="223" y="84"/>
      <point x="272" y="46"/>
      <point x="272" y="-54" type="curve" smooth="yes"/>
      <point x="272" y="-147"/>
      <point x="217" y="-194"/>
      <point x="140" y="-194" type="curve" smooth="yes"/>
      <point x="61" y="-194"/>
      <point x="9" y="-145"/>
      <point x="9" y="-55" type="curve" smooth="yes"/>
      <point x="9" y="45"/>
      <point x="58" y="84"/>
    </contour>
    <contour>
      <point x="140" y="-85" type="curve" smooth="yes"/>
      <point x="217" y="-85"/>
      <point x="249" y="-42"/>
      <point x="249" y="12" type="curve" smooth="yes"/>
      <point x="249" y="40"/>
      <point x="233" y="62"/>
      <point x="207" y="87" type="curve"/>
      <point x="187" y="81" type="line"/>
      <point x="215" y="64"/>
      <point x="224" y="38"/>
      <point x="224" y="15" type="curve" smooth="yes"/>
      <point x="224" y="-19"/>
      <point x="205" y="-60"/>
      <point x="141" y="-60" type="curve" smooth="yes"/>
      <point x="76" y="-60"/>
      <point x="57" y="-19"/>
      <point x="57" y="15" type="curve" smooth="yes"/>
      <point x="57" y="38"/>
      <point x="66" y="64"/>
      <point x="94" y="81" type="curve"/>
      <point x="74" y="87" type="line"/>
      <point x="48" y="62"/>
      <point x="32" y="40"/>
      <point x="32" y="12" type="curve" smooth="yes"/>
      <point x="32" y="-42"/>
      <point x="64" y="-85"/>
    </contour>
    <contour>
      <point x="86" y="558" type="curve" smooth="yes"/>
      <point x="62" y="558"/>
      <point x="33" y="552"/>
      <point x="16" y="547" type="curve"/>
      <point x="23" y="522" type="line"/>
      <point x="42" y="528"/>
      <point x="66" y="532"/>
      <point x="85" y="532" type="curve" smooth="yes"/>
      <point x="164" y="532"/>
      <point x="189" y="486"/>
      <point x="189" y="413" type="curve" smooth="yes"/>
      <point x="189" y="335"/>
      <point x="162" y="213"/>
      <point x="129" y="93" type="curve"/>
      <point x="154" y="87" type="line"/>
      <point x="188" y="205"/>
      <point x="216" y="328"/>
      <point x="216" y="414" type="curve" smooth="yes"/>
      <point x="216" y="493"/>
      <point x="182" y="558"/>
    </contour>
  </outline>
</glyph>
<glyph name="rvocalicvowelsignmlym" format="2">
  <advance width="188"/>
  <unicode hex="0D43"/>
  <outline>
    <contour>
      <point x="14" y="-298" type="curve" smooth="yes"/>
      <point x="111" y="-298"/>
      <point x="186" y="-239"/>
      <point x="186" y="-126" type="curve" smooth="yes"/>
      <point x="186" y="-57"/>
      <point x="170" y="3"/>
      <point x="126" y="104" type="curve" smooth="yes"/>
      <point x="97" y="170"/>
      <point x="77" y="220"/>
      <point x="77" y="298" type="curve" smooth="yes"/>
      <point x="77" y="382"/>
      <point x="98" y="450"/>
      <point x="155" y="546" type="curve"/>
      <point x="124" y="546" type="line"/>
      <point x="76" y="460"/>
      <point x="50" y="387"/>
      <point x="50" y="297" type="curve" smooth="yes"/>
      <point x="50" y="227"/>
      <point x="66" y="172"/>
      <point x="101" y="94" type="curve" smooth="yes"/>
      <point x="146" y="-7"/>
      <point x="161" y="-60"/>
      <point x="161" y="-125" type="curve" smooth="yes"/>
      <point x="161" y="-221"/>
      <point x="99" y="-272"/>
      <point x="13" y="-272" type="curve" smooth="yes"/>
      <point x="-60" y="-272"/>
      <point x="-104" y="-234"/>
      <point x="-104" y="-169" type="curve" smooth="yes"/>
      <point x="-104" y="-105"/>
      <point x="-58" y="-70"/>
      <point x="9" y="-70" type="curve" smooth="yes"/>
      <point x="65" y="-70"/>
      <point x="119" y="-91"/>
      <point x="178" y="-152" type="curve"/>
      <point x="182" y="-124" type="line"/>
      <point x="134" y="-77"/>
      <point x="85" y="-44"/>
      <point x="9" y="-44" type="curve" smooth="yes"/>
      <point x="-70" y="-44"/>
      <point x="-132" y="-93"/>
      <point x="-132" y="-169" type="curve" smooth="yes"/>
      <point x="-132" y="-245"/>
      <point x="-76" y="-298"/>
    </contour>
  </outline>
</glyph>
<glyph name="rrvocalicvowelsignmlym" format="2">
  <advance width="188"/>
  <unicode hex="0D44"/>
  <outline>
    <contour>
      <point x="-34" y="-298" type="curve" smooth="yes"/>
      <point x="101" y="-298"/>
      <point x="185" y="-255"/>
      <point x="185" y="-127" type="curve" smooth="yes"/>
      <point x="185" y="-54"/>
      <point x="170" y="3"/>
      <point x="126" y="104" type="curve" smooth="yes"/>
      <point x="97" y="170"/>
      <point x="77" y="220"/>
      <point x="77" y="298" type="curve" smooth="yes"/>
      <point x="77" y="382"/>
      <point x="98" y="450"/>
      <point x="155" y="546" type="curve"/>
      <point x="124" y="546" type="line"/>
      <point x="76" y="460"/>
      <point x="50" y="387"/>
      <point x="50" y="297" type="curve" smooth="yes"/>
      <point x="50" y="227"/>
      <point x="66" y="172"/>
      <point x="101" y="94" type="curve" smooth="yes"/>
      <point x="146" y="-7"/>
      <point x="159" y="-58"/>
      <point x="159" y="-124" type="curve" smooth="yes"/>
      <point x="159" y="-234"/>
      <point x="98" y="-272"/>
      <point x="-33" y="-272" type="curve" smooth="yes"/>
      <point x="-153" y="-272"/>
      <point x="-213" y="-235"/>
      <point x="-213" y="-154" type="curve" smooth="yes"/>
      <point x="-213" y="-108"/>
      <point x="-189" y="-74"/>
      <point x="-144" y="-74" type="curve" smooth="yes"/>
      <point x="-95" y="-74"/>
      <point x="-78" y="-114"/>
      <point x="-78" y="-161" type="curve" smooth="yes"/>
      <point x="-78" y="-174" type="line"/>
      <point x="-52" y="-174" type="line"/>
      <point x="-52" y="-161" type="line" smooth="yes"/>
      <point x="-52" y="-111"/>
      <point x="-33" y="-74"/>
      <point x="14" y="-74" type="curve" smooth="yes"/>
      <point x="61" y="-74"/>
      <point x="78" y="-112"/>
      <point x="78" y="-160" type="curve" smooth="yes"/>
      <point x="78" y="-174" type="line"/>
      <point x="104" y="-174" type="line"/>
      <point x="104" y="-157" type="line" smooth="yes"/>
      <point x="104" y="-110"/>
      <point x="83" y="-48"/>
      <point x="14" y="-48" type="curve" smooth="yes"/>
      <point x="-30" y="-48"/>
      <point x="-58" y="-77"/>
      <point x="-68" y="-119" type="curve"/>
      <point x="-62" y="-123" type="line"/>
      <point x="-72" y="-80"/>
      <point x="-95" y="-48"/>
      <point x="-145" y="-48" type="curve" smooth="yes"/>
      <point x="-205" y="-48"/>
      <point x="-239" y="-97"/>
      <point x="-239" y="-154" type="curve" smooth="yes"/>
      <point x="-239" y="-259"/>
      <point x="-153" y="-298"/>
    </contour>
  </outline>
</glyph>
<glyph name="evowelsignmlym" format="2">
  <advance width="659"/>
  <unicode hex="0D46"/>
  <outline>
    <contour>
      <point x="216" y="-12" type="curve" smooth="yes"/>
      <point x="292" y="-12"/>
      <point x="355" y="39"/>
      <point x="355" y="149" type="curve" smooth="yes"/>
      <point x="355" y="250"/>
      <point x="287" y="302"/>
      <point x="208" y="302" type="curve" smooth="yes"/>
      <point x="155" y="302"/>
      <point x="96" y="280"/>
      <point x="50" y="229" type="curve"/>
      <point x="55" y="203" type="line"/>
      <point x="86" y="238"/>
      <point x="144" y="276"/>
      <point x="207" y="276" type="curve" smooth="yes"/>
      <point x="290" y="276"/>
      <point x="328" y="219"/>
      <point x="328" y="149" type="curve" smooth="yes"/>
      <point x="328" y="49"/>
      <point x="276" y="14"/>
      <point x="215" y="14" type="curve" smooth="yes"/>
      <point x="127" y="14"/>
      <point x="71" y="79"/>
      <point x="71" y="226" type="curve" smooth="yes"/>
      <point x="71" y="411"/>
      <point x="196" y="532"/>
      <point x="343" y="532" type="curve" smooth="yes"/>
      <point x="512" y="532"/>
      <point x="586" y="417"/>
      <point x="586" y="277" type="curve" smooth="yes"/>
      <point x="586" y="141"/>
      <point x="524" y="67"/>
      <point x="450" y="13" type="curve"/>
      <point x="465" y="-8" type="line"/>
      <point x="543" y="50"/>
      <point x="613" y="128"/>
      <point x="613" y="276" type="curve" smooth="yes"/>
      <point x="613" y="440"/>
      <point x="517" y="558"/>
      <point x="343" y="558" type="curve" smooth="yes"/>
      <point x="190" y="558"/>
      <point x="45" y="435"/>
      <point x="45" y="225" type="curve" smooth="yes"/>
      <point x="45" y="53"/>
      <point x="121" y="-12"/>
    </contour>
  </outline>
</glyph>
<glyph name="eevowelsignmlym" format="2">
  <advance width="538"/>
  <unicode hex="0D47"/>
  <outline>
    <contour>
      <point x="336" y="-12" type="curve" smooth="yes"/>
      <point x="434" y="-12"/>
      <point x="496" y="39"/>
      <point x="496" y="117" type="curve" smooth="yes"/>
      <point x="496" y="193"/>
      <point x="443" y="232"/>
      <point x="382" y="232" type="curve" smooth="yes"/>
      <point x="305" y="232"/>
      <point x="266" y="175"/>
      <point x="266" y="117" type="curve" smooth="yes"/>
      <point x="266" y="72"/>
      <point x="285" y="35"/>
      <point x="314" y="6" type="curve"/>
      <point x="347" y="7" type="line"/>
      <point x="314" y="36"/>
      <point x="293" y="71"/>
      <point x="293" y="117" type="curve" smooth="yes"/>
      <point x="293" y="162"/>
      <point x="320" y="206"/>
      <point x="383" y="206" type="curve" smooth="yes"/>
      <point x="440" y="206"/>
      <point x="469" y="169"/>
      <point x="469" y="117" type="curve" smooth="yes"/>
      <point x="469" y="47"/>
      <point x="410" y="14"/>
      <point x="346" y="14" type="curve" smooth="yes"/>
      <point x="329" y="14"/>
      <point x="323" y="14"/>
      <point x="308" y="14" type="curve"/>
      <point x="158" y="33"/>
      <point x="71" y="115"/>
      <point x="71" y="276" type="curve" smooth="yes"/>
      <point x="71" y="436"/>
      <point x="185" y="529"/>
      <point x="320" y="532" type="curve" smooth="yes"/>
      <point x="331" y="532"/>
      <point x="339" y="532"/>
      <point x="346" y="532" type="curve" smooth="yes"/>
      <point x="419" y="532"/>
      <point x="473" y="498"/>
      <point x="473" y="431" type="curve" smooth="yes"/>
      <point x="473" y="373"/>
      <point x="446" y="338"/>
      <point x="391" y="338" type="curve" smooth="yes"/>
      <point x="326" y="338"/>
      <point x="299" y="375"/>
      <point x="299" y="433" type="curve" smooth="yes"/>
      <point x="299" y="478"/>
      <point x="322" y="517"/>
      <point x="357" y="544" type="curve"/>
      <point x="326" y="547" type="line"/>
      <point x="291" y="516"/>
      <point x="272" y="480"/>
      <point x="272" y="433" type="curve" smooth="yes"/>
      <point x="272" y="365"/>
      <point x="309" y="312"/>
      <point x="392" y="312" type="curve" smooth="yes"/>
      <point x="452" y="312"/>
      <point x="500" y="352"/>
      <point x="500" y="431" type="curve" smooth="yes"/>
      <point x="500" y="504"/>
      <point x="446" y="558"/>
      <point x="335" y="558" type="curve" smooth="yes"/>
      <point x="197" y="558"/>
      <point x="44" y="472"/>
      <point x="44" y="276" type="curve" smooth="yes"/>
      <point x="44" y="75"/>
      <point x="182" y="-12"/>
    </contour>
  </outline>
</glyph>
<glyph name="viramamlym" format="2">
  <unicode hex="0D4D"/>
  <outline>
    <contour>
      <point x="-106" y="601" type="curve" smooth="yes"/>
      <point x="-14" y="601"/>
      <point x="52" y="649"/>
      <point x="52" y="750" type="curve" smooth="yes"/>
      <point x="52" y="767"/>
      <point x="48" y="790"/>
      <point x="44" y="805" type="curve"/>
      <point x="18" y="800" type="line"/>
      <point x="23" y="784"/>
      <point x="26" y="767"/>
      <point x="26" y="749" type="curve" smooth="yes"/>
      <point x="26" y="657"/>
      <point x="-33" y="627"/>
      <point x="-106" y="627" type="curve" smooth="yes"/>
      <point x="-176" y="627"/>
      <point x="-230" y="655"/>
      <point x="-230" y="751" type="curve" smooth="yes"/>
      <point x="-230" y="767"/>
      <point x="-228" y="784"/>
      <point x="-224" y="800" type="curve"/>
      <point x="-250" y="805" type="line"/>
      <point x="-254" y="787"/>
      <point x="-256" y="764"/>
      <point x="-256" y="751" type="curve" smooth="yes"/>
      <point x="-256" y="649"/>
      <point x="-197" y="601"/>
    </contour>
  </outline>
</glyph>
<glyph name="rephmlym" format="2">
  <unicode hex="0D4E"/>
  <outline>
    <contour>
      <point x="-261" y="796" type="line"/>
      <point x="-295" y="796" type="line"/>
      <point x="-290" y="624" type="line"/>
      <point x="-266" y="624" type="line"/>
    </contour>
  </outline>
</glyph>
<glyph name="uni0D4F" format="2">
  <advance width="1154"/>
  <unicode hex="0D4F"/>
  <outline>
    <contour>
      <point x="533" y="558" type="curve" smooth="yes"/>
      <point x="361" y="558"/>
      <point x="251" y="422"/>
      <point x="251" y="225" type="curve" smooth="yes"/>
      <point x="251" y="53"/>
      <point x="327" y="-12"/>
      <point x="421" y="-12" type="curve" smooth="yes"/>
      <point x="498" y="-12"/>
      <point x="561" y="39"/>
      <point x="561" y="149" type="curve" smooth="yes"/>
      <point x="561" y="250"/>
      <point x="493" y="302"/>
      <point x="414" y="302" type="curve" smooth="yes"/>
      <point x="361" y="302"/>
      <point x="302" y="280"/>
      <point x="256" y="229" type="curve"/>
      <point x="261" y="203" type="line"/>
      <point x="292" y="238"/>
      <point x="350" y="276"/>
      <point x="413" y="276" type="curve" smooth="yes"/>
      <point x="496" y="276"/>
      <point x="534" y="219"/>
      <point x="534" y="149" type="curve" smooth="yes"/>
      <point x="534" y="49"/>
      <point x="482" y="14"/>
      <point x="421" y="14" type="curve" smooth="yes"/>
      <point x="333" y="14"/>
      <point x="277" y="79"/>
      <point x="277" y="226" type="curve" smooth="yes"/>
      <point x="277" y="232" type="line" smooth="yes"/>
      <point x="277" y="403"/>
      <point x="373" y="532"/>
      <point x="532" y="532" type="curve" smooth="yes"/>
      <point x="584" y="532"/>
      <point x="616" y="522"/>
      <point x="648" y="498" type="curve" smooth="yes"/>
      <point x="691" y="465"/>
      <point x="719" y="414"/>
      <point x="719" y="312" type="curve" smooth="yes"/>
      <point x="719" y="0" type="line"/>
      <point x="745" y="0" type="line"/>
      <point x="745" y="311" type="line" smooth="yes"/>
      <point x="745" y="398"/>
      <point x="758" y="459"/>
      <point x="799" y="497" type="curve" smooth="yes"/>
      <point x="823" y="519"/>
      <point x="852" y="532"/>
      <point x="902" y="532" type="curve" smooth="yes"/>
      <point x="1028" y="532"/>
      <point x="1078" y="394"/>
      <point x="1078" y="241" type="curve" smooth="yes"/>
      <point x="1078" y="-62"/>
      <point x="925" y="-197"/>
      <point x="583" y="-197" type="curve" smooth="yes"/>
      <point x="163" y="-197"/>
      <point x="79" y="39"/>
      <point x="79" y="230" type="curve" smooth="yes"/>
      <point x="79" y="325"/>
      <point x="106" y="422"/>
      <point x="153" y="515" type="curve"/>
      <point x="129" y="526" type="line"/>
      <point x="81" y="427"/>
      <point x="52" y="336"/>
      <point x="52" y="230" type="curve" smooth="yes"/>
      <point x="52" y="21"/>
      <point x="156" y="-223"/>
      <point x="579" y="-223" type="curve" smooth="yes"/>
      <point x="955" y="-223"/>
      <point x="1105" y="-65"/>
      <point x="1105" y="245" type="curve" smooth="yes"/>
      <point x="1105" y="421"/>
      <point x="1039" y="558"/>
      <point x="899" y="558" type="curve" smooth="yes"/>
      <point x="799" y="558"/>
      <point x="745" y="499"/>
      <point x="727" y="402" type="curve"/>
      <point x="733" y="404" type="line"/>
      <point x="712" y="497"/>
      <point x="650" y="558"/>
    </contour>
  </outline>
</glyph>
<glyph name="machillumlym" format="2">
  <advance width="588"/>
  <unicode hex="0D54"/>
  <outline>
    <contour>
      <point x="148" y="792" type="curve" smooth="yes"/>
      <point x="121" y="792"/>
      <point x="91" y="788"/>
      <point x="66" y="781" type="curve"/>
      <point x="73" y="756" type="line"/>
      <point x="95" y="763"/>
      <point x="120" y="766"/>
      <point x="148" y="766" type="curve" smooth="yes"/>
      <point x="180" y="766"/>
      <point x="201" y="758"/>
      <point x="217" y="746" type="curve" smooth="yes"/>
      <point x="241" y="727"/>
      <point x="251" y="700"/>
      <point x="251" y="637" type="curve" smooth="yes"/>
      <point x="251" y="484" type="line" smooth="yes"/>
      <point x="251" y="365"/>
      <point x="272" y="289"/>
      <point x="339" y="204" type="curve"/>
      <point x="346" y="196" type="line"/>
      <point x="398" y="141"/>
      <point x="462" y="85"/>
      <point x="546" y="21" type="curve"/>
      <point x="565" y="23" type="line"/>
      <point x="536" y="26"/>
      <point x="497" y="26"/>
      <point x="455" y="26" type="curve" smooth="yes"/>
      <point x="264" y="26" type="line" smooth="yes"/>
      <point x="204" y="26"/>
      <point x="167" y="25"/>
      <point x="128" y="22" type="curve"/>
      <point x="131" y="12" type="line"/>
      <point x="215" y="71"/>
      <point x="297" y="131"/>
      <point x="356" y="194" type="curve"/>
      <point x="363" y="202" type="line"/>
      <point x="419" y="261"/>
      <point x="451" y="323"/>
      <point x="451" y="391" type="curve" smooth="yes"/>
      <point x="451" y="470"/>
      <point x="405" y="558"/>
      <point x="283" y="558" type="curve" smooth="yes"/>
      <point x="213" y="558"/>
      <point x="157" y="523"/>
      <point x="123" y="475" type="curve" smooth="yes"/>
      <point x="79" y="412"/>
      <point x="65" y="339"/>
      <point x="65" y="245" type="curve" smooth="yes"/>
      <point x="65" y="0" type="line"/>
      <point x="564" y="0" type="line"/>
      <point x="577" y="25" type="line"/>
      <point x="477" y="104"/>
      <point x="411" y="163"/>
      <point x="364" y="214" type="curve"/>
      <point x="357" y="221" type="line"/>
      <point x="289" y="306"/>
      <point x="277" y="381"/>
      <point x="277" y="493" type="curve" smooth="yes"/>
      <point x="277" y="642" type="line" smooth="yes"/>
      <point x="277" y="708"/>
      <point x="264" y="742"/>
      <point x="233" y="766" type="curve" smooth="yes"/>
      <point x="213" y="782"/>
      <point x="185" y="792"/>
    </contour>
    <contour>
      <point x="91" y="26" type="line"/>
      <point x="91" y="237" type="line" smooth="yes"/>
      <point x="91" y="344"/>
      <point x="108" y="410"/>
      <point x="146" y="463" type="curve" smooth="yes"/>
      <point x="174" y="502"/>
      <point x="224" y="533"/>
      <point x="283" y="533" type="curve" smooth="yes"/>
      <point x="385" y="533"/>
      <point x="424" y="462"/>
      <point x="424" y="391" type="curve" smooth="yes"/>
      <point x="424" y="329"/>
      <point x="395" y="274"/>
      <point x="346" y="220" type="curve"/>
      <point x="340" y="214" type="line"/>
      <point x="284" y="155"/>
      <point x="204" y="95"/>
      <point x="108" y="26" type="curve"/>
    </contour>
  </outline>
</glyph>
<glyph name="yachillumlym" format="2">
  <advance width="953"/>
  <unicode hex="0D55"/>
  <outline>
    <contour>
      <point x="639" y="-12" type="curve" smooth="yes"/>
      <point x="834" y="-12"/>
      <point x="908" y="100"/>
      <point x="908" y="248" type="curve" smooth="yes"/>
      <point x="908" y="348"/>
      <point x="864" y="424"/>
      <point x="806" y="500" type="curve" smooth="yes"/>
      <point x="745" y="580"/>
      <point x="722" y="617"/>
      <point x="722" y="665" type="curve" smooth="yes"/>
      <point x="722" y="720"/>
      <point x="754" y="766"/>
      <point x="828" y="766" type="curve" smooth="yes"/>
      <point x="856" y="766"/>
      <point x="882" y="761"/>
      <point x="910" y="752" type="curve"/>
      <point x="918" y="777" type="line"/>
      <point x="890" y="786"/>
      <point x="858" y="792"/>
      <point x="829" y="792" type="curve" smooth="yes"/>
      <point x="733" y="792"/>
      <point x="695" y="725"/>
      <point x="695" y="665" type="curve" smooth="yes"/>
      <point x="695" y="609"/>
      <point x="726" y="562"/>
      <point x="784" y="486" type="curve" smooth="yes"/>
      <point x="846" y="405"/>
      <point x="881" y="334"/>
      <point x="881" y="248" type="curve" smooth="yes"/>
      <point x="881" y="117"/>
      <point x="824" y="14"/>
      <point x="637" y="14" type="curve" smooth="yes"/>
      <point x="585" y="14"/>
      <point x="543" y="23"/>
      <point x="508" y="39" type="curve"/>
      <point x="503" y="41"/>
      <point x="499" y="44"/>
      <point x="494" y="46" type="curve"/>
      <point x="396" y="99"/>
      <point x="341" y="212"/>
      <point x="341" y="333" type="curve" smooth="yes"/>
      <point x="341" y="452"/>
      <point x="396" y="532"/>
      <point x="489" y="532" type="curve" smooth="yes"/>
      <point x="575" y="532"/>
      <point x="639" y="475"/>
      <point x="639" y="335" type="curve" smooth="yes"/>
      <point x="639" y="208"/>
      <point x="586" y="96"/>
      <point x="483" y="45" type="curve"/>
      <point x="478" y="43"/>
      <point x="474" y="40"/>
      <point x="469" y="38" type="curve"/>
      <point x="433" y="22"/>
      <point x="397" y="14"/>
      <point x="340" y="14" type="curve" smooth="yes"/>
      <point x="164" y="14"/>
      <point x="72" y="153"/>
      <point x="72" y="328" type="curve" smooth="yes"/>
      <point x="72" y="469"/>
      <point x="149" y="532"/>
      <point x="235" y="532" type="curve" smooth="yes"/>
      <point x="296" y="532"/>
      <point x="332" y="504"/>
      <point x="363" y="471" type="curve"/>
      <point x="380" y="489" type="line"/>
      <point x="349" y="522"/>
      <point x="308" y="558"/>
      <point x="234" y="558" type="curve" smooth="yes"/>
      <point x="136" y="558"/>
      <point x="45" y="482"/>
      <point x="45" y="330" type="curve" smooth="yes"/>
      <point x="45" y="138"/>
      <point x="150" y="-12"/>
      <point x="339" y="-12" type="curve" smooth="yes"/>
      <point x="405" y="-12"/>
      <point x="450" y="0"/>
      <point x="493" y="23" type="curve"/>
      <point x="497" y="25"/>
      <point x="501" y="28"/>
      <point x="505" y="30" type="curve"/>
      <point x="608" y="87"/>
      <point x="666" y="195"/>
      <point x="666" y="336" type="curve" smooth="yes"/>
      <point x="666" y="475"/>
      <point x="599" y="558"/>
      <point x="489" y="558" type="curve" smooth="yes"/>
      <point x="433" y="558"/>
      <point x="390" y="533"/>
      <point x="361" y="494" type="curve" smooth="yes"/>
      <point x="356" y="487" type="line" smooth="yes"/>
      <point x="328" y="446"/>
      <point x="314" y="392"/>
      <point x="314" y="334" type="curve" smooth="yes"/>
      <point x="314" y="199"/>
      <point x="374" y="89"/>
      <point x="473" y="30" type="curve"/>
      <point x="476" y="28"/>
      <point x="480" y="26"/>
      <point x="483" y="24" type="curve"/>
      <point x="526" y="0"/>
      <point x="574" y="-12"/>
    </contour>
  </outline>
</glyph>
<glyph name="lllachillumlym" format="2">
  <advance width="616"/>
  <unicode hex="0D56"/>
  <outline>
    <contour>
      <point x="131" y="150" type="curve" smooth="yes"/>
      <point x="131" y="216"/>
      <point x="164" y="288"/>
      <point x="238" y="418" type="curve" smooth="yes"/>
      <point x="312" y="548"/>
      <point x="326" y="604"/>
      <point x="326" y="664" type="curve" smooth="yes"/>
      <point x="326" y="734"/>
      <point x="288" y="792"/>
      <point x="196" y="792" type="curve" smooth="yes"/>
      <point x="161" y="792"/>
      <point x="126" y="786"/>
      <point x="103" y="780" type="curve"/>
      <point x="110" y="755" type="line"/>
      <point x="133" y="762"/>
      <point x="160" y="766"/>
      <point x="196" y="766" type="curve" smooth="yes"/>
      <point x="269" y="766"/>
      <point x="299" y="726"/>
      <point x="299" y="664" type="curve" smooth="yes"/>
      <point x="299" y="608"/>
      <point x="287" y="562"/>
      <point x="215" y="431" type="curve" smooth="yes"/>
      <point x="148" y="310"/>
      <point x="104" y="227"/>
      <point x="104" y="150" type="curve" smooth="yes"/>
      <point x="104" y="56"/>
      <point x="151" y="-12"/>
      <point x="261" y="-12" type="curve" smooth="yes"/>
      <point x="364" y="-12"/>
      <point x="394" y="54"/>
      <point x="394" y="114" type="curve" smooth="yes"/>
      <point x="394" y="214"/>
      <point x="309" y="300"/>
      <point x="309" y="410" type="curve" smooth="yes"/>
      <point x="309" y="473"/>
      <point x="347" y="532"/>
      <point x="428" y="532" type="curve" smooth="yes"/>
      <point x="512" y="532"/>
      <point x="547" y="476"/>
      <point x="547" y="399" type="curve" smooth="yes"/>
      <point x="547" y="289"/>
      <point x="477" y="195"/>
      <point x="311" y="195" type="curve" smooth="yes"/>
      <point x="303" y="195" type="line" smooth="yes"/>
      <point x="235" y="195"/>
      <point x="180" y="209"/>
      <point x="139" y="239" type="curve"/>
      <point x="131" y="244" type="line"/>
      <point x="91" y="279"/>
      <point x="69" y="329"/>
      <point x="69" y="400" type="curve" smooth="yes"/>
      <point x="69" y="449"/>
      <point x="81" y="495"/>
      <point x="110" y="544" type="curve"/>
      <point x="87" y="557" type="line"/>
      <point x="57" y="506"/>
      <point x="42" y="455"/>
      <point x="42" y="399" type="curve" smooth="yes"/>
      <point x="42" y="317"/>
      <point x="71" y="258"/>
      <point x="121" y="220" type="curve"/>
      <point x="133" y="212" type="line"/>
      <point x="178" y="183"/>
      <point x="236" y="169"/>
      <point x="304" y="169" type="curve" smooth="yes"/>
      <point x="311" y="169" type="line" smooth="yes"/>
      <point x="485" y="169"/>
      <point x="574" y="270"/>
      <point x="574" y="399" type="curve" smooth="yes"/>
      <point x="574" y="482"/>
      <point x="532" y="558"/>
      <point x="428" y="558" type="curve" smooth="yes"/>
      <point x="337" y="558"/>
      <point x="282" y="492"/>
      <point x="282" y="410" type="curve" smooth="yes"/>
      <point x="282" y="293"/>
      <point x="367" y="215"/>
      <point x="367" y="112" type="curve" smooth="yes"/>
      <point x="367" y="54"/>
      <point x="337" y="14"/>
      <point x="262" y="14" type="curve" smooth="yes"/>
      <point x="154" y="14"/>
      <point x="131" y="82"/>
    </contour>
  </outline>
</glyph>
<glyph name="aulengthmarkmlym" format="2">
  <advance width="702"/>
  <unicode hex="0D57"/>
  <outline>
    <contour>
      <point x="481" y="558" type="curve" smooth="yes"/>
      <point x="407" y="558"/>
      <point x="348" y="515"/>
      <point x="337" y="411" type="curve"/>
      <point x="346" y="415" type="line"/>
      <point x="328" y="520"/>
      <point x="275" y="558"/>
      <point x="201" y="558" type="curve" smooth="yes"/>
      <point x="98" y="558"/>
      <point x="42" y="478"/>
      <point x="42" y="377" type="curve" smooth="yes"/>
      <point x="42" y="336"/>
      <point x="50" y="290"/>
      <point x="63" y="250" type="curve"/>
      <point x="88" y="255" type="line"/>
      <point x="76" y="299"/>
      <point x="69" y="335"/>
      <point x="69" y="376" type="curve" smooth="yes"/>
      <point x="69" y="465"/>
      <point x="114" y="532"/>
      <point x="201" y="532" type="curve" smooth="yes"/>
      <point x="237" y="532"/>
      <point x="265" y="520"/>
      <point x="285" y="500" type="curve" smooth="yes"/>
      <point x="315" y="469"/>
      <point x="329" y="419"/>
      <point x="329" y="338" type="curve" smooth="yes"/>
      <point x="329" y="254" type="line"/>
      <point x="355" y="254" type="line"/>
      <point x="355" y="339" type="line" smooth="yes"/>
      <point x="355" y="403"/>
      <point x="364" y="461"/>
      <point x="394" y="496" type="curve" smooth="yes"/>
      <point x="413" y="519"/>
      <point x="440" y="532"/>
      <point x="481" y="532" type="curve" smooth="yes"/>
      <point x="571" y="532"/>
      <point x="628" y="454"/>
      <point x="628" y="300" type="curve" smooth="yes"/>
      <point x="628" y="122"/>
      <point x="576" y="14"/>
      <point x="412" y="14" type="curve" smooth="yes"/>
      <point x="346" y="14"/>
      <point x="298" y="26"/>
      <point x="241" y="55" type="curve"/>
      <point x="227" y="32" type="line"/>
      <point x="283" y="4"/>
      <point x="335" y="-12"/>
      <point x="412" y="-12" type="curve" smooth="yes"/>
      <point x="577" y="-12"/>
      <point x="655" y="91"/>
      <point x="655" y="300" type="curve" smooth="yes"/>
      <point x="655" y="457"/>
      <point x="594" y="558"/>
    </contour>
  </outline>
</glyph>
<glyph name="uni0D58" format="2">
  <advance width="1134"/>
  <unicode hex="0D58"/>
  <outline>
    <contour>
      <point x="570" y="-12" type="curve" smooth="yes"/>
      <point x="661" y="-12"/>
      <point x="721" y="45"/>
      <point x="730" y="143" type="curve" smooth="yes"/>
      <point x="739" y="235" type="line"/>
      <point x="739" y="546" type="line"/>
      <point x="713" y="546" type="line"/>
      <point x="713" y="231" type="line" smooth="yes"/>
      <point x="713" y="146"/>
      <point x="702" y="100"/>
      <point x="675" y="63" type="curve" smooth="yes"/>
      <point x="652" y="33"/>
      <point x="619" y="14"/>
      <point x="567" y="14" type="curve" smooth="yes"/>
      <point x="519" y="14"/>
      <point x="484" y="33"/>
      <point x="461" y="63" type="curve" smooth="yes"/>
      <point x="432" y="101"/>
      <point x="421" y="151"/>
      <point x="421" y="230" type="curve" smooth="yes"/>
      <point x="421" y="546" type="line"/>
      <point x="395" y="546" type="line"/>
      <point x="395" y="234" type="line" smooth="yes"/>
      <point x="395" y="149"/>
      <point x="381" y="88"/>
      <point x="342" y="50" type="curve" smooth="yes"/>
      <point x="319" y="27"/>
      <point x="287" y="14"/>
      <point x="250" y="14" type="curve" smooth="yes"/>
      <point x="127" y="14"/>
      <point x="72" y="127"/>
      <point x="72" y="258" type="curve" smooth="yes"/>
      <point x="72" y="398"/>
      <point x="128" y="467"/>
      <point x="204" y="531" type="curve"/>
      <point x="189" y="552" type="line"/>
      <point x="107" y="484"/>
      <point x="45" y="408"/>
      <point x="45" y="258" type="curve" smooth="yes"/>
      <point x="45" y="95"/>
      <point x="124" y="-12"/>
      <point x="248" y="-12" type="curve" smooth="yes"/>
      <point x="339" y="-12"/>
      <point x="394" y="44"/>
      <point x="410" y="144" type="curve"/>
      <point x="404" y="145" type="line"/>
      <point x="418" y="54"/>
      <point x="468" y="-12"/>
    </contour>
    <contour>
      <point x="888" y="-12" type="curve" smooth="yes"/>
      <point x="1016" y="-12"/>
      <point x="1083" y="112"/>
      <point x="1083" y="312" type="curve" smooth="yes"/>
      <point x="1083" y="695"/>
      <point x="839" y="843"/>
      <point x="587" y="843" type="curve" smooth="yes"/>
      <point x="489" y="843"/>
      <point x="406" y="832"/>
      <point x="343" y="816" type="curve"/>
      <point x="347" y="791" type="line"/>
      <point x="410" y="805"/>
      <point x="493" y="817"/>
      <point x="587" y="817" type="curve" smooth="yes"/>
      <point x="827" y="817"/>
      <point x="1056" y="680"/>
      <point x="1056" y="312" type="curve" smooth="yes"/>
      <point x="1056" y="128"/>
      <point x="1002" y="14"/>
      <point x="887" y="14" type="curve" smooth="yes"/>
      <point x="847" y="14"/>
      <point x="817" y="26"/>
      <point x="793" y="48" type="curve" smooth="yes"/>
      <point x="752" y="86"/>
      <point x="739" y="145"/>
      <point x="739" y="226" type="curve" smooth="yes"/>
      <point x="739" y="536" type="line"/>
      <point x="725" y="536" type="line"/>
      <point x="725" y="224" type="line"/>
      <point x="722" y="144" type="line"/>
      <point x="739" y="47"/>
      <point x="793" y="-12"/>
    </contour>
  </outline>
</glyph>
<glyph name="uni0D59" format="2">
  <advance width="1010"/>
  <unicode hex="0D59"/>
  <outline>
    <contour>
      <point x="333" y="558" type="curve" smooth="yes"/>
      <point x="142" y="558"/>
      <point x="45" y="425"/>
      <point x="45" y="275" type="curve" smooth="yes"/>
      <point x="45" y="127"/>
      <point x="116" y="47"/>
      <point x="191" y="-6" type="curve"/>
      <point x="206" y="15" type="line"/>
      <point x="119" y="76"/>
      <point x="72" y="153"/>
      <point x="72" y="276" type="curve" smooth="yes"/>
      <point x="72" y="446"/>
      <point x="192" y="532"/>
      <point x="333" y="532" type="curve" smooth="yes"/>
      <point x="494" y="532"/>
      <point x="582" y="437"/>
      <point x="600" y="290" type="curve"/>
      <point x="601" y="279" type="line"/>
      <point x="602" y="266"/>
      <point x="603" y="254"/>
      <point x="603" y="234" type="curve" smooth="yes"/>
      <point x="603" y="80"/>
      <point x="556" y="14"/>
      <point x="449" y="14" type="curve" smooth="yes"/>
      <point x="370" y="14"/>
      <point x="324" y="63"/>
      <point x="324" y="142" type="curve" smooth="yes"/>
      <point x="324" y="178"/>
      <point x="336" y="209"/>
      <point x="359" y="230" type="curve" smooth="yes"/>
      <point x="398" y="267"/>
      <point x="466" y="277"/>
      <point x="554" y="277" type="curve" smooth="yes"/>
      <point x="572" y="277" type="line"/>
      <point x="572" y="303" type="line"/>
      <point x="557" y="303" type="line" smooth="yes"/>
      <point x="450" y="303"/>
      <point x="383" y="288"/>
      <point x="340" y="247" type="curve" smooth="yes"/>
      <point x="313" y="222"/>
      <point x="297" y="187"/>
      <point x="297" y="142" type="curve" smooth="yes"/>
      <point x="297" y="64"/>
      <point x="343" y="-12"/>
      <point x="448" y="-12" type="curve" smooth="yes"/>
      <point x="560" y="-12"/>
      <point x="630" y="51"/>
      <point x="630" y="234" type="curve" smooth="yes"/>
      <point x="630" y="417"/>
      <point x="534" y="558"/>
    </contour>
    <contour>
      <point x="858" y="546" type="curve" smooth="yes"/>
      <point x="778" y="546"/>
      <point x="717" y="493"/>
      <point x="717" y="401" type="curve" smooth="yes"/>
      <point x="717" y="354"/>
      <point x="729" y="322"/>
      <point x="750" y="283" type="curve"/>
      <point x="777" y="288" type="line"/>
      <point x="758" y="320"/>
      <point x="744" y="353"/>
      <point x="744" y="400" type="curve" smooth="yes"/>
      <point x="744" y="472"/>
      <point x="783" y="520"/>
      <point x="858" y="520" type="curve" smooth="yes"/>
      <point x="925" y="520"/>
      <point x="961" y="476"/>
      <point x="961" y="414" type="curve" smooth="yes"/>
      <point x="961" y="377"/>
      <point x="949" y="351"/>
      <point x="929" y="333" type="curve" smooth="yes"/>
      <point x="905" y="312"/>
      <point x="872" y="303"/>
      <point x="807" y="303" type="curve" smooth="yes"/>
      <point x="563" y="303" type="line"/>
      <point x="563" y="277" type="line"/>
      <point x="808" y="277" type="line" smooth="yes"/>
      <point x="869" y="277"/>
      <point x="919" y="286"/>
      <point x="953" y="320" type="curve" smooth="yes"/>
      <point x="975" y="342"/>
      <point x="988" y="375"/>
      <point x="988" y="415" type="curve" smooth="yes"/>
      <point x="988" y="482"/>
      <point x="945" y="546"/>
    </contour>
  </outline>
</glyph>
<glyph name="uni0D5A" format="2">
  <advance width="1006"/>
  <unicode hex="0D5A"/>
  <outline>
    <contour>
      <point x="683" y="558" type="curve" smooth="yes"/>
      <point x="564" y="558"/>
      <point x="454" y="512"/>
      <point x="426" y="370" type="curve"/>
      <point x="431" y="372" type="line"/>
      <point x="420" y="461"/>
      <point x="386" y="558"/>
      <point x="256" y="558" type="curve" smooth="yes"/>
      <point x="128" y="558"/>
      <point x="45" y="451"/>
      <point x="45" y="288" type="curve" smooth="yes"/>
      <point x="45" y="138"/>
      <point x="107" y="62"/>
      <point x="189" y="-6" type="curve"/>
      <point x="204" y="15" type="line"/>
      <point x="128" y="79"/>
      <point x="72" y="149"/>
      <point x="72" y="288" type="curve" smooth="yes"/>
      <point x="72" y="419"/>
      <point x="130" y="532"/>
      <point x="258" y="532" type="curve" smooth="yes"/>
      <point x="303" y="532"/>
      <point x="332" y="519"/>
      <point x="356" y="496" type="curve" smooth="yes"/>
      <point x="396" y="458"/>
      <point x="410" y="399"/>
      <point x="410" y="312" type="curve" smooth="yes"/>
      <point x="410" y="230" type="line"/>
      <point x="436" y="230" type="line"/>
      <point x="436" y="250" type="line" smooth="yes"/>
      <point x="436" y="351"/>
      <point x="453" y="421"/>
      <point x="505" y="473" type="curve" smooth="yes"/>
      <point x="539" y="507"/>
      <point x="582" y="526"/>
      <point x="635" y="526" type="curve" smooth="yes"/>
      <point x="718" y="526"/>
      <point x="745" y="461"/>
      <point x="745" y="403" type="curve" smooth="yes"/>
      <point x="745" y="282"/>
      <point x="614" y="147"/>
      <point x="449" y="26" type="curve"/>
      <point x="449" y="0" type="line"/>
      <point x="941" y="0" type="line"/>
      <point x="941" y="249" type="line" smooth="yes"/>
      <point x="941" y="383"/>
      <point x="908" y="462"/>
      <point x="846" y="510" type="curve" smooth="yes"/>
      <point x="805" y="542"/>
      <point x="751" y="558"/>
    </contour>
    <contour>
      <point x="772" y="405" type="curve" smooth="yes"/>
      <point x="772" y="464"/>
      <point x="752" y="521"/>
      <point x="673" y="542" type="curve"/>
      <point x="677" y="536" type="line"/>
      <point x="852" y="536"/>
      <point x="915" y="421"/>
      <point x="915" y="252" type="curve" smooth="yes"/>
      <point x="915" y="26" type="line"/>
      <point x="647" y="26" type="line" smooth="yes"/>
      <point x="590" y="26"/>
      <point x="517" y="25"/>
      <point x="472" y="23" type="curve"/>
      <point x="469" y="9" type="line"/>
      <point x="644" y="142"/>
      <point x="772" y="272"/>
    </contour>
  </outline>
</glyph>
<glyph name="uni0D5B" format="2">
  <advance width="895"/>
  <unicode hex="0D5B"/>
  <outline>
    <contour>
      <point x="581" y="-12" type="curve" smooth="yes"/>
      <point x="750" y="-12"/>
      <point x="850" y="108"/>
      <point x="850" y="271" type="curve" smooth="yes"/>
      <point x="850" y="419"/>
      <point x="779" y="499"/>
      <point x="704" y="552" type="curve"/>
      <point x="689" y="531" type="line"/>
      <point x="776" y="470"/>
      <point x="823" y="393"/>
      <point x="823" y="270" type="curve" smooth="yes"/>
      <point x="823" y="132"/>
      <point x="745" y="14"/>
      <point x="583" y="14" type="curve" smooth="yes"/>
      <point x="421" y="14"/>
      <point x="347" y="129"/>
      <point x="347" y="269" type="curve" smooth="yes"/>
      <point x="347" y="405"/>
      <point x="412" y="480"/>
      <point x="473" y="525" type="curve"/>
      <point x="463" y="546" type="line"/>
      <point x="79" y="546" type="line"/>
      <point x="79" y="0" type="line"/>
      <point x="105" y="0" type="line"/>
      <point x="105" y="520" type="line"/>
      <point x="438" y="520" type="line"/>
      <point x="444" y="531" type="line"/>
      <point x="391" y="491"/>
      <point x="320" y="418"/>
      <point x="320" y="269" type="curve" smooth="yes"/>
      <point x="320" y="106"/>
      <point x="416" y="-12"/>
    </contour>
  </outline>
</glyph>
<glyph name="uni0D5C" format="2">
  <advance width="1412"/>
  <unicode hex="0D5C"/>
  <outline>
    <contour>
      <point x="855" y="558" type="curve" smooth="yes"/>
      <point x="808" y="558"/>
      <point x="771" y="541"/>
      <point x="746" y="515" type="curve" smooth="yes"/>
      <point x="704" y="471"/>
      <point x="693" y="413"/>
      <point x="693" y="304" type="curve" smooth="yes"/>
      <point x="693" y="253" type="line" smooth="yes"/>
      <point x="693" y="161"/>
      <point x="687" y="96"/>
      <point x="652" y="54" type="curve" smooth="yes"/>
      <point x="632" y="29"/>
      <point x="601" y="14"/>
      <point x="557" y="14" type="curve" smooth="yes"/>
      <point x="512" y="14"/>
      <point x="481" y="29"/>
      <point x="461" y="54" type="curve" smooth="yes"/>
      <point x="427" y="96"/>
      <point x="421" y="160"/>
      <point x="421" y="252" type="curve" smooth="yes"/>
      <point x="421" y="291" type="line" smooth="yes"/>
      <point x="421" y="406"/>
      <point x="410" y="461"/>
      <point x="370" y="508" type="curve" smooth="yes"/>
      <point x="343" y="540"/>
      <point x="302" y="558"/>
      <point x="245" y="558" type="curve" smooth="yes"/>
      <point x="121" y="558"/>
      <point x="45" y="455"/>
      <point x="45" y="288" type="curve" smooth="yes"/>
      <point x="45" y="139"/>
      <point x="108" y="60"/>
      <point x="190" y="-8" type="curve"/>
      <point x="205" y="13" type="line"/>
      <point x="128" y="77"/>
      <point x="72" y="148"/>
      <point x="72" y="289" type="curve" smooth="yes"/>
      <point x="72" y="449"/>
      <point x="142" y="532"/>
      <point x="244" y="532" type="curve" smooth="yes"/>
      <point x="301" y="532"/>
      <point x="332" y="515"/>
      <point x="355" y="486" type="curve" smooth="yes"/>
      <point x="389" y="442"/>
      <point x="395" y="380"/>
      <point x="395" y="273" type="curve" smooth="yes"/>
      <point x="395" y="242" type="line" smooth="yes"/>
      <point x="395" y="133"/>
      <point x="405" y="82"/>
      <point x="441" y="38" type="curve" smooth="yes"/>
      <point x="467" y="7"/>
      <point x="502" y="-12"/>
      <point x="557" y="-12" type="curve" smooth="yes"/>
      <point x="604" y="-12"/>
      <point x="641" y="5"/>
      <point x="666" y="31" type="curve" smooth="yes"/>
      <point x="708" y="75"/>
      <point x="719" y="136"/>
      <point x="719" y="242" type="curve" smooth="yes"/>
      <point x="719" y="293" type="line" smooth="yes"/>
      <point x="719" y="385"/>
      <point x="725" y="450"/>
      <point x="760" y="492" type="curve" smooth="yes"/>
      <point x="780" y="517"/>
      <point x="811" y="532"/>
      <point x="855" y="532" type="curve" smooth="yes"/>
      <point x="900" y="532"/>
      <point x="931" y="517"/>
      <point x="951" y="492" type="curve" smooth="yes"/>
      <point x="985" y="450"/>
      <point x="991" y="386"/>
      <point x="991" y="294" type="curve" smooth="yes"/>
      <point x="991" y="255" type="line" smooth="yes"/>
      <point x="991" y="140"/>
      <point x="1002" y="85"/>
      <point x="1042" y="38" type="curve" smooth="yes"/>
      <point x="1069" y="6"/>
      <point x="1110" y="-12"/>
      <point x="1167" y="-12" type="curve" smooth="yes"/>
      <point x="1291" y="-12"/>
      <point x="1367" y="91"/>
      <point x="1367" y="258" type="curve" smooth="yes"/>
      <point x="1367" y="407"/>
      <point x="1304" y="486"/>
      <point x="1222" y="554" type="curve"/>
      <point x="1207" y="533" type="line"/>
      <point x="1284" y="469"/>
      <point x="1340" y="398"/>
      <point x="1340" y="257" type="curve" smooth="yes"/>
      <point x="1340" y="97"/>
      <point x="1270" y="14"/>
      <point x="1168" y="14" type="curve" smooth="yes"/>
      <point x="1111" y="14"/>
      <point x="1080" y="31"/>
      <point x="1057" y="60" type="curve" smooth="yes"/>
      <point x="1023" y="104"/>
      <point x="1017" y="166"/>
      <point x="1017" y="273" type="curve" smooth="yes"/>
      <point x="1017" y="304" type="line" smooth="yes"/>
      <point x="1017" y="414"/>
      <point x="1007" y="464"/>
      <point x="971" y="508" type="curve" smooth="yes"/>
      <point x="945" y="539"/>
      <point x="910" y="558"/>
    </contour>
  </outline>
</glyph>
